<?xml version="1.0" encoding="utf-8" standalone="no"?>
<!DOCTYPE svg PUBLIC "-//W3C//DTD SVG 1.1//EN"
  "http://www.w3.org/Graphics/SVG/1.1/DTD/svg11.dtd">
<svg xmlns:xlink="http://www.w3.org/1999/xlink" width="720pt" height="432pt" viewBox="0 0 720 432" xmlns="http://www.w3.org/2000/svg" version="1.1">
 <metadata>
  <rdf:RDF xmlns:dc="http://purl.org/dc/elements/1.1/" xmlns:cc="http://creativecommons.org/ns#" xmlns:rdf="http://www.w3.org/1999/02/22-rdf-syntax-ns#">
   <cc:Work>
    <dc:type rdf:resource="http://purl.org/dc/dcmitype/StillImage"/>
    <dc:date>2024-11-22T21:56:43.422890</dc:date>
    <dc:format>image/svg+xml</dc:format>
    <dc:creator>
     <cc:Agent>
      <dc:title>Matplotlib v3.9.2, https://matplotlib.org/</dc:title>
     </cc:Agent>
    </dc:creator>
   </cc:Work>
  </rdf:RDF>
 </metadata>
 <defs>
  <style type="text/css">*{stroke-linejoin: round; stroke-linecap: butt}</style>
 </defs>
 <g id="figure_1">
  <g id="patch_1">
   <path d="M 0 432 
L 720 432 
L 720 0 
L 0 0 
z
" style="fill: #ffffff"/>
  </g>
  <g id="axes_1">
   <g id="patch_2">
    <path d="M 90 384.48 
L 648 384.48 
L 648 51.84 
L 90 51.84 
z
" style="fill: #ffffff"/>
   </g>
   <g id="matplotlib.axis_1">
    <g id="xtick_1">
     <g id="line2d_1">
      <defs>
       <path id="m4ad3e0d643" d="M 0 0 
L 0 3.5 
" style="stroke: #000000; stroke-width: 0.8"/>
      </defs>
      <g>
       <use xlink:href="#m4ad3e0d643" x="115.363636" y="384.48" style="stroke: #000000; stroke-width: 0.8"/>
      </g>
     </g>
     <g id="text_1">
      <!-- 0.0 -->
      <g transform="translate(107.412074 399.078438) scale(0.1 -0.1)">
       <defs>
        <path id="DejaVuSans-30" d="M 2034 4250 
Q 1547 4250 1301 3770 
Q 1056 3291 1056 2328 
Q 1056 1369 1301 889 
Q 1547 409 2034 409 
Q 2525 409 2770 889 
Q 3016 1369 3016 2328 
Q 3016 3291 2770 3770 
Q 2525 4250 2034 4250 
z
M 2034 4750 
Q 2819 4750 3233 4129 
Q 3647 3509 3647 2328 
Q 3647 1150 3233 529 
Q 2819 -91 2034 -91 
Q 1250 -91 836 529 
Q 422 1150 422 2328 
Q 422 3509 836 4129 
Q 1250 4750 2034 4750 
z
" transform="scale(0.015625)"/>
        <path id="DejaVuSans-2e" d="M 684 794 
L 1344 794 
L 1344 0 
L 684 0 
L 684 794 
z
" transform="scale(0.015625)"/>
       </defs>
       <use xlink:href="#DejaVuSans-30"/>
       <use xlink:href="#DejaVuSans-2e" x="63.623047"/>
       <use xlink:href="#DejaVuSans-30" x="95.410156"/>
      </g>
     </g>
    </g>
    <g id="xtick_2">
     <g id="line2d_2">
      <g>
       <use xlink:href="#m4ad3e0d643" x="216.818182" y="384.48" style="stroke: #000000; stroke-width: 0.8"/>
      </g>
     </g>
     <g id="text_2">
      <!-- 0.2 -->
      <g transform="translate(208.866619 399.078438) scale(0.1 -0.1)">
       <defs>
        <path id="DejaVuSans-32" d="M 1228 531 
L 3431 531 
L 3431 0 
L 469 0 
L 469 531 
Q 828 903 1448 1529 
Q 2069 2156 2228 2338 
Q 2531 2678 2651 2914 
Q 2772 3150 2772 3378 
Q 2772 3750 2511 3984 
Q 2250 4219 1831 4219 
Q 1534 4219 1204 4116 
Q 875 4013 500 3803 
L 500 4441 
Q 881 4594 1212 4672 
Q 1544 4750 1819 4750 
Q 2544 4750 2975 4387 
Q 3406 4025 3406 3419 
Q 3406 3131 3298 2873 
Q 3191 2616 2906 2266 
Q 2828 2175 2409 1742 
Q 1991 1309 1228 531 
z
" transform="scale(0.015625)"/>
       </defs>
       <use xlink:href="#DejaVuSans-30"/>
       <use xlink:href="#DejaVuSans-2e" x="63.623047"/>
       <use xlink:href="#DejaVuSans-32" x="95.410156"/>
      </g>
     </g>
    </g>
    <g id="xtick_3">
     <g id="line2d_3">
      <g>
       <use xlink:href="#m4ad3e0d643" x="318.272727" y="384.48" style="stroke: #000000; stroke-width: 0.8"/>
      </g>
     </g>
     <g id="text_3">
      <!-- 0.4 -->
      <g transform="translate(310.321165 399.078438) scale(0.1 -0.1)">
       <defs>
        <path id="DejaVuSans-34" d="M 2419 4116 
L 825 1625 
L 2419 1625 
L 2419 4116 
z
M 2253 4666 
L 3047 4666 
L 3047 1625 
L 3713 1625 
L 3713 1100 
L 3047 1100 
L 3047 0 
L 2419 0 
L 2419 1100 
L 313 1100 
L 313 1709 
L 2253 4666 
z
" transform="scale(0.015625)"/>
       </defs>
       <use xlink:href="#DejaVuSans-30"/>
       <use xlink:href="#DejaVuSans-2e" x="63.623047"/>
       <use xlink:href="#DejaVuSans-34" x="95.410156"/>
      </g>
     </g>
    </g>
    <g id="xtick_4">
     <g id="line2d_4">
      <g>
       <use xlink:href="#m4ad3e0d643" x="419.727273" y="384.48" style="stroke: #000000; stroke-width: 0.8"/>
      </g>
     </g>
     <g id="text_4">
      <!-- 0.6 -->
      <g transform="translate(411.77571 399.078438) scale(0.1 -0.1)">
       <defs>
        <path id="DejaVuSans-36" d="M 2113 2584 
Q 1688 2584 1439 2293 
Q 1191 2003 1191 1497 
Q 1191 994 1439 701 
Q 1688 409 2113 409 
Q 2538 409 2786 701 
Q 3034 994 3034 1497 
Q 3034 2003 2786 2293 
Q 2538 2584 2113 2584 
z
M 3366 4563 
L 3366 3988 
Q 3128 4100 2886 4159 
Q 2644 4219 2406 4219 
Q 1781 4219 1451 3797 
Q 1122 3375 1075 2522 
Q 1259 2794 1537 2939 
Q 1816 3084 2150 3084 
Q 2853 3084 3261 2657 
Q 3669 2231 3669 1497 
Q 3669 778 3244 343 
Q 2819 -91 2113 -91 
Q 1303 -91 875 529 
Q 447 1150 447 2328 
Q 447 3434 972 4092 
Q 1497 4750 2381 4750 
Q 2619 4750 2861 4703 
Q 3103 4656 3366 4563 
z
" transform="scale(0.015625)"/>
       </defs>
       <use xlink:href="#DejaVuSans-30"/>
       <use xlink:href="#DejaVuSans-2e" x="63.623047"/>
       <use xlink:href="#DejaVuSans-36" x="95.410156"/>
      </g>
     </g>
    </g>
    <g id="xtick_5">
     <g id="line2d_5">
      <g>
       <use xlink:href="#m4ad3e0d643" x="521.181818" y="384.48" style="stroke: #000000; stroke-width: 0.8"/>
      </g>
     </g>
     <g id="text_5">
      <!-- 0.8 -->
      <g transform="translate(513.230256 399.078438) scale(0.1 -0.1)">
       <defs>
        <path id="DejaVuSans-38" d="M 2034 2216 
Q 1584 2216 1326 1975 
Q 1069 1734 1069 1313 
Q 1069 891 1326 650 
Q 1584 409 2034 409 
Q 2484 409 2743 651 
Q 3003 894 3003 1313 
Q 3003 1734 2745 1975 
Q 2488 2216 2034 2216 
z
M 1403 2484 
Q 997 2584 770 2862 
Q 544 3141 544 3541 
Q 544 4100 942 4425 
Q 1341 4750 2034 4750 
Q 2731 4750 3128 4425 
Q 3525 4100 3525 3541 
Q 3525 3141 3298 2862 
Q 3072 2584 2669 2484 
Q 3125 2378 3379 2068 
Q 3634 1759 3634 1313 
Q 3634 634 3220 271 
Q 2806 -91 2034 -91 
Q 1263 -91 848 271 
Q 434 634 434 1313 
Q 434 1759 690 2068 
Q 947 2378 1403 2484 
z
M 1172 3481 
Q 1172 3119 1398 2916 
Q 1625 2713 2034 2713 
Q 2441 2713 2670 2916 
Q 2900 3119 2900 3481 
Q 2900 3844 2670 4047 
Q 2441 4250 2034 4250 
Q 1625 4250 1398 4047 
Q 1172 3844 1172 3481 
z
" transform="scale(0.015625)"/>
       </defs>
       <use xlink:href="#DejaVuSans-30"/>
       <use xlink:href="#DejaVuSans-2e" x="63.623047"/>
       <use xlink:href="#DejaVuSans-38" x="95.410156"/>
      </g>
     </g>
    </g>
    <g id="xtick_6">
     <g id="line2d_6">
      <g>
       <use xlink:href="#m4ad3e0d643" x="622.636364" y="384.48" style="stroke: #000000; stroke-width: 0.8"/>
      </g>
     </g>
     <g id="text_6">
      <!-- 1.0 -->
      <g transform="translate(614.684801 399.078438) scale(0.1 -0.1)">
       <defs>
        <path id="DejaVuSans-31" d="M 794 531 
L 1825 531 
L 1825 4091 
L 703 3866 
L 703 4441 
L 1819 4666 
L 2450 4666 
L 2450 531 
L 3481 531 
L 3481 0 
L 794 0 
L 794 531 
z
" transform="scale(0.015625)"/>
       </defs>
       <use xlink:href="#DejaVuSans-31"/>
       <use xlink:href="#DejaVuSans-2e" x="63.623047"/>
       <use xlink:href="#DejaVuSans-30" x="95.410156"/>
      </g>
     </g>
    </g>
    <g id="text_7">
     <!-- Recall -->
     <g transform="translate(354.082812 412.756563) scale(0.1 -0.1)">
      <defs>
       <path id="DejaVuSans-52" d="M 2841 2188 
Q 3044 2119 3236 1894 
Q 3428 1669 3622 1275 
L 4263 0 
L 3584 0 
L 2988 1197 
Q 2756 1666 2539 1819 
Q 2322 1972 1947 1972 
L 1259 1972 
L 1259 0 
L 628 0 
L 628 4666 
L 2053 4666 
Q 2853 4666 3247 4331 
Q 3641 3997 3641 3322 
Q 3641 2881 3436 2590 
Q 3231 2300 2841 2188 
z
M 1259 4147 
L 1259 2491 
L 2053 2491 
Q 2509 2491 2742 2702 
Q 2975 2913 2975 3322 
Q 2975 3731 2742 3939 
Q 2509 4147 2053 4147 
L 1259 4147 
z
" transform="scale(0.015625)"/>
       <path id="DejaVuSans-65" d="M 3597 1894 
L 3597 1613 
L 953 1613 
Q 991 1019 1311 708 
Q 1631 397 2203 397 
Q 2534 397 2845 478 
Q 3156 559 3463 722 
L 3463 178 
Q 3153 47 2828 -22 
Q 2503 -91 2169 -91 
Q 1331 -91 842 396 
Q 353 884 353 1716 
Q 353 2575 817 3079 
Q 1281 3584 2069 3584 
Q 2775 3584 3186 3129 
Q 3597 2675 3597 1894 
z
M 3022 2063 
Q 3016 2534 2758 2815 
Q 2500 3097 2075 3097 
Q 1594 3097 1305 2825 
Q 1016 2553 972 2059 
L 3022 2063 
z
" transform="scale(0.015625)"/>
       <path id="DejaVuSans-63" d="M 3122 3366 
L 3122 2828 
Q 2878 2963 2633 3030 
Q 2388 3097 2138 3097 
Q 1578 3097 1268 2742 
Q 959 2388 959 1747 
Q 959 1106 1268 751 
Q 1578 397 2138 397 
Q 2388 397 2633 464 
Q 2878 531 3122 666 
L 3122 134 
Q 2881 22 2623 -34 
Q 2366 -91 2075 -91 
Q 1284 -91 818 406 
Q 353 903 353 1747 
Q 353 2603 823 3093 
Q 1294 3584 2113 3584 
Q 2378 3584 2631 3529 
Q 2884 3475 3122 3366 
z
" transform="scale(0.015625)"/>
       <path id="DejaVuSans-61" d="M 2194 1759 
Q 1497 1759 1228 1600 
Q 959 1441 959 1056 
Q 959 750 1161 570 
Q 1363 391 1709 391 
Q 2188 391 2477 730 
Q 2766 1069 2766 1631 
L 2766 1759 
L 2194 1759 
z
M 3341 1997 
L 3341 0 
L 2766 0 
L 2766 531 
Q 2569 213 2275 61 
Q 1981 -91 1556 -91 
Q 1019 -91 701 211 
Q 384 513 384 1019 
Q 384 1609 779 1909 
Q 1175 2209 1959 2209 
L 2766 2209 
L 2766 2266 
Q 2766 2663 2505 2880 
Q 2244 3097 1772 3097 
Q 1472 3097 1187 3025 
Q 903 2953 641 2809 
L 641 3341 
Q 956 3463 1253 3523 
Q 1550 3584 1831 3584 
Q 2591 3584 2966 3190 
Q 3341 2797 3341 1997 
z
" transform="scale(0.015625)"/>
       <path id="DejaVuSans-6c" d="M 603 4863 
L 1178 4863 
L 1178 0 
L 603 0 
L 603 4863 
z
" transform="scale(0.015625)"/>
      </defs>
      <use xlink:href="#DejaVuSans-52"/>
      <use xlink:href="#DejaVuSans-65" x="64.982422"/>
      <use xlink:href="#DejaVuSans-63" x="126.505859"/>
      <use xlink:href="#DejaVuSans-61" x="181.486328"/>
      <use xlink:href="#DejaVuSans-6c" x="242.765625"/>
      <use xlink:href="#DejaVuSans-6c" x="270.548828"/>
     </g>
    </g>
   </g>
   <g id="matplotlib.axis_2">
    <g id="ytick_1">
     <g id="line2d_7">
      <defs>
       <path id="m221499bd17" d="M 0 0 
L -3.5 0 
" style="stroke: #000000; stroke-width: 0.8"/>
      </defs>
      <g>
       <use xlink:href="#m221499bd17" x="90" y="334.518572" style="stroke: #000000; stroke-width: 0.8"/>
      </g>
     </g>
     <g id="text_8">
      <!-- 0.2 -->
      <g transform="translate(67.096875 338.317791) scale(0.1 -0.1)">
       <use xlink:href="#DejaVuSans-30"/>
       <use xlink:href="#DejaVuSans-2e" x="63.623047"/>
       <use xlink:href="#DejaVuSans-32" x="95.410156"/>
      </g>
     </g>
    </g>
    <g id="ytick_2">
     <g id="line2d_8">
      <g>
       <use xlink:href="#m221499bd17" x="90" y="267.628929" style="stroke: #000000; stroke-width: 0.8"/>
      </g>
     </g>
     <g id="text_9">
      <!-- 0.4 -->
      <g transform="translate(67.096875 271.428148) scale(0.1 -0.1)">
       <use xlink:href="#DejaVuSans-30"/>
       <use xlink:href="#DejaVuSans-2e" x="63.623047"/>
       <use xlink:href="#DejaVuSans-34" x="95.410156"/>
      </g>
     </g>
    </g>
    <g id="ytick_3">
     <g id="line2d_9">
      <g>
       <use xlink:href="#m221499bd17" x="90" y="200.739286" style="stroke: #000000; stroke-width: 0.8"/>
      </g>
     </g>
     <g id="text_10">
      <!-- 0.6 -->
      <g transform="translate(67.096875 204.538505) scale(0.1 -0.1)">
       <use xlink:href="#DejaVuSans-30"/>
       <use xlink:href="#DejaVuSans-2e" x="63.623047"/>
       <use xlink:href="#DejaVuSans-36" x="95.410156"/>
      </g>
     </g>
    </g>
    <g id="ytick_4">
     <g id="line2d_10">
      <g>
       <use xlink:href="#m221499bd17" x="90" y="133.849643" style="stroke: #000000; stroke-width: 0.8"/>
      </g>
     </g>
     <g id="text_11">
      <!-- 0.8 -->
      <g transform="translate(67.096875 137.648862) scale(0.1 -0.1)">
       <use xlink:href="#DejaVuSans-30"/>
       <use xlink:href="#DejaVuSans-2e" x="63.623047"/>
       <use xlink:href="#DejaVuSans-38" x="95.410156"/>
      </g>
     </g>
    </g>
    <g id="ytick_5">
     <g id="line2d_11">
      <g>
       <use xlink:href="#m221499bd17" x="90" y="66.96" style="stroke: #000000; stroke-width: 0.8"/>
      </g>
     </g>
     <g id="text_12">
      <!-- 1.0 -->
      <g transform="translate(67.096875 70.759219) scale(0.1 -0.1)">
       <use xlink:href="#DejaVuSans-31"/>
       <use xlink:href="#DejaVuSans-2e" x="63.623047"/>
       <use xlink:href="#DejaVuSans-30" x="95.410156"/>
      </g>
     </g>
    </g>
    <g id="text_13">
     <!-- Precision -->
     <g transform="translate(61.017187 240.467031) rotate(-90) scale(0.1 -0.1)">
      <defs>
       <path id="DejaVuSans-50" d="M 1259 4147 
L 1259 2394 
L 2053 2394 
Q 2494 2394 2734 2622 
Q 2975 2850 2975 3272 
Q 2975 3691 2734 3919 
Q 2494 4147 2053 4147 
L 1259 4147 
z
M 628 4666 
L 2053 4666 
Q 2838 4666 3239 4311 
Q 3641 3956 3641 3272 
Q 3641 2581 3239 2228 
Q 2838 1875 2053 1875 
L 1259 1875 
L 1259 0 
L 628 0 
L 628 4666 
z
" transform="scale(0.015625)"/>
       <path id="DejaVuSans-72" d="M 2631 2963 
Q 2534 3019 2420 3045 
Q 2306 3072 2169 3072 
Q 1681 3072 1420 2755 
Q 1159 2438 1159 1844 
L 1159 0 
L 581 0 
L 581 3500 
L 1159 3500 
L 1159 2956 
Q 1341 3275 1631 3429 
Q 1922 3584 2338 3584 
Q 2397 3584 2469 3576 
Q 2541 3569 2628 3553 
L 2631 2963 
z
" transform="scale(0.015625)"/>
       <path id="DejaVuSans-69" d="M 603 3500 
L 1178 3500 
L 1178 0 
L 603 0 
L 603 3500 
z
M 603 4863 
L 1178 4863 
L 1178 4134 
L 603 4134 
L 603 4863 
z
" transform="scale(0.015625)"/>
       <path id="DejaVuSans-73" d="M 2834 3397 
L 2834 2853 
Q 2591 2978 2328 3040 
Q 2066 3103 1784 3103 
Q 1356 3103 1142 2972 
Q 928 2841 928 2578 
Q 928 2378 1081 2264 
Q 1234 2150 1697 2047 
L 1894 2003 
Q 2506 1872 2764 1633 
Q 3022 1394 3022 966 
Q 3022 478 2636 193 
Q 2250 -91 1575 -91 
Q 1294 -91 989 -36 
Q 684 19 347 128 
L 347 722 
Q 666 556 975 473 
Q 1284 391 1588 391 
Q 1994 391 2212 530 
Q 2431 669 2431 922 
Q 2431 1156 2273 1281 
Q 2116 1406 1581 1522 
L 1381 1569 
Q 847 1681 609 1914 
Q 372 2147 372 2553 
Q 372 3047 722 3315 
Q 1072 3584 1716 3584 
Q 2034 3584 2315 3537 
Q 2597 3491 2834 3397 
z
" transform="scale(0.015625)"/>
       <path id="DejaVuSans-6f" d="M 1959 3097 
Q 1497 3097 1228 2736 
Q 959 2375 959 1747 
Q 959 1119 1226 758 
Q 1494 397 1959 397 
Q 2419 397 2687 759 
Q 2956 1122 2956 1747 
Q 2956 2369 2687 2733 
Q 2419 3097 1959 3097 
z
M 1959 3584 
Q 2709 3584 3137 3096 
Q 3566 2609 3566 1747 
Q 3566 888 3137 398 
Q 2709 -91 1959 -91 
Q 1206 -91 779 398 
Q 353 888 353 1747 
Q 353 2609 779 3096 
Q 1206 3584 1959 3584 
z
" transform="scale(0.015625)"/>
       <path id="DejaVuSans-6e" d="M 3513 2113 
L 3513 0 
L 2938 0 
L 2938 2094 
Q 2938 2591 2744 2837 
Q 2550 3084 2163 3084 
Q 1697 3084 1428 2787 
Q 1159 2491 1159 1978 
L 1159 0 
L 581 0 
L 581 3500 
L 1159 3500 
L 1159 2956 
Q 1366 3272 1645 3428 
Q 1925 3584 2291 3584 
Q 2894 3584 3203 3211 
Q 3513 2838 3513 2113 
z
" transform="scale(0.015625)"/>
      </defs>
      <use xlink:href="#DejaVuSans-50"/>
      <use xlink:href="#DejaVuSans-72" x="58.552734"/>
      <use xlink:href="#DejaVuSans-65" x="97.416016"/>
      <use xlink:href="#DejaVuSans-63" x="158.939453"/>
      <use xlink:href="#DejaVuSans-69" x="213.919922"/>
      <use xlink:href="#DejaVuSans-73" x="241.703125"/>
      <use xlink:href="#DejaVuSans-69" x="293.802734"/>
      <use xlink:href="#DejaVuSans-6f" x="321.585938"/>
      <use xlink:href="#DejaVuSans-6e" x="382.767578"/>
     </g>
    </g>
   </g>
   <g id="line2d_12">
    <path d="M 622.636364 368.330978 
L 622.555018 368.296371 
L 622.31098 368.181458 
L 612.793516 365.553537 
L 610.759869 364.40259 
L 609.051607 363.952434 
L 607.099306 363.22184 
L 603.520089 362.413408 
L 602.462593 362.298035 
L 601.567788 362.127473 
L 599.778179 361.351113 
L 598.476646 360.98557 
L 597.907225 360.711036 
L 592.457053 360.125699 
L 589.77264 359.001389 
L 588.79649 358.781888 
L 583.834393 357.795071 
L 582.288822 357.46332 
L 575.374424 356.051012 
L 574.967695 355.86832 
L 574.642312 355.704502 
L 574.072891 355.549164 
L 573.340778 355.241799 
L 569.029448 354.453787 
L 567.971952 354.010801 
L 565.124847 353.576757 
L 564.718118 353.508502 
L 563.009855 352.736598 
L 555.444691 351.611467 
L 555.363345 351.530071 
L 555.200653 351.436913 
L 551.702782 350.699294 
L 548.774331 350.384848 
L 548.774331 350.197154 
L 548.530293 350.190662 
L 548.530293 350.174455 
L 545.683189 349.771433 
L 544.218963 349.405296 
L 541.453204 348.424918 
L 541.453204 348.289969 
L 540.965129 348.247653 
L 530.308823 346.848736 
L 524.126538 345.891491 
L 523.150388 345.818398 
L 523.150388 345.816554 
L 522.987696 345.774169 
L 519.733862 345.466155 
L 519.57117 345.271437 
L 518.59502 345.192427 
L 517.862907 344.839891 
L 517.374832 344.687451 
L 517.293487 344.59169 
L 509.565631 344.022808 
L 508.914864 343.688368 
L 508.020059 343.441194 
L 501.837775 342.9797 
L 495.167415 342.085998 
L 494.191265 342.121346 
L 494.191265 342.116832 
L 487.276867 341.422446 
L 487.03283 341.292007 
L 486.951484 341.29807 
L 476.539215 340.301673 
L 475.644411 340.32235 
L 475.644411 340.276972 
L 470.845006 339.859378 
L 464.988104 338.270409 
L 464.255992 338.272282 
L 464.255992 338.263945 
L 463.686571 338.211213 
L 461.571579 337.928235 
L 454.657181 337.895945 
L 453.030264 337.390206 
L 452.542189 337.097218 
L 452.054114 337.124703 
L 445.871829 336.25055 
L 420.085194 332.702813 
L 419.434428 332.68749 
L 418.620969 332.541993 
L 416.668669 332.305957 
L 408.534084 331.81518 
L 406.988512 331.442827 
L 406.500437 331.478312 
L 406.500437 331.474226 
L 404.385445 331.240249 
L 404.385445 331.227817 
L 404.304099 331.243425 
L 404.304099 331.239281 
L 403.816024 331.279106 
L 398.447198 330.861495 
L 391.207417 329.505984 
L 390.312613 329.078894 
L 390.312613 329.051116 
L 388.523004 328.886124 
L 387.221471 328.899235 
L 386.896087 328.863661 
L 383.886291 328.06158 
L 381.201878 327.826906 
L 370.626917 326.007791 
L 370.626917 325.64856 
L 369.406729 325.490075 
L 369.406729 325.229835 
L 368.430579 325.311646 
L 367.454429 324.967842 
L 354.276401 322.744452 
L 353.544288 322.727163 
L 353.218905 322.555886 
L 351.75468 322.551703 
L 351.75468 322.513296 
L 331.336871 320.219588 
L 331.174179 320.035222 
L 329.953991 319.723705 
L 252.024666 301.679248 
L 251.94332 301.222925 
L 251.780629 301.252919 
L 251.211208 300.772446 
L 250.397749 300.593972 
L 250.397749 300.281797 
L 250.316403 300.287459 
L 249.99102 299.958106 
L 249.746982 299.918786 
L 249.665636 299.793566 
L 244.540848 298.221161 
L 243.808735 298.164084 
L 243.483352 297.797684 
L 243.076623 297.861834 
L 243.076623 297.841411 
L 243.076623 297.780093 
L 242.507202 297.915331 
L 241.205668 296.567002 
L 241.205668 296.460672 
L 239.578751 295.69461 
L 239.578751 295.628923 
L 239.334713 295.7711 
L 239.334713 295.661518 
L 239.253368 295.665091 
L 239.253368 295.356866 
L 239.090676 295.407854 
L 239.090676 295.363659 
L 238.846638 295.06293 
L 236.324917 294.617471 
L 236.162225 294.278017 
L 235.348767 293.651309 
L 234.698 293.623608 
L 234.372616 293.108583 
L 232.094933 291.407484 
L 231.932241 291.459995 
L 231.932241 291.434766 
L 231.525512 291.237038 
L 226.970144 288.996909 
L 226.970144 288.665475 
L 225.261881 288.051582 
L 225.261881 287.709288 
L 222.496122 286.702929 
L 222.414776 286.460748 
L 220.543822 285.59634 
L 220.543822 285.285352 
L 218.916905 284.795622 
L 218.754213 284.915017 
L 217.778063 283.593357 
L 209.480786 279.608849 
L 209.39944 279.368399 
L 208.911365 278.606348 
L 206.959065 277.244453 
L 204.844073 276.698711 
L 204.030614 275.831724 
L 203.867922 275.889189 
L 203.867922 275.845876 
L 201.75293 274.556785 
L 201.427547 274.490636 
L 201.427547 274.35392 
L 201.264855 273.953392 
L 200.207359 273.95864 
L 199.556592 273.012851 
L 199.475246 273.089308 
L 198.580442 272.44458 
L 198.580442 272.05452 
L 197.929675 271.643331 
L 197.929675 271.444609 
L 197.848329 271.522926 
L 181.17243 258.703254 
L 181.009738 258.905729 
L 180.684355 258.783724 
L 180.684355 258.632077 
L 180.603009 258.658099 
L 180.521663 258.608098 
L 179.78955 256.346339 
L 179.382821 256.068212 
L 179.220129 256.116655 
L 177.593212 254.112369 
L 177.511867 254.220176 
L 177.349175 254.436162 
L 176.291679 252.300053 
L 176.210333 251.876078 
L 175.315529 250.558561 
L 174.827453 250.213629 
L 174.583416 250.27333 
L 174.583416 250.179457 
L 173.851303 248.826828 
L 173.52592 248.511493 
L 173.119191 248.60369 
L 172.793807 247.583824 
L 172.468424 247.14892 
L 164.415185 233.76709 
L 164.415185 233.067419 
L 164.008455 231.484653 
L 163.927109 231.624555 
L 163.764418 231.76057 
L 163.683072 231.466179 
L 163.52038 231.748109 
L 163.357688 231.739731 
L 163.194997 232.023589 
L 162.54423 230.199067 
L 162.54423 229.74453 
L 162.300192 228.335013 
L 162.218847 228.479874 
L 162.137501 228.469615 
L 162.056155 227.676744 
L 161.649426 227.934164 
L 161.486734 228.228181 
L 161.324042 227.888251 
L 160.998659 226.221055 
L 160.917313 226.206157 
L 160.917313 224.384585 
L 160.59193 224.814476 
L 160.59193 224.646611 
L 160.510584 223.100089 
L 160.347892 222.712695 
L 160.347892 221.670739 
L 160.1852 221.797137 
L 160.1852 221.446334 
L 160.103854 221.597347 
L 159.859817 221.346036 
L 159.859817 220.634328 
L 159.778471 220.78633 
L 159.534433 221.065235 
L 159.453088 220.318372 
L 159.290396 219.716026 
L 159.046358 219.995395 
L 159.046358 219.811965 
L 158.151554 217.391729 
L 158.070208 216.58157 
L 157.907516 216.897227 
L 157.419441 214.680648 
L 157.094058 215.321518 
L 156.605983 213.420139 
L 155.223103 210.183448 
L 155.223103 207.697074 
L 154.653682 206.548761 
L 154.490991 204.022213 
L 154.246953 201.074573 
L 154.084261 200.654936 
L 153.840224 198.074018 
L 153.108111 197.754709 
L 152.864074 196.10778 
L 152.782728 192.661704 
L 152.457344 192.492618 
L 152.213307 192.723585 
L 152.131961 192.609053 
L 151.806578 193.017672 
L 151.56254 189.702019 
L 147.495248 162.083858 
L 147.413902 162.256497 
L 147.25121 162.603661 
L 145.054872 152.278422 
L 144.729489 151.954071 
L 143.590647 126.399849 
L 143.183917 125.124907 
L 138.709896 69.274521 
L 138.62855 69.282557 
L 134.073182 69.843174 
L 133.422415 69.946145 
L 133.422415 68.459768 
L 133.341069 68.466523 
L 133.097032 68.487161 
L 133.015686 66.96 
L 115.363636 66.96 
L 115.363636 66.96 
" clip-path="url(#p3086c11d2b)" style="fill: none; stroke: #1f77b4; stroke-width: 2; stroke-linecap: square"/>
   </g>
   <g id="line2d_13">
    <path d="M 622.636364 368.887923 
L 622.553625 368.892711 
L 622.553625 368.876201 
L 621.808974 368.732117 
L 618.499414 368.028167 
L 601.455183 363.597276 
L 599.469447 363.353365 
L 561.409514 357.628827 
L 559.423778 357.520013 
L 558.182693 357.347493 
L 557.520781 357.175997 
L 557.189825 357.026777 
L 555.94874 357.036769 
L 553.632049 356.430755 
L 548.336754 353.924155 
L 547.592103 353.843218 
L 547.343886 353.628591 
L 542.87598 353.291998 
L 534.022909 351.719215 
L 523.680536 349.11757 
L 523.515058 348.884162 
L 516.068549 348.076659 
L 515.98581 348.080647 
L 515.98581 348.068352 
L 515.489376 347.986641 
L 515.15842 347.875229 
L 512.014338 347.274083 
L 501.589226 346.009036 
L 500.927314 345.982038 
L 500.348141 345.905414 
L 499.272535 345.838505 
L 499.272535 345.834525 
L 499.272535 345.830545 
L 498.527884 345.856776 
L 498.527884 345.844818 
L 493.398066 345.60578 
L 491.826026 345.356818 
L 491.246853 345.300452 
L 491.246853 345.292163 
L 490.66768 345.227157 
L 490.66768 345.166757 
L 488.18551 344.825514 
L 487.854554 344.711831 
L 487.771815 344.720156 
L 487.771815 344.647482 
L 485.620602 344.542234 
L 478.587788 342.183994 
L 478.256832 342.209302 
L 478.256832 341.918805 
L 477.512181 341.891227 
L 477.098486 341.692149 
L 476.271096 341.660371 
L 463.942987 340.172651 
L 462.619163 339.610242 
L 462.536424 339.614084 
L 462.536424 339.60592 
L 433.246823 335.252109 
L 433.164084 335.112318 
L 432.915867 334.934251 
L 407.514998 332.210005 
L 406.025697 331.989215 
L 405.942958 332.004875 
L 405.942958 331.906314 
L 404.536395 331.723196 
L 404.1227 331.602326 
L 404.1227 331.518731 
L 403.957222 331.449872 
L 390.967201 330.580635 
L 390.967201 330.540085 
L 390.470767 330.577622 
L 357.788867 326.604149 
L 341.572026 322.873351 
L 341.572026 322.493792 
L 339.999985 322.14609 
L 337.021382 321.251947 
L 337.021382 321.057864 
L 335.614819 321.179221 
L 279.517786 310.511604 
L 279.517786 310.311941 
L 277.283833 310.3769 
L 277.283833 310.338902 
L 274.387969 309.19627 
L 246.50493 294.833945 
L 246.339452 294.73251 
L 245.925757 294.854756 
L 245.925757 294.811713 
L 245.925757 294.660787 
L 245.760279 294.493329 
L 241.457852 291.059854 
L 241.044157 291.015595 
L 238.892943 288.513984 
L 238.810204 288.180002 
L 229.295221 286.618785 
L 229.212482 286.358029 
L 228.716048 286.284081 
L 223.66897 284.570021 
L 223.66897 284.476401 
L 223.586231 284.503281 
L 221.104061 282.348377 
L 220.773105 282.489146 
L 220.773105 282.389493 
L 220.773105 282.356238 
L 220.524888 282.036218 
L 219.945716 281.515265 
L 219.945716 281.140066 
L 219.532021 280.757699 
L 218.870109 280.868107 
L 218.870109 280.833369 
L 218.125458 280.163416 
L 217.95998 280.252566 
L 217.711763 279.906764 
L 217.711763 279.656467 
L 217.546285 279.674191 
L 214.567681 277.603519 
L 212.168251 273.864404 
L 211.920034 273.942158 
L 211.920034 273.858847 
L 210.099776 272.210102 
L 209.355125 271.870823 
L 209.106908 271.99229 
L 209.106908 271.948076 
L 208.858691 271.803797 
L 208.444996 271.977791 
L 207.36939 270.455252 
L 205.880088 269.271578 
L 205.880088 268.936692 
L 205.631871 268.819915 
L 192.559111 259.119029 
L 192.476372 258.751128 
L 192.062677 258.535637 
L 191.979938 258.029027 
L 187.594772 254.244258 
L 180.892914 242.414826 
L 180.892914 242.319334 
L 180.479219 241.595984 
L 179.320873 241.724169 
L 178.079788 237.746661 
L 178.079788 237.640937 
L 173.363666 230.278143 
L 172.949971 228.853762 
L 172.619015 228.434998 
L 169.80589 222.346437 
L 169.557673 222.288362 
L 169.392195 222.54279 
L 169.392195 222.396179 
L 168.647544 221.471164 
L 168.482066 221.579275 
L 168.316588 221.687932 
L 168.15111 220.885405 
L 167.985632 220.840248 
L 167.985632 220.225025 
L 167.571937 219.479919 
L 167.571937 219.322949 
L 167.240981 219.219657 
L 167.158242 218.076707 
L 166.827286 217.638966 
L 166.744547 217.772193 
L 166.744547 217.609683 
L 166.579069 217.550804 
L 165.751679 216.413698 
L 165.503462 212.521339 
L 164.427855 208.669837 
L 164.262377 208.945805 
L 164.262377 208.75822 
L 164.262377 207.244271 
L 163.931422 207.606535 
L 163.848683 207.169708 
L 163.600466 206.619694 
L 163.517727 205.781219 
L 163.434988 205.724013 
L 163.434988 204.534443 
L 163.26951 203.608913 
L 163.26951 202.184433 
L 163.021293 202.397707 
L 163.021293 201.571937 
L 162.690337 201.508133 
L 162.607598 201.648873 
L 162.607598 201.230091 
L 162.524859 201.370983 
L 162.44212 201.512171 
L 161.201035 202.177773 
L 160.704601 200.666023 
L 160.042689 200.962004 
L 159.711733 198.62061 
L 159.628994 196.917021 
L 158.801604 190.621525 
L 158.718865 190.770157 
L 158.139692 188.202633 
L 157.974214 187.97472 
L 157.56052 186.85653 
L 156.484913 186.096346 
L 156.319435 186.405791 
L 156.153957 186.436937 
L 156.071218 186.592913 
L 155.988479 186.468328 
L 152.099746 169.021662 
L 152.099746 168.292034 
L 151.520574 165.676167 
L 151.437835 165.835644 
L 149.452099 145.288021 
L 148.54197 130.471378 
L 148.459231 130.599944 
L 148.045536 130.141182 
L 147.549102 129.231739 
L 144.074065 112.71784 
L 144.074065 111.274389 
L 142.088329 96.247838 
L 141.840112 90.293596 
L 140.929983 78.456657 
L 140.35081 68.063789 
L 134.476342 68.401587 
L 131.166783 68.701918 
L 130.422132 66.96 
L 115.363636 66.96 
L 115.363636 66.96 
" clip-path="url(#p3086c11d2b)" style="fill: none; stroke: #ff7f0e; stroke-width: 2; stroke-linecap: square"/>
   </g>
   <g id="line2d_14">
    <path d="M 622.636364 369.36 
L 622.636364 369.3147 
L 620.705335 368.71885 
L 610.966236 366.392646 
L 610.210617 366.234549 
L 606.180645 365.544461 
L 599.967771 363.935681 
L 594.42656 362.730438 
L 593.083236 362.649578 
L 591.404081 362.415733 
L 590.060757 362.057272 
L 582.588517 359.226991 
L 580.909362 358.780578 
L 578.978333 358.572407 
L 574.276699 357.450969 
L 574.108784 357.260049 
L 573.017333 356.921216 
L 569.40715 356.070672 
L 557.82098 354.366951 
L 557.065361 354.054229 
L 556.561614 353.981874 
L 555.97391 353.858999 
L 552.195811 353.536577 
L 551.524149 353.316473 
L 550.01291 353.166639 
L 547.494177 353.128732 
L 545.815022 352.946638 
L 542.876501 352.809097 
L 542.54067 352.66645 
L 542.456712 352.667653 
L 541.78505 352.428587 
L 535.991965 351.731798 
L 525.497247 350.605033 
L 525.413289 350.598053 
L 522.306852 350.291307 
L 522.306852 350.139342 
L 521.719148 350.163142 
L 521.719148 350.16152 
L 515.338359 349.532481 
L 513.491288 348.8096 
L 512.903584 348.772029 
L 512.903584 348.76678 
L 512.399838 348.759981 
L 511.644218 348.420985 
L 510.972556 348.338002 
L 510.80464 348.219024 
L 509.629232 348.177616 
L 509.377358 348.001652 
L 505.011555 347.860964 
L 503.416358 347.657402 
L 499.97409 347.413245 
L 499.218471 347.096315 
L 496.028076 346.769502 
L 495.608287 346.669997 
L 495.104541 346.444576 
L 494.516837 346.375672 
L 494.516837 346.351599 
L 494.264963 346.249437 
L 494.181006 346.164755 
L 493.761217 346.199699 
L 493.761217 346.193633 
L 493.089555 345.847972 
L 490.151034 345.577213 
L 489.395414 345.282597 
L 481.503385 342.77154 
L 481.083597 342.782202 
L 481.083597 342.779843 
L 479.992146 342.387143 
L 479.404442 342.359905 
L 479.320484 342.296501 
L 478.145075 342.16373 
L 476.46592 341.743286 
L 475.626343 341.748382 
L 475.626343 341.733497 
L 473.86323 341.615305 
L 470.420962 340.941305 
L 459.338539 339.065327 
L 445.317595 337.119563 
L 443.386567 336.956742 
L 430.876862 335.758887 
L 427.434594 335.181375 
L 426.762932 334.959296 
L 426.09127 335.031508 
L 426.09127 335.027948 
L 421.893383 334.555194 
L 418.954861 334.570327 
L 418.954861 334.514872 
L 416.855918 334.151479 
L 416.352171 333.889528 
L 415.26072 333.925358 
L 415.26072 333.921546 
L 415.26072 333.810805 
L 414.16927 333.781308 
L 414.001354 333.657643 
L 413.749481 333.664629 
L 413.749481 333.633728 
L 413.749481 333.571841 
L 411.986368 333.402141 
L 382.265325 328.575575 
L 381.761578 328.372827 
L 380.838043 328.177466 
L 380.838043 328.172394 
L 378.067437 327.628713 
L 377.815564 327.438701 
L 377.479733 327.491514 
L 377.479733 327.423426 
L 376.975986 327.297801 
L 376.556198 327.316611 
L 376.556198 327.27966 
L 372.022479 326.087146 
L 347.3389 323.459635 
L 346.331407 323.462854 
L 345.575788 323.154353 
L 345.407872 322.997322 
L 345.072041 322.984294 
L 344.400379 322.802656 
L 342.721224 322.932713 
L 333.066083 320.706166 
L 332.730252 320.740577 
L 324.418435 319.538764 
L 320.976167 319.657174 
L 282.355602 310.643104 
L 275.722939 309.561186 
L 275.722939 308.640848 
L 272.952334 307.600788 
L 272.952334 306.965715 
L 272.868376 306.987621 
L 272.112756 307.028708 
L 239.285276 293.766356 
L 238.277783 292.866387 
L 238.109867 292.894391 
L 237.018417 292.432397 
L 225.096416 290.265622 
L 225.012458 289.439651 
L 224.844543 289.496367 
L 221.486233 288.67687 
L 221.486233 288.586613 
L 220.730613 287.659568 
L 220.310824 287.650319 
L 220.310824 287.339929 
L 218.547711 285.361672 
L 217.456261 284.50996 
L 217.456261 284.341713 
L 216.448768 284.249166 
L 216.36481 283.833346 
L 216.196894 283.788213 
L 216.028979 283.500714 
L 215.945021 283.286469 
L 215.861063 283.071084 
L 212.922542 280.940507 
L 210.907556 278.672946 
L 209.64819 278.346175 
L 208.220908 278.108307 
L 206.961542 276.704523 
L 204.190936 273.942001 
L 203.939063 274.165926 
L 203.939063 273.890012 
L 203.855105 273.964824 
L 203.771147 274.039691 
L 203.771147 273.901347 
L 203.68719 273.837685 
L 203.519274 273.987814 
L 203.519274 273.895279 
L 203.519274 273.383926 
L 203.351359 273.394435 
L 202.679697 272.774286 
L 198.901598 270.702805 
L 198.81764 270.474176 
L 198.733682 270.554363 
L 198.733682 270.502785 
L 198.649725 269.908957 
L 198.397851 269.627624 
L 196.886612 268.695008 
L 196.718696 268.805793 
L 196.718696 267.876975 
L 196.634739 267.904763 
L 196.550781 267.601254 
L 196.466823 267.628929 
L 181.354428 254.385678 
L 181.102555 253.874157 
L 179.171527 252.677587 
L 179.003611 252.371327 
L 178.66778 252.633021 
L 178.66778 252.545196 
L 178.66778 252.104512 
L 176.06509 248.075267 
L 175.897174 248.110591 
L 175.897174 248.013073 
L 167.669315 236.173292 
L 167.585357 235.649817 
L 167.165568 236.192404 
L 166.409949 234.732383 
L 166.409949 234.458696 
L 164.898709 230.119633 
L 164.227047 229.456924 
L 164.143089 228.376681 
L 164.059132 228.36632 
L 164.059132 228.05704 
L 163.975174 228.201134 
L 163.807258 228.335013 
L 163.471427 227.191099 
L 163.38747 227.336897 
L 162.547892 227.048385 
L 162.463934 227.197028 
L 162.296019 227.170981 
L 162.212061 227.320432 
L 162.128103 225.99611 
L 161.624357 224.044436 
L 161.540399 224.19577 
L 160.952695 222.662762 
L 160.700822 222.417099 
L 160.700822 222.239529 
L 160.448948 221.809524 
L 160.281033 220.853427 
L 160.197075 221.008875 
L 160.113117 220.982204 
L 159.777286 221.425402 
L 159.693329 218.793264 
L 159.357498 218.474118 
L 159.357498 217.321172 
L 159.27354 217.479281 
L 158.937709 216.750105 
L 158.853751 216.909626 
L 158.853751 216.712932 
L 158.601878 216.600457 
L 158.51792 216.164268 
L 158.433962 216.325222 
L 158.266047 213.18901 
L 155.663357 211.200699 
L 154.991695 211.444849 
L 154.907737 210.236966 
L 154.571906 206.417808 
L 154.40399 205.787561 
L 153.312539 199.578318 
L 152.808793 194.81001 
L 152.640877 194.590656 
L 152.389004 195.126169 
L 151.969215 190.686507 
L 151.8013 186.688503 
L 151.633384 186.72526 
L 151.633384 183.487206 
L 151.129638 182.888369 
L 151.04568 181.376495 
L 150.961722 180.870045 
L 147.68737 153.787902 
L 147.351539 154.460987 
L 146.679877 150.907845 
L 146.595919 151.076754 
L 145.588426 148.464187 
L 145.588426 147.396913 
L 145.252595 145.357539 
L 143.741356 133.532631 
L 142.817821 128.678623 
L 142.565947 125.679916 
L 142.314074 125.423955 
L 142.230116 125.574636 
L 141.894285 123.28812 
L 138.703891 71.703946 
L 138.032229 71.842456 
L 137.948271 68.198697 
L 137.864313 68.203302 
L 132.323102 68.607528 
L 127.705426 69.219785 
L 127.033764 66.96 
L 115.363636 66.96 
L 115.363636 66.96 
" clip-path="url(#p3086c11d2b)" style="fill: none; stroke: #2ca02c; stroke-width: 2; stroke-linecap: square"/>
   </g>
   <g id="line2d_15">
    <path d="M 622.636364 369.004102 
L 622.553327 368.87059 
L 622.47029 368.871772 
L 613.419262 366.004315 
L 611.758523 365.315291 
L 607.77275 364.096293 
L 595.068096 361.145913 
L 592.327877 360.369345 
L 580.868778 358.458733 
L 580.702704 358.330972 
L 577.713374 357.567839 
L 575.554413 357.327355 
L 572.814194 356.671655 
L 571.651676 356.539128 
L 562.932797 355.223652 
L 562.434575 354.744247 
L 557.037173 353.852141 
L 553.881769 353.678962 
L 552.22103 353.014913 
L 551.722808 352.731392 
L 551.390661 352.702345 
L 548.15222 352.481975 
L 536.859194 350.383024 
L 531.876977 349.662618 
L 525.234021 349.245791 
L 524.071504 348.818792 
L 518.674102 347.883718 
L 518.092844 347.713163 
L 516.182994 347.45522 
L 515.103513 347.325793 
L 514.771366 347.003402 
L 514.024033 346.98372 
L 514.024033 346.965267 
L 513.940996 346.744928 
L 512.280257 346.625731 
L 509.290927 346.560928 
L 501.402417 345.678833 
L 501.236343 345.600795 
L 496.918421 345.502597 
L 496.171089 345.445158 
L 496.171089 345.439031 
L 496.171089 345.428818 
L 495.755904 345.371228 
L 495.257682 345.280392 
L 491.271909 345.048512 
L 490.69065 344.978116 
L 488.116505 344.418463 
L 484.878064 344.291335 
L 482.968214 344.016082 
L 482.054807 343.962734 
L 482.054807 343.9605 
L 481.97177 343.937742 
L 480.726216 343.850733 
L 479.978884 343.355398 
L 479.563699 343.29055 
L 479.563699 343.281338 
L 479.563699 343.26521 
L 478.733329 343.18546 
L 478.318145 342.996374 
L 475.910073 342.532312 
L 474.91363 342.294787 
L 473.086817 342.249812 
L 463.371494 339.817897 
L 459.302683 339.167819 
L 459.302683 339.159428 
L 459.219646 339.17166 
L 459.219646 339.168863 
L 458.970535 339.163603 
L 457.392833 339.149789 
L 452.244542 338.747441 
L 435.720189 336.122786 
L 425.423607 333.647519 
L 424.011979 333.53619 
L 423.347684 333.470846 
L 418.033319 333.105675 
L 417.867245 332.885925 
L 417.618134 332.853676 
L 404.747407 330.969342 
L 401.093781 329.909936 
L 398.270525 329.64445 
L 398.270525 329.626366 
L 398.187488 329.633871 
L 398.021414 329.490229 
L 396.941934 329.505984 
L 396.941934 329.373542 
L 395.696379 329.495778 
L 392.125791 329.33296 
L 323.703344 314.469698 
L 323.703344 314.361475 
L 319.883644 313.626251 
L 319.634533 313.263517 
L 318.056831 313.378445 
L 317.641646 313.034655 
L 317.55861 312.685979 
L 316.811277 312.568692 
L 316.562166 312.386132 
L 316.562166 312.327417 
L 316.313055 312.143334 
L 314.569279 312.120293 
L 253.620158 296.0029 
L 253.454084 295.588698 
L 252.955862 295.567747 
L 252.955862 295.547529 
L 252.872825 295.388643 
L 252.789789 293.025251 
L 248.305793 289.948683 
L 248.305793 289.646246 
L 243.572687 288.684346 
L 243.406613 288.262285 
L 242.327133 287.871066 
L 242.327133 287.744885 
L 237.261879 286.102912 
L 237.261879 285.858679 
L 236.763657 285.923262 
L 236.763657 285.814057 
L 236.763657 285.786723 
L 232.943957 285.816643 
L 232.943957 285.788422 
L 232.528773 285.517638 
L 232.030551 285.640848 
L 232.030551 285.526651 
L 230.037664 281.906796 
L 229.87159 281.801346 
L 229.788553 281.233602 
L 229.539443 280.803364 
L 229.539443 280.740071 
L 225.968854 278.039336 
L 225.138484 278.008678 
L 225.138484 277.73254 
L 221.484858 275.953323 
L 221.484858 275.658048 
L 220.571452 275.218254 
L 219.242861 272.114421 
L 218.99375 272.064747 
L 218.99375 271.904221 
L 218.744639 271.692319 
L 216.917826 271.433583 
L 216.585678 270.653765 
L 216.087457 270.962657 
L 215.423161 270.475759 
L 215.423161 270.390628 
L 212.516868 266.008765 
L 212.101683 264.9346 
L 205.126579 260.292477 
L 204.711395 259.672776 
L 203.299766 259.792598 
L 203.216729 259.869731 
L 203.133692 259.606465 
L 197.985402 255.19733 
L 197.902365 255.280072 
L 196.241626 254.208684 
L 196.241626 254.142139 
L 182.125344 238.044688 
L 181.710159 237.968384 
L 181.544085 237.676503 
L 181.211938 237.390012 
L 181.211938 236.676889 
L 180.962827 236.377553 
L 177.973497 233.404248 
L 169.752839 221.108972 
L 169.254617 219.770649 
L 169.17158 219.898631 
L 169.17158 219.746486 
L 169.17158 218.981916 
L 168.922469 218.59542 
L 168.590321 217.389927 
L 168.507284 216.566369 
L 168.424247 216.695675 
L 168.258173 216.152986 
L 167.676915 216.419299 
L 167.344767 214.642307 
L 167.344767 214.308499 
L 167.012619 212.978152 
L 166.929582 213.110535 
L 166.846545 213.243158 
L 166.514398 212.398949 
L 165.850102 210.115163 
L 165.767065 210.24996 
L 165.684028 210.024251 
L 165.684028 208.01545 
L 165.517954 206.043881 
L 164.189363 203.166733 
L 163.857215 201.696807 
L 163.774178 201.834715 
L 163.109883 200.038871 
L 163.026846 200.178367 
L 162.943809 199.683134 
L 158.708924 189.021392 
L 158.708924 187.197211 
L 157.546407 181.615598 
L 156.633 178.592179 
L 155.719594 170.196505 
L 150.156118 142.380854 
L 147.997158 133.167096 
L 147.914121 133.302489 
L 147.914121 132.753092 
L 147.831084 132.88819 
L 147.66501 129.799957 
L 145.75516 125.092083 
L 145.589086 124.098078 
L 143.347088 116.068852 
L 143.014941 114.368896 
L 139.610426 75.878619 
L 139.527389 73.71653 
L 139.444352 73.739356 
L 139.361315 73.762337 
L 139.278278 68.11726 
L 132.96747 68.530179 
L 128.732585 69.024495 
L 126.241477 69.493699 
L 125.411107 69.701379 
L 117.190449 66.96 
L 115.363636 66.96 
L 115.363636 66.96 
" clip-path="url(#p3086c11d2b)" style="fill: none; stroke: #d62728; stroke-width: 2; stroke-linecap: square"/>
   </g>
   <g id="line2d_16">
    <path d="M 622.636364 369.322361 
L 622.552503 369.306282 
L 622.300921 369.179501 
L 621.713897 369.039838 
L 620.455988 368.80038 
L 619.952825 368.541309 
L 618.191752 368.270126 
L 616.933843 367.953325 
L 599.826282 364.388991 
L 592.614271 363.069884 
L 591.775665 363.083213 
L 582.047837 361.580171 
L 576.429177 360.260787 
L 564.688694 358.244771 
L 539.698237 353.656862 
L 525.274215 350.99552 
L 524.687191 350.742736 
L 524.60333 350.721653 
L 520.913464 350.405706 
L 520.913464 350.400881 
L 520.829604 350.408211 
L 520.578022 350.435033 
L 518.481507 349.859781 
L 513.785314 349.106992 
L 512.778987 348.738067 
L 511.85652 348.55471 
L 510.263169 348.434228 
L 510.011587 348.30006 
L 508.082794 347.827394 
L 504.896091 347.567779 
L 504.560649 347.353743 
L 503.805903 347.230271 
L 503.135019 347.017594 
L 499.361292 346.66511 
L 496.426171 346.281522 
L 493.239469 346.06804 
L 492.820166 345.960449 
L 491.729978 345.834014 
L 490.472069 345.739445 
L 489.1303 345.371386 
L 486.195179 344.947575 
L 485.608155 344.622888 
L 484.517967 344.470402 
L 483.679361 344.392473 
L 483.5955 344.396603 
L 483.5955 344.39439 
L 474.957859 342.425162 
L 464.055982 340.310914 
L 463.636679 340.274261 
L 463.636679 340.263496 
L 463.636679 340.258112 
L 463.552819 340.264761 
L 463.049655 340.283141 
L 462.29491 340.118635 
L 458.772765 339.442536 
L 457.682577 339.018232 
L 457.263274 338.914729 
L 456.508529 338.90372 
L 446.7807 337.688438 
L 436.214265 336.50667 
L 435.878823 336.307065 
L 435.878823 336.297117 
L 435.040217 336.245087 
L 433.195284 335.870821 
L 433.195284 335.867433 
L 431.769654 335.743797 
L 429.169976 335.103303 
L 429.086115 335.029587 
L 428.41523 335.076519 
L 420.196892 333.649924 
L 420.196892 333.506112 
L 419.358286 333.522288 
L 419.358286 333.465222 
L 413.404184 332.974284 
L 413.404184 332.847971 
L 411.726972 332.594755 
L 401.831422 330.758589 
L 401.328259 330.421759 
L 400.321931 330.313124 
L 397.470671 330.087531 
L 397.135229 329.841154 
L 393.864666 329.624946 
L 393.10992 329.274034 
L 335.497693 321.11495 
L 334.575227 321.13573 
L 333.736621 320.491821 
L 333.568899 320.523909 
L 275.034206 309.876032 
L 275.034206 309.84971 
L 274.950345 309.871475 
L 274.782624 309.915043 
L 274.782624 309.901874 
L 274.782624 309.769983 
L 274.614903 309.826793 
L 274.614903 309.77394 
L 274.614903 309.508756 
L 273.692436 309.415466 
L 273.440854 309.266314 
L 272.85383 309.027902 
L 272.518388 309.088882 
L 271.4282 308.801739 
L 271.176618 308.895965 
L 271.176618 308.88219 
L 270.841176 308.791786 
L 262.203535 307.332902 
L 262.203535 307.287543 
L 262.035814 304.977301 
L 252.727288 301.385178 
L 252.643427 301.116637 
L 252.559567 301.159538 
L 239.477314 292.260837 
L 233.774794 290.056911 
L 233.607073 290.135921 
L 233.607073 290.083384 
L 233.523212 289.951845 
L 233.439351 289.687435 
L 233.18777 289.740026 
L 233.18777 289.633776 
L 232.768467 289.552625 
L 232.768467 289.069563 
L 232.600745 289.149246 
L 232.600745 289.041331 
L 232.600745 288.987296 
L 232.516885 289.040693 
L 227.736831 286.524696 
L 227.65297 286.22659 
L 226.814365 285.778226 
L 226.814365 285.537079 
L 222.369753 282.799009 
L 222.285892 282.594765 
L 217.589699 281.533951 
L 216.834954 280.282103 
L 216.834954 280.173242 
L 216.24793 280.001697 
L 215.996348 278.562223 
L 215.912487 278.627012 
L 215.912487 278.325523 
L 215.325463 278.288304 
L 215.157742 278.380897 
L 215.157742 278.304789 
L 212.474203 276.273794 
L 212.474203 275.949507 
L 212.138761 276.017299 
L 212.138761 275.976548 
L 184.716347 245.231663 
L 184.632486 243.818811 
L 184.548626 243.287999 
L 174.485354 222.647039 
L 174.485354 222.511408 
L 173.982191 222.404155 
L 173.982191 222.129609 
L 173.89833 222.248695 
L 173.562888 221.340673 
L 173.311306 221.700815 
L 172.975864 221.340877 
L 172.975864 221.199648 
L 172.808143 221.158784 
L 172.808143 221.016855 
L 172.640421 219.68337 
L 172.640421 218.957631 
L 172.556561 219.079132 
L 172.4727 219.054945 
L 172.304979 219.152727 
L 172.304979 218.712851 
L 171.801815 217.666461 
L 171.801815 217.215377 
L 171.634094 217.15965 
L 171.382513 217.379049 
L 170.879349 217.974314 
L 170.879349 217.822213 
L 170.711628 217.461697 
L 170.543907 217.712952 
L 170.460046 216.914112 
L 170.376185 217.040123 
L 169.202137 215.988738 
L 168.531252 215.081178 
L 168.279671 213.653034 
L 168.19581 213.78366 
L 167.860368 212.961246 
L 167.776507 211.553415 
L 167.692646 210.992443 
L 167.441065 210.689812 
L 167.105622 210.868466 
L 167.021762 209.93972 
L 166.686319 209.037625 
L 166.434738 209.25825 
L 166.015435 209.020861 
L 165.931574 209.156286 
L 165.931574 208.972839 
L 165.847713 208.74044 
L 165.847713 208.37099 
L 165.763853 208.506701 
L 165.260689 207.83167 
L 165.260689 207.265105 
L 165.009107 207.106602 
L 164.505944 205.812752 
L 164.338223 204.713595 
L 164.170502 204.991604 
L 164.086641 202.722721 
L 164.00278 202.86168 
L 164.00278 202.658251 
L 164.00278 202.454405 
L 163.91892 202.593516 
L 163.835059 202.732914 
L 163.835059 202.528515 
L 163.835059 202.323696 
L 163.499617 202.678116 
L 162.409429 197.688944 
L 162.325568 197.831041 
L 162.325568 197.60952 
L 161.822405 195.993236 
L 161.654684 194.903277 
L 161.570823 195.046551 
L 161.319241 195.246661 
L 160.816078 194.477927 
L 160.145193 189.047517 
L 159.893611 186.405791 
L 158.971145 185.098424 
L 158.887284 184.16338 
L 158.551842 183.932419 
L 158.467981 184.080298 
L 158.132539 182.44982 
L 158.048678 182.598265 
L 157.880957 181.764115 
L 157.545515 176.505204 
L 157.377793 176.798891 
L 155.449 170.053299 
L 155.365139 169.867143 
L 155.029697 170.130429 
L 150.668946 147.25172 
L 150.585085 145.079291 
L 149.998061 140.791021 
L 148.740152 138.344204 
L 148.236989 133.849643 
L 148.069268 130.796589 
L 147.985407 130.929305 
L 146.895219 128.033152 
L 146.727498 122.203678 
L 146.559777 122.451408 
L 145.805032 115.750093 
L 145.721171 113.145706 
L 143.624656 90.914969 
L 141.528141 66.96 
L 115.363636 66.96 
L 115.363636 66.96 
" clip-path="url(#p3086c11d2b)" style="fill: none; stroke: #9467bd; stroke-width: 2; stroke-linecap: square"/>
   </g>
   <g id="patch_3">
    <path d="M 90 384.48 
L 90 51.84 
" style="fill: none; stroke: #000000; stroke-width: 0.8; stroke-linejoin: miter; stroke-linecap: square"/>
   </g>
   <g id="patch_4">
    <path d="M 648 384.48 
L 648 51.84 
" style="fill: none; stroke: #000000; stroke-width: 0.8; stroke-linejoin: miter; stroke-linecap: square"/>
   </g>
   <g id="patch_5">
    <path d="M 90 384.48 
L 648 384.48 
" style="fill: none; stroke: #000000; stroke-width: 0.8; stroke-linejoin: miter; stroke-linecap: square"/>
   </g>
   <g id="patch_6">
    <path d="M 90 51.84 
L 648 51.84 
" style="fill: none; stroke: #000000; stroke-width: 0.8; stroke-linejoin: miter; stroke-linecap: square"/>
   </g>
   <g id="text_14">
    <!-- Precision-Recall Curve - Tous les folds -->
    <g transform="translate(256.651875 45.84) scale(0.12 -0.12)">
     <defs>
      <path id="DejaVuSans-2d" d="M 313 2009 
L 1997 2009 
L 1997 1497 
L 313 1497 
L 313 2009 
z
" transform="scale(0.015625)"/>
      <path id="DejaVuSans-20" transform="scale(0.015625)"/>
      <path id="DejaVuSans-43" d="M 4122 4306 
L 4122 3641 
Q 3803 3938 3442 4084 
Q 3081 4231 2675 4231 
Q 1875 4231 1450 3742 
Q 1025 3253 1025 2328 
Q 1025 1406 1450 917 
Q 1875 428 2675 428 
Q 3081 428 3442 575 
Q 3803 722 4122 1019 
L 4122 359 
Q 3791 134 3420 21 
Q 3050 -91 2638 -91 
Q 1578 -91 968 557 
Q 359 1206 359 2328 
Q 359 3453 968 4101 
Q 1578 4750 2638 4750 
Q 3056 4750 3426 4639 
Q 3797 4528 4122 4306 
z
" transform="scale(0.015625)"/>
      <path id="DejaVuSans-75" d="M 544 1381 
L 544 3500 
L 1119 3500 
L 1119 1403 
Q 1119 906 1312 657 
Q 1506 409 1894 409 
Q 2359 409 2629 706 
Q 2900 1003 2900 1516 
L 2900 3500 
L 3475 3500 
L 3475 0 
L 2900 0 
L 2900 538 
Q 2691 219 2414 64 
Q 2138 -91 1772 -91 
Q 1169 -91 856 284 
Q 544 659 544 1381 
z
M 1991 3584 
L 1991 3584 
z
" transform="scale(0.015625)"/>
      <path id="DejaVuSans-76" d="M 191 3500 
L 800 3500 
L 1894 563 
L 2988 3500 
L 3597 3500 
L 2284 0 
L 1503 0 
L 191 3500 
z
" transform="scale(0.015625)"/>
      <path id="DejaVuSans-54" d="M -19 4666 
L 3928 4666 
L 3928 4134 
L 2272 4134 
L 2272 0 
L 1638 0 
L 1638 4134 
L -19 4134 
L -19 4666 
z
" transform="scale(0.015625)"/>
      <path id="DejaVuSans-66" d="M 2375 4863 
L 2375 4384 
L 1825 4384 
Q 1516 4384 1395 4259 
Q 1275 4134 1275 3809 
L 1275 3500 
L 2222 3500 
L 2222 3053 
L 1275 3053 
L 1275 0 
L 697 0 
L 697 3053 
L 147 3053 
L 147 3500 
L 697 3500 
L 697 3744 
Q 697 4328 969 4595 
Q 1241 4863 1831 4863 
L 2375 4863 
z
" transform="scale(0.015625)"/>
      <path id="DejaVuSans-64" d="M 2906 2969 
L 2906 4863 
L 3481 4863 
L 3481 0 
L 2906 0 
L 2906 525 
Q 2725 213 2448 61 
Q 2172 -91 1784 -91 
Q 1150 -91 751 415 
Q 353 922 353 1747 
Q 353 2572 751 3078 
Q 1150 3584 1784 3584 
Q 2172 3584 2448 3432 
Q 2725 3281 2906 2969 
z
M 947 1747 
Q 947 1113 1208 752 
Q 1469 391 1925 391 
Q 2381 391 2643 752 
Q 2906 1113 2906 1747 
Q 2906 2381 2643 2742 
Q 2381 3103 1925 3103 
Q 1469 3103 1208 2742 
Q 947 2381 947 1747 
z
" transform="scale(0.015625)"/>
     </defs>
     <use xlink:href="#DejaVuSans-50"/>
     <use xlink:href="#DejaVuSans-72" x="58.552734"/>
     <use xlink:href="#DejaVuSans-65" x="97.416016"/>
     <use xlink:href="#DejaVuSans-63" x="158.939453"/>
     <use xlink:href="#DejaVuSans-69" x="213.919922"/>
     <use xlink:href="#DejaVuSans-73" x="241.703125"/>
     <use xlink:href="#DejaVuSans-69" x="293.802734"/>
     <use xlink:href="#DejaVuSans-6f" x="321.585938"/>
     <use xlink:href="#DejaVuSans-6e" x="382.767578"/>
     <use xlink:href="#DejaVuSans-2d" x="446.146484"/>
     <use xlink:href="#DejaVuSans-52" x="482.230469"/>
     <use xlink:href="#DejaVuSans-65" x="547.212891"/>
     <use xlink:href="#DejaVuSans-63" x="608.736328"/>
     <use xlink:href="#DejaVuSans-61" x="663.716797"/>
     <use xlink:href="#DejaVuSans-6c" x="724.996094"/>
     <use xlink:href="#DejaVuSans-6c" x="752.779297"/>
     <use xlink:href="#DejaVuSans-20" x="780.5625"/>
     <use xlink:href="#DejaVuSans-43" x="812.349609"/>
     <use xlink:href="#DejaVuSans-75" x="882.173828"/>
     <use xlink:href="#DejaVuSans-72" x="945.552734"/>
     <use xlink:href="#DejaVuSans-76" x="986.666016"/>
     <use xlink:href="#DejaVuSans-65" x="1045.845703"/>
     <use xlink:href="#DejaVuSans-20" x="1107.369141"/>
     <use xlink:href="#DejaVuSans-2d" x="1139.15625"/>
     <use xlink:href="#DejaVuSans-20" x="1175.240234"/>
     <use xlink:href="#DejaVuSans-54" x="1207.027344"/>
     <use xlink:href="#DejaVuSans-6f" x="1251.111328"/>
     <use xlink:href="#DejaVuSans-75" x="1312.292969"/>
     <use xlink:href="#DejaVuSans-73" x="1375.671875"/>
     <use xlink:href="#DejaVuSans-20" x="1427.771484"/>
     <use xlink:href="#DejaVuSans-6c" x="1459.558594"/>
     <use xlink:href="#DejaVuSans-65" x="1487.341797"/>
     <use xlink:href="#DejaVuSans-73" x="1548.865234"/>
     <use xlink:href="#DejaVuSans-20" x="1600.964844"/>
     <use xlink:href="#DejaVuSans-66" x="1632.751953"/>
     <use xlink:href="#DejaVuSans-6f" x="1667.957031"/>
     <use xlink:href="#DejaVuSans-6c" x="1729.138672"/>
     <use xlink:href="#DejaVuSans-64" x="1756.921875"/>
     <use xlink:href="#DejaVuSans-73" x="1820.398438"/>
    </g>
   </g>
   <g id="legend_1">
    <g id="patch_7">
     <path d="M 97 379.48 
L 159.175 379.48 
Q 161.175 379.48 161.175 377.48 
L 161.175 305.089375 
Q 161.175 303.089375 159.175 303.089375 
L 97 303.089375 
Q 95 303.089375 95 305.089375 
L 95 377.48 
Q 95 379.48 97 379.48 
z
" style="fill: #ffffff; opacity: 0.8; stroke: #cccccc; stroke-linejoin: miter"/>
    </g>
    <g id="line2d_17">
     <path d="M 99 311.187813 
L 109 311.187813 
L 119 311.187813 
" style="fill: none; stroke: #1f77b4; stroke-width: 2; stroke-linecap: square"/>
    </g>
    <g id="text_15">
     <!-- Fold 1 -->
     <g transform="translate(127 314.687813) scale(0.1 -0.1)">
      <defs>
       <path id="DejaVuSans-46" d="M 628 4666 
L 3309 4666 
L 3309 4134 
L 1259 4134 
L 1259 2759 
L 3109 2759 
L 3109 2228 
L 1259 2228 
L 1259 0 
L 628 0 
L 628 4666 
z
" transform="scale(0.015625)"/>
      </defs>
      <use xlink:href="#DejaVuSans-46"/>
      <use xlink:href="#DejaVuSans-6f" x="53.894531"/>
      <use xlink:href="#DejaVuSans-6c" x="115.076172"/>
      <use xlink:href="#DejaVuSans-64" x="142.859375"/>
      <use xlink:href="#DejaVuSans-20" x="206.335938"/>
      <use xlink:href="#DejaVuSans-31" x="238.123047"/>
     </g>
    </g>
    <g id="line2d_18">
     <path d="M 99 325.865937 
L 109 325.865937 
L 119 325.865937 
" style="fill: none; stroke: #ff7f0e; stroke-width: 2; stroke-linecap: square"/>
    </g>
    <g id="text_16">
     <!-- Fold 2 -->
     <g transform="translate(127 329.365937) scale(0.1 -0.1)">
      <use xlink:href="#DejaVuSans-46"/>
      <use xlink:href="#DejaVuSans-6f" x="53.894531"/>
      <use xlink:href="#DejaVuSans-6c" x="115.076172"/>
      <use xlink:href="#DejaVuSans-64" x="142.859375"/>
      <use xlink:href="#DejaVuSans-20" x="206.335938"/>
      <use xlink:href="#DejaVuSans-32" x="238.123047"/>
     </g>
    </g>
    <g id="line2d_19">
     <path d="M 99 340.544062 
L 109 340.544062 
L 119 340.544062 
" style="fill: none; stroke: #2ca02c; stroke-width: 2; stroke-linecap: square"/>
    </g>
    <g id="text_17">
     <!-- Fold 3 -->
     <g transform="translate(127 344.044062) scale(0.1 -0.1)">
      <defs>
       <path id="DejaVuSans-33" d="M 2597 2516 
Q 3050 2419 3304 2112 
Q 3559 1806 3559 1356 
Q 3559 666 3084 287 
Q 2609 -91 1734 -91 
Q 1441 -91 1130 -33 
Q 819 25 488 141 
L 488 750 
Q 750 597 1062 519 
Q 1375 441 1716 441 
Q 2309 441 2620 675 
Q 2931 909 2931 1356 
Q 2931 1769 2642 2001 
Q 2353 2234 1838 2234 
L 1294 2234 
L 1294 2753 
L 1863 2753 
Q 2328 2753 2575 2939 
Q 2822 3125 2822 3475 
Q 2822 3834 2567 4026 
Q 2313 4219 1838 4219 
Q 1578 4219 1281 4162 
Q 984 4106 628 3988 
L 628 4550 
Q 988 4650 1302 4700 
Q 1616 4750 1894 4750 
Q 2613 4750 3031 4423 
Q 3450 4097 3450 3541 
Q 3450 3153 3228 2886 
Q 3006 2619 2597 2516 
z
" transform="scale(0.015625)"/>
      </defs>
      <use xlink:href="#DejaVuSans-46"/>
      <use xlink:href="#DejaVuSans-6f" x="53.894531"/>
      <use xlink:href="#DejaVuSans-6c" x="115.076172"/>
      <use xlink:href="#DejaVuSans-64" x="142.859375"/>
      <use xlink:href="#DejaVuSans-20" x="206.335938"/>
      <use xlink:href="#DejaVuSans-33" x="238.123047"/>
     </g>
    </g>
    <g id="line2d_20">
     <path d="M 99 355.222188 
L 109 355.222188 
L 119 355.222188 
" style="fill: none; stroke: #d62728; stroke-width: 2; stroke-linecap: square"/>
    </g>
    <g id="text_18">
     <!-- Fold 4 -->
     <g transform="translate(127 358.722188) scale(0.1 -0.1)">
      <use xlink:href="#DejaVuSans-46"/>
      <use xlink:href="#DejaVuSans-6f" x="53.894531"/>
      <use xlink:href="#DejaVuSans-6c" x="115.076172"/>
      <use xlink:href="#DejaVuSans-64" x="142.859375"/>
      <use xlink:href="#DejaVuSans-20" x="206.335938"/>
      <use xlink:href="#DejaVuSans-34" x="238.123047"/>
     </g>
    </g>
    <g id="line2d_21">
     <path d="M 99 369.900313 
L 109 369.900313 
L 119 369.900313 
" style="fill: none; stroke: #9467bd; stroke-width: 2; stroke-linecap: square"/>
    </g>
    <g id="text_19">
     <!-- Fold 5 -->
     <g transform="translate(127 373.400313) scale(0.1 -0.1)">
      <defs>
       <path id="DejaVuSans-35" d="M 691 4666 
L 3169 4666 
L 3169 4134 
L 1269 4134 
L 1269 2991 
Q 1406 3038 1543 3061 
Q 1681 3084 1819 3084 
Q 2600 3084 3056 2656 
Q 3513 2228 3513 1497 
Q 3513 744 3044 326 
Q 2575 -91 1722 -91 
Q 1428 -91 1123 -41 
Q 819 9 494 109 
L 494 744 
Q 775 591 1075 516 
Q 1375 441 1709 441 
Q 2250 441 2565 725 
Q 2881 1009 2881 1497 
Q 2881 1984 2565 2268 
Q 2250 2553 1709 2553 
Q 1456 2553 1204 2497 
Q 953 2441 691 2322 
L 691 4666 
z
" transform="scale(0.015625)"/>
      </defs>
      <use xlink:href="#DejaVuSans-46"/>
      <use xlink:href="#DejaVuSans-6f" x="53.894531"/>
      <use xlink:href="#DejaVuSans-6c" x="115.076172"/>
      <use xlink:href="#DejaVuSans-64" x="142.859375"/>
      <use xlink:href="#DejaVuSans-20" x="206.335938"/>
      <use xlink:href="#DejaVuSans-35" x="238.123047"/>
     </g>
    </g>
   </g>
  </g>
 </g>
 <defs>
  <clipPath id="p3086c11d2b">
   <rect x="90" y="51.84" width="558" height="332.64"/>
  </clipPath>
 </defs>
</svg>
