<?xml version="1.0" encoding="utf-8" standalone="no"?>
<!DOCTYPE svg PUBLIC "-//W3C//DTD SVG 1.1//EN"
  "http://www.w3.org/Graphics/SVG/1.1/DTD/svg11.dtd">
<svg xmlns:xlink="http://www.w3.org/1999/xlink" width="720pt" height="432pt" viewBox="0 0 720 432" xmlns="http://www.w3.org/2000/svg" version="1.1">
 <metadata>
  <rdf:RDF xmlns:dc="http://purl.org/dc/elements/1.1/" xmlns:cc="http://creativecommons.org/ns#" xmlns:rdf="http://www.w3.org/1999/02/22-rdf-syntax-ns#">
   <cc:Work>
    <dc:type rdf:resource="http://purl.org/dc/dcmitype/StillImage"/>
    <dc:date>2024-11-22T21:56:43.304041</dc:date>
    <dc:format>image/svg+xml</dc:format>
    <dc:creator>
     <cc:Agent>
      <dc:title>Matplotlib v3.9.2, https://matplotlib.org/</dc:title>
     </cc:Agent>
    </dc:creator>
   </cc:Work>
  </rdf:RDF>
 </metadata>
 <defs>
  <style type="text/css">*{stroke-linejoin: round; stroke-linecap: butt}</style>
 </defs>
 <g id="figure_1">
  <g id="patch_1">
   <path d="M 0 432 
L 720 432 
L 720 0 
L 0 0 
z
" style="fill: #ffffff"/>
  </g>
  <g id="axes_1">
   <g id="patch_2">
    <path d="M 90 384.48 
L 648 384.48 
L 648 51.84 
L 90 51.84 
z
" style="fill: #ffffff"/>
   </g>
   <g id="matplotlib.axis_1">
    <g id="xtick_1">
     <g id="line2d_1">
      <defs>
       <path id="m96a6e4bb9d" d="M 0 0 
L 0 3.5 
" style="stroke: #000000; stroke-width: 0.8"/>
      </defs>
      <g>
       <use xlink:href="#m96a6e4bb9d" x="115.363636" y="384.48" style="stroke: #000000; stroke-width: 0.8"/>
      </g>
     </g>
     <g id="text_1">
      <!-- 0.0 -->
      <g transform="translate(107.412074 399.078438) scale(0.1 -0.1)">
       <defs>
        <path id="DejaVuSans-30" d="M 2034 4250 
Q 1547 4250 1301 3770 
Q 1056 3291 1056 2328 
Q 1056 1369 1301 889 
Q 1547 409 2034 409 
Q 2525 409 2770 889 
Q 3016 1369 3016 2328 
Q 3016 3291 2770 3770 
Q 2525 4250 2034 4250 
z
M 2034 4750 
Q 2819 4750 3233 4129 
Q 3647 3509 3647 2328 
Q 3647 1150 3233 529 
Q 2819 -91 2034 -91 
Q 1250 -91 836 529 
Q 422 1150 422 2328 
Q 422 3509 836 4129 
Q 1250 4750 2034 4750 
z
" transform="scale(0.015625)"/>
        <path id="DejaVuSans-2e" d="M 684 794 
L 1344 794 
L 1344 0 
L 684 0 
L 684 794 
z
" transform="scale(0.015625)"/>
       </defs>
       <use xlink:href="#DejaVuSans-30"/>
       <use xlink:href="#DejaVuSans-2e" x="63.623047"/>
       <use xlink:href="#DejaVuSans-30" x="95.410156"/>
      </g>
     </g>
    </g>
    <g id="xtick_2">
     <g id="line2d_2">
      <g>
       <use xlink:href="#m96a6e4bb9d" x="216.818182" y="384.48" style="stroke: #000000; stroke-width: 0.8"/>
      </g>
     </g>
     <g id="text_2">
      <!-- 0.2 -->
      <g transform="translate(208.866619 399.078438) scale(0.1 -0.1)">
       <defs>
        <path id="DejaVuSans-32" d="M 1228 531 
L 3431 531 
L 3431 0 
L 469 0 
L 469 531 
Q 828 903 1448 1529 
Q 2069 2156 2228 2338 
Q 2531 2678 2651 2914 
Q 2772 3150 2772 3378 
Q 2772 3750 2511 3984 
Q 2250 4219 1831 4219 
Q 1534 4219 1204 4116 
Q 875 4013 500 3803 
L 500 4441 
Q 881 4594 1212 4672 
Q 1544 4750 1819 4750 
Q 2544 4750 2975 4387 
Q 3406 4025 3406 3419 
Q 3406 3131 3298 2873 
Q 3191 2616 2906 2266 
Q 2828 2175 2409 1742 
Q 1991 1309 1228 531 
z
" transform="scale(0.015625)"/>
       </defs>
       <use xlink:href="#DejaVuSans-30"/>
       <use xlink:href="#DejaVuSans-2e" x="63.623047"/>
       <use xlink:href="#DejaVuSans-32" x="95.410156"/>
      </g>
     </g>
    </g>
    <g id="xtick_3">
     <g id="line2d_3">
      <g>
       <use xlink:href="#m96a6e4bb9d" x="318.272727" y="384.48" style="stroke: #000000; stroke-width: 0.8"/>
      </g>
     </g>
     <g id="text_3">
      <!-- 0.4 -->
      <g transform="translate(310.321165 399.078438) scale(0.1 -0.1)">
       <defs>
        <path id="DejaVuSans-34" d="M 2419 4116 
L 825 1625 
L 2419 1625 
L 2419 4116 
z
M 2253 4666 
L 3047 4666 
L 3047 1625 
L 3713 1625 
L 3713 1100 
L 3047 1100 
L 3047 0 
L 2419 0 
L 2419 1100 
L 313 1100 
L 313 1709 
L 2253 4666 
z
" transform="scale(0.015625)"/>
       </defs>
       <use xlink:href="#DejaVuSans-30"/>
       <use xlink:href="#DejaVuSans-2e" x="63.623047"/>
       <use xlink:href="#DejaVuSans-34" x="95.410156"/>
      </g>
     </g>
    </g>
    <g id="xtick_4">
     <g id="line2d_4">
      <g>
       <use xlink:href="#m96a6e4bb9d" x="419.727273" y="384.48" style="stroke: #000000; stroke-width: 0.8"/>
      </g>
     </g>
     <g id="text_4">
      <!-- 0.6 -->
      <g transform="translate(411.77571 399.078438) scale(0.1 -0.1)">
       <defs>
        <path id="DejaVuSans-36" d="M 2113 2584 
Q 1688 2584 1439 2293 
Q 1191 2003 1191 1497 
Q 1191 994 1439 701 
Q 1688 409 2113 409 
Q 2538 409 2786 701 
Q 3034 994 3034 1497 
Q 3034 2003 2786 2293 
Q 2538 2584 2113 2584 
z
M 3366 4563 
L 3366 3988 
Q 3128 4100 2886 4159 
Q 2644 4219 2406 4219 
Q 1781 4219 1451 3797 
Q 1122 3375 1075 2522 
Q 1259 2794 1537 2939 
Q 1816 3084 2150 3084 
Q 2853 3084 3261 2657 
Q 3669 2231 3669 1497 
Q 3669 778 3244 343 
Q 2819 -91 2113 -91 
Q 1303 -91 875 529 
Q 447 1150 447 2328 
Q 447 3434 972 4092 
Q 1497 4750 2381 4750 
Q 2619 4750 2861 4703 
Q 3103 4656 3366 4563 
z
" transform="scale(0.015625)"/>
       </defs>
       <use xlink:href="#DejaVuSans-30"/>
       <use xlink:href="#DejaVuSans-2e" x="63.623047"/>
       <use xlink:href="#DejaVuSans-36" x="95.410156"/>
      </g>
     </g>
    </g>
    <g id="xtick_5">
     <g id="line2d_5">
      <g>
       <use xlink:href="#m96a6e4bb9d" x="521.181818" y="384.48" style="stroke: #000000; stroke-width: 0.8"/>
      </g>
     </g>
     <g id="text_5">
      <!-- 0.8 -->
      <g transform="translate(513.230256 399.078438) scale(0.1 -0.1)">
       <defs>
        <path id="DejaVuSans-38" d="M 2034 2216 
Q 1584 2216 1326 1975 
Q 1069 1734 1069 1313 
Q 1069 891 1326 650 
Q 1584 409 2034 409 
Q 2484 409 2743 651 
Q 3003 894 3003 1313 
Q 3003 1734 2745 1975 
Q 2488 2216 2034 2216 
z
M 1403 2484 
Q 997 2584 770 2862 
Q 544 3141 544 3541 
Q 544 4100 942 4425 
Q 1341 4750 2034 4750 
Q 2731 4750 3128 4425 
Q 3525 4100 3525 3541 
Q 3525 3141 3298 2862 
Q 3072 2584 2669 2484 
Q 3125 2378 3379 2068 
Q 3634 1759 3634 1313 
Q 3634 634 3220 271 
Q 2806 -91 2034 -91 
Q 1263 -91 848 271 
Q 434 634 434 1313 
Q 434 1759 690 2068 
Q 947 2378 1403 2484 
z
M 1172 3481 
Q 1172 3119 1398 2916 
Q 1625 2713 2034 2713 
Q 2441 2713 2670 2916 
Q 2900 3119 2900 3481 
Q 2900 3844 2670 4047 
Q 2441 4250 2034 4250 
Q 1625 4250 1398 4047 
Q 1172 3844 1172 3481 
z
" transform="scale(0.015625)"/>
       </defs>
       <use xlink:href="#DejaVuSans-30"/>
       <use xlink:href="#DejaVuSans-2e" x="63.623047"/>
       <use xlink:href="#DejaVuSans-38" x="95.410156"/>
      </g>
     </g>
    </g>
    <g id="xtick_6">
     <g id="line2d_6">
      <g>
       <use xlink:href="#m96a6e4bb9d" x="622.636364" y="384.48" style="stroke: #000000; stroke-width: 0.8"/>
      </g>
     </g>
     <g id="text_6">
      <!-- 1.0 -->
      <g transform="translate(614.684801 399.078438) scale(0.1 -0.1)">
       <defs>
        <path id="DejaVuSans-31" d="M 794 531 
L 1825 531 
L 1825 4091 
L 703 3866 
L 703 4441 
L 1819 4666 
L 2450 4666 
L 2450 531 
L 3481 531 
L 3481 0 
L 794 0 
L 794 531 
z
" transform="scale(0.015625)"/>
       </defs>
       <use xlink:href="#DejaVuSans-31"/>
       <use xlink:href="#DejaVuSans-2e" x="63.623047"/>
       <use xlink:href="#DejaVuSans-30" x="95.410156"/>
      </g>
     </g>
    </g>
    <g id="text_7">
     <!-- Taux faux positifs -->
     <g transform="translate(325.507031 412.756563) scale(0.1 -0.1)">
      <defs>
       <path id="DejaVuSans-54" d="M -19 4666 
L 3928 4666 
L 3928 4134 
L 2272 4134 
L 2272 0 
L 1638 0 
L 1638 4134 
L -19 4134 
L -19 4666 
z
" transform="scale(0.015625)"/>
       <path id="DejaVuSans-61" d="M 2194 1759 
Q 1497 1759 1228 1600 
Q 959 1441 959 1056 
Q 959 750 1161 570 
Q 1363 391 1709 391 
Q 2188 391 2477 730 
Q 2766 1069 2766 1631 
L 2766 1759 
L 2194 1759 
z
M 3341 1997 
L 3341 0 
L 2766 0 
L 2766 531 
Q 2569 213 2275 61 
Q 1981 -91 1556 -91 
Q 1019 -91 701 211 
Q 384 513 384 1019 
Q 384 1609 779 1909 
Q 1175 2209 1959 2209 
L 2766 2209 
L 2766 2266 
Q 2766 2663 2505 2880 
Q 2244 3097 1772 3097 
Q 1472 3097 1187 3025 
Q 903 2953 641 2809 
L 641 3341 
Q 956 3463 1253 3523 
Q 1550 3584 1831 3584 
Q 2591 3584 2966 3190 
Q 3341 2797 3341 1997 
z
" transform="scale(0.015625)"/>
       <path id="DejaVuSans-75" d="M 544 1381 
L 544 3500 
L 1119 3500 
L 1119 1403 
Q 1119 906 1312 657 
Q 1506 409 1894 409 
Q 2359 409 2629 706 
Q 2900 1003 2900 1516 
L 2900 3500 
L 3475 3500 
L 3475 0 
L 2900 0 
L 2900 538 
Q 2691 219 2414 64 
Q 2138 -91 1772 -91 
Q 1169 -91 856 284 
Q 544 659 544 1381 
z
M 1991 3584 
L 1991 3584 
z
" transform="scale(0.015625)"/>
       <path id="DejaVuSans-78" d="M 3513 3500 
L 2247 1797 
L 3578 0 
L 2900 0 
L 1881 1375 
L 863 0 
L 184 0 
L 1544 1831 
L 300 3500 
L 978 3500 
L 1906 2253 
L 2834 3500 
L 3513 3500 
z
" transform="scale(0.015625)"/>
       <path id="DejaVuSans-20" transform="scale(0.015625)"/>
       <path id="DejaVuSans-66" d="M 2375 4863 
L 2375 4384 
L 1825 4384 
Q 1516 4384 1395 4259 
Q 1275 4134 1275 3809 
L 1275 3500 
L 2222 3500 
L 2222 3053 
L 1275 3053 
L 1275 0 
L 697 0 
L 697 3053 
L 147 3053 
L 147 3500 
L 697 3500 
L 697 3744 
Q 697 4328 969 4595 
Q 1241 4863 1831 4863 
L 2375 4863 
z
" transform="scale(0.015625)"/>
       <path id="DejaVuSans-70" d="M 1159 525 
L 1159 -1331 
L 581 -1331 
L 581 3500 
L 1159 3500 
L 1159 2969 
Q 1341 3281 1617 3432 
Q 1894 3584 2278 3584 
Q 2916 3584 3314 3078 
Q 3713 2572 3713 1747 
Q 3713 922 3314 415 
Q 2916 -91 2278 -91 
Q 1894 -91 1617 61 
Q 1341 213 1159 525 
z
M 3116 1747 
Q 3116 2381 2855 2742 
Q 2594 3103 2138 3103 
Q 1681 3103 1420 2742 
Q 1159 2381 1159 1747 
Q 1159 1113 1420 752 
Q 1681 391 2138 391 
Q 2594 391 2855 752 
Q 3116 1113 3116 1747 
z
" transform="scale(0.015625)"/>
       <path id="DejaVuSans-6f" d="M 1959 3097 
Q 1497 3097 1228 2736 
Q 959 2375 959 1747 
Q 959 1119 1226 758 
Q 1494 397 1959 397 
Q 2419 397 2687 759 
Q 2956 1122 2956 1747 
Q 2956 2369 2687 2733 
Q 2419 3097 1959 3097 
z
M 1959 3584 
Q 2709 3584 3137 3096 
Q 3566 2609 3566 1747 
Q 3566 888 3137 398 
Q 2709 -91 1959 -91 
Q 1206 -91 779 398 
Q 353 888 353 1747 
Q 353 2609 779 3096 
Q 1206 3584 1959 3584 
z
" transform="scale(0.015625)"/>
       <path id="DejaVuSans-73" d="M 2834 3397 
L 2834 2853 
Q 2591 2978 2328 3040 
Q 2066 3103 1784 3103 
Q 1356 3103 1142 2972 
Q 928 2841 928 2578 
Q 928 2378 1081 2264 
Q 1234 2150 1697 2047 
L 1894 2003 
Q 2506 1872 2764 1633 
Q 3022 1394 3022 966 
Q 3022 478 2636 193 
Q 2250 -91 1575 -91 
Q 1294 -91 989 -36 
Q 684 19 347 128 
L 347 722 
Q 666 556 975 473 
Q 1284 391 1588 391 
Q 1994 391 2212 530 
Q 2431 669 2431 922 
Q 2431 1156 2273 1281 
Q 2116 1406 1581 1522 
L 1381 1569 
Q 847 1681 609 1914 
Q 372 2147 372 2553 
Q 372 3047 722 3315 
Q 1072 3584 1716 3584 
Q 2034 3584 2315 3537 
Q 2597 3491 2834 3397 
z
" transform="scale(0.015625)"/>
       <path id="DejaVuSans-69" d="M 603 3500 
L 1178 3500 
L 1178 0 
L 603 0 
L 603 3500 
z
M 603 4863 
L 1178 4863 
L 1178 4134 
L 603 4134 
L 603 4863 
z
" transform="scale(0.015625)"/>
       <path id="DejaVuSans-74" d="M 1172 4494 
L 1172 3500 
L 2356 3500 
L 2356 3053 
L 1172 3053 
L 1172 1153 
Q 1172 725 1289 603 
Q 1406 481 1766 481 
L 2356 481 
L 2356 0 
L 1766 0 
Q 1100 0 847 248 
Q 594 497 594 1153 
L 594 3053 
L 172 3053 
L 172 3500 
L 594 3500 
L 594 4494 
L 1172 4494 
z
" transform="scale(0.015625)"/>
      </defs>
      <use xlink:href="#DejaVuSans-54"/>
      <use xlink:href="#DejaVuSans-61" x="44.583984"/>
      <use xlink:href="#DejaVuSans-75" x="105.863281"/>
      <use xlink:href="#DejaVuSans-78" x="169.242188"/>
      <use xlink:href="#DejaVuSans-20" x="228.421875"/>
      <use xlink:href="#DejaVuSans-66" x="260.208984"/>
      <use xlink:href="#DejaVuSans-61" x="295.414062"/>
      <use xlink:href="#DejaVuSans-75" x="356.693359"/>
      <use xlink:href="#DejaVuSans-78" x="420.072266"/>
      <use xlink:href="#DejaVuSans-20" x="479.251953"/>
      <use xlink:href="#DejaVuSans-70" x="511.039062"/>
      <use xlink:href="#DejaVuSans-6f" x="574.515625"/>
      <use xlink:href="#DejaVuSans-73" x="635.697266"/>
      <use xlink:href="#DejaVuSans-69" x="687.796875"/>
      <use xlink:href="#DejaVuSans-74" x="715.580078"/>
      <use xlink:href="#DejaVuSans-69" x="754.789062"/>
      <use xlink:href="#DejaVuSans-66" x="782.572266"/>
      <use xlink:href="#DejaVuSans-73" x="817.777344"/>
     </g>
    </g>
   </g>
   <g id="matplotlib.axis_2">
    <g id="ytick_1">
     <g id="line2d_7">
      <defs>
       <path id="m32b894d3cc" d="M 0 0 
L -3.5 0 
" style="stroke: #000000; stroke-width: 0.8"/>
      </defs>
      <g>
       <use xlink:href="#m32b894d3cc" x="90" y="369.36" style="stroke: #000000; stroke-width: 0.8"/>
      </g>
     </g>
     <g id="text_8">
      <!-- 0.0 -->
      <g transform="translate(67.096875 373.159219) scale(0.1 -0.1)">
       <use xlink:href="#DejaVuSans-30"/>
       <use xlink:href="#DejaVuSans-2e" x="63.623047"/>
       <use xlink:href="#DejaVuSans-30" x="95.410156"/>
      </g>
     </g>
    </g>
    <g id="ytick_2">
     <g id="line2d_8">
      <g>
       <use xlink:href="#m32b894d3cc" x="90" y="308.88" style="stroke: #000000; stroke-width: 0.8"/>
      </g>
     </g>
     <g id="text_9">
      <!-- 0.2 -->
      <g transform="translate(67.096875 312.679219) scale(0.1 -0.1)">
       <use xlink:href="#DejaVuSans-30"/>
       <use xlink:href="#DejaVuSans-2e" x="63.623047"/>
       <use xlink:href="#DejaVuSans-32" x="95.410156"/>
      </g>
     </g>
    </g>
    <g id="ytick_3">
     <g id="line2d_9">
      <g>
       <use xlink:href="#m32b894d3cc" x="90" y="248.4" style="stroke: #000000; stroke-width: 0.8"/>
      </g>
     </g>
     <g id="text_10">
      <!-- 0.4 -->
      <g transform="translate(67.096875 252.199219) scale(0.1 -0.1)">
       <use xlink:href="#DejaVuSans-30"/>
       <use xlink:href="#DejaVuSans-2e" x="63.623047"/>
       <use xlink:href="#DejaVuSans-34" x="95.410156"/>
      </g>
     </g>
    </g>
    <g id="ytick_4">
     <g id="line2d_10">
      <g>
       <use xlink:href="#m32b894d3cc" x="90" y="187.92" style="stroke: #000000; stroke-width: 0.8"/>
      </g>
     </g>
     <g id="text_11">
      <!-- 0.6 -->
      <g transform="translate(67.096875 191.719219) scale(0.1 -0.1)">
       <use xlink:href="#DejaVuSans-30"/>
       <use xlink:href="#DejaVuSans-2e" x="63.623047"/>
       <use xlink:href="#DejaVuSans-36" x="95.410156"/>
      </g>
     </g>
    </g>
    <g id="ytick_5">
     <g id="line2d_11">
      <g>
       <use xlink:href="#m32b894d3cc" x="90" y="127.44" style="stroke: #000000; stroke-width: 0.8"/>
      </g>
     </g>
     <g id="text_12">
      <!-- 0.8 -->
      <g transform="translate(67.096875 131.239219) scale(0.1 -0.1)">
       <use xlink:href="#DejaVuSans-30"/>
       <use xlink:href="#DejaVuSans-2e" x="63.623047"/>
       <use xlink:href="#DejaVuSans-38" x="95.410156"/>
      </g>
     </g>
    </g>
    <g id="ytick_6">
     <g id="line2d_12">
      <g>
       <use xlink:href="#m32b894d3cc" x="90" y="66.96" style="stroke: #000000; stroke-width: 0.8"/>
      </g>
     </g>
     <g id="text_13">
      <!-- 1.0 -->
      <g transform="translate(67.096875 70.759219) scale(0.1 -0.1)">
       <use xlink:href="#DejaVuSans-31"/>
       <use xlink:href="#DejaVuSans-2e" x="63.623047"/>
       <use xlink:href="#DejaVuSans-30" x="95.410156"/>
      </g>
     </g>
    </g>
    <g id="text_14">
     <!-- Taux vrai positif -->
     <g transform="translate(61.017187 257.563906) rotate(-90) scale(0.1 -0.1)">
      <defs>
       <path id="DejaVuSans-76" d="M 191 3500 
L 800 3500 
L 1894 563 
L 2988 3500 
L 3597 3500 
L 2284 0 
L 1503 0 
L 191 3500 
z
" transform="scale(0.015625)"/>
       <path id="DejaVuSans-72" d="M 2631 2963 
Q 2534 3019 2420 3045 
Q 2306 3072 2169 3072 
Q 1681 3072 1420 2755 
Q 1159 2438 1159 1844 
L 1159 0 
L 581 0 
L 581 3500 
L 1159 3500 
L 1159 2956 
Q 1341 3275 1631 3429 
Q 1922 3584 2338 3584 
Q 2397 3584 2469 3576 
Q 2541 3569 2628 3553 
L 2631 2963 
z
" transform="scale(0.015625)"/>
      </defs>
      <use xlink:href="#DejaVuSans-54"/>
      <use xlink:href="#DejaVuSans-61" x="44.583984"/>
      <use xlink:href="#DejaVuSans-75" x="105.863281"/>
      <use xlink:href="#DejaVuSans-78" x="169.242188"/>
      <use xlink:href="#DejaVuSans-20" x="228.421875"/>
      <use xlink:href="#DejaVuSans-76" x="260.208984"/>
      <use xlink:href="#DejaVuSans-72" x="319.388672"/>
      <use xlink:href="#DejaVuSans-61" x="360.501953"/>
      <use xlink:href="#DejaVuSans-69" x="421.78125"/>
      <use xlink:href="#DejaVuSans-20" x="449.564453"/>
      <use xlink:href="#DejaVuSans-70" x="481.351562"/>
      <use xlink:href="#DejaVuSans-6f" x="544.828125"/>
      <use xlink:href="#DejaVuSans-73" x="606.009766"/>
      <use xlink:href="#DejaVuSans-69" x="658.109375"/>
      <use xlink:href="#DejaVuSans-74" x="685.892578"/>
      <use xlink:href="#DejaVuSans-69" x="725.101562"/>
      <use xlink:href="#DejaVuSans-66" x="752.884766"/>
     </g>
    </g>
   </g>
   <g id="line2d_13">
    <path d="M 115.363636 369.36 
L 115.381493 355.442617 
L 116.03325 352.53306 
L 116.47966 351.660192 
L 116.765362 350.205414 
L 118.54207 345.598614 
L 118.640281 345.598614 
L 119.711663 342.446594 
L 119.800945 342.398101 
L 119.917011 342.155638 
L 120.720548 340.118948 
L 123.675777 333.039025 
L 124.068617 332.21465 
L 129.845154 319.752046 
L 129.943364 319.703554 
L 133.353931 313.254035 
L 133.398571 313.254035 
L 136.032386 308.307787 
L 136.594862 307.62889 
L 136.639503 307.483412 
L 137.210907 306.610545 
L 138.844765 303.846466 
L 138.898334 303.846466 
L 139.55902 302.828121 
L 141.514292 299.773085 
L 143.674913 297.202976 
L 144.657014 295.505734 
L 144.835577 295.457242 
L 144.835577 295.408749 
L 144.835577 295.311764 
L 144.862362 295.311764 
L 145.639114 294.341911 
L 145.65697 294.341911 
L 146.549789 293.469044 
L 146.69264 292.984118 
L 146.942629 292.790148 
L 147.228331 292.256729 
L 149.353239 289.056216 
L 149.728223 288.862245 
L 150.004997 288.328826 
L 150.665683 287.892393 
L 188.530118 241.145504 
L 189.30687 240.612085 
L 189.45865 240.515099 
L 189.467578 240.466607 
L 200.342108 227.373598 
L 200.520672 227.276613 
L 200.690307 226.937165 
L 200.815302 226.791687 
L 208.752459 219.08136 
L 209.663134 218.499448 
L 209.904195 217.917537 
L 210.42203 217.820552 
L 211.029146 217.190148 
L 211.680904 217.093162 
L 211.69876 216.996177 
L 211.957678 216.753714 
L 219.019872 210.740629 
L 220.546592 209.140372 
L 220.618018 209.140372 
L 220.823366 208.994894 
L 223.153622 207.297652 
L 223.296473 206.909711 
L 224.724983 205.454933 
L 225.028541 205.40644 
L 226.3142 204.727543 
L 231.653255 200.508685 
L 234.787048 197.162694 
L 234.894187 197.065709 
L 235.07275 197.065709 
L 236.376265 195.513945 
L 236.376265 195.465452 
L 236.385194 195.465452 
L 236.59947 195.271482 
L 237.849416 194.592585 
L 238.197615 194.010674 
L 240.367164 191.828505 
L 240.527872 191.634535 
L 242.376006 189.646337 
L 245.331236 187.318691 
L 245.438374 187.076228 
L 245.84907 186.785273 
L 266.973158 171.073663 
L 270.776565 168.552046 
L 270.812278 168.358076 
L 271.19619 168.212598 
L 272.758622 167.824657 
L 272.830048 167.727672 
L 272.928258 167.679179 
L 274.303198 166.95179 
L 274.321055 166.806312 
L 276.544173 164.090725 
L 276.758449 163.799769 
L 277.088792 163.654291 
L 277.570914 162.975394 
L 277.731622 162.878409 
L 277.811975 162.732931 
L 280.124375 161.278153 
L 280.392221 160.793226 
L 288.632936 157.35025 
L 288.731146 157.107787 
L 289.150771 156.719846 
L 289.463258 156.622861 
L 289.59718 156.380398 
L 290.123943 156.137935 
L 290.347148 155.846979 
L 290.641778 155.749994 
L 290.847126 155.556023 
L 292.4542 154.440693 
L 292.686333 154.052752 
L 292.989891 153.907274 
L 294.391616 152.452495 
L 298.757499 149.882386 
L 298.882494 149.785401 
L 298.962847 149.785401 
L 301.784154 147.700218 
L 302.426983 147.506248 
L 303.016244 147.312277 
L 304.051913 146.43941 
L 307.399983 144.111764 
L 307.489265 144.111764 
L 308.34637 143.48136 
L 308.69457 142.947941 
L 309.248117 142.656985 
L 309.507035 142.656985 
L 309.908803 142.220552 
L 310.015941 142.123566 
L 316.131748 138.777575 
L 316.783506 138.292649 
L 316.890644 138.244157 
L 321.04225 135.286106 
L 321.399378 135.092136 
L 322.452904 134.752688 
L 322.524329 134.655702 
L 324.417105 134.267761 
L 324.443889 134.219269 
L 331.086459 129.757947 
L 331.77393 129.660962 
L 331.809642 129.61247 
L 332.139985 129.563977 
L 332.782815 129.273021 
L 334.505955 128.88508 
L 334.666662 128.739602 
L 335.318419 128.400154 
L 336.452299 128.206183 
L 339.880722 126.266479 
L 340.523552 125.975523 
L 340.952105 125.587582 
L 341.639575 125.199641 
L 349.29103 121.902142 
L 353.442636 119.962437 
L 354.031897 119.429019 
L 354.156891 119.380526 
L 354.862218 119.283541 
L 355.201489 119.08957 
L 363.183287 115.355638 
L 364.218957 115.258653 
L 365.156416 115.064682 
L 365.23677 115.064682 
L 365.968881 114.773727 
L 366.522428 114.773727 
L 372.56681 113.318948 
L 375.388117 112.446081 
L 378.495125 110.991302 
L 379.611149 110.991302 
L 379.905779 110.700346 
L 383.753827 109.10009 
L 384.18238 109.051597 
L 390.699955 107.111892 
L 391.976686 106.869429 
L 392.789151 106.772444 
L 392.878433 106.723951 
L 393.762323 106.529981 
L 396.913973 105.172187 
L 397.378238 105.123695 
L 397.396095 104.978217 
L 397.46752 104.978217 
L 398.351411 104.638768 
L 398.913886 104.347813 
L 403.91367 102.505093 
L 407.109961 101.971674 
L 407.877785 101.874689 
L 410.422318 101.486748 
L 410.627666 101.34127 
L 411.163357 101.244285 
L 414.00252 100.41991 
L 416.502412 99.49855 
L 416.868468 99.49855 
L 420.314747 98.868146 
L 420.707588 98.771161 
L 421.064715 98.674176 
L 422.055744 98.480205 
L 429.760768 96.201052 
L 432.341013 95.910096 
L 436.037282 95.231199 
L 437.162234 95.134214 
L 441.679896 94.067377 
L 458.313106 90.090981 
L 458.777371 89.993996 
L 459.339847 89.848518 
L 460.223737 89.800026 
L 469.517979 87.47238 
L 469.741183 87.375394 
L 470.080454 87.375394 
L 474.892747 86.260064 
L 476.383754 86.163079 
L 488.356451 84.805285 
L 488.651081 84.659808 
L 489.668894 84.51433 
L 497.668548 81.701758 
L 501.30232 81.362309 
L 506.114612 80.586427 
L 506.462811 80.392457 
L 509.435897 80.198486 
L 516.855219 79.374112 
L 516.908789 79.325619 
L 519.685454 78.986171 
L 521.310384 78.355767 
L 534.979436 76.125106 
L 546.934277 74.864298 
L 552.398327 74.039923 
L 557.799879 73.603489 
L 558.255217 73.603489 
L 570.085063 72.827607 
L 585.986161 70.984888 
L 594.958988 69.821065 
L 622.154242 66.96 
L 622.636364 66.96 
L 622.636364 66.96 
" clip-path="url(#peb04f52507)" style="fill: none; stroke: #1f77b4; stroke-width: 2; stroke-linecap: square"/>
   </g>
   <g id="line2d_14">
    <path d="M 115.363636 369.36 
L 115.461665 354.119158 
L 115.853781 352.24488 
L 116.308278 349.334817 
L 116.548895 348.841585 
L 117.101421 347.460538 
L 117.814358 344.846413 
L 118.108445 343.465366 
L 118.580766 342.725519 
L 118.848118 340.949887 
L 118.857029 340.949887 
L 118.981793 340.703272 
L 119.088734 340.604626 
L 119.632349 339.420871 
L 119.748201 339.322225 
L 120.452226 336.905392 
L 122.439539 331.973081 
L 122.91186 331.183911 
L 123.161388 330.296095 
L 123.241594 330.148126 
L 125.264553 326.300923 
L 126.601311 323.292213 
L 130.763082 314.512699 
L 131.244315 313.871499 
L 131.377991 313.328945 
L 131.600784 312.835714 
L 132.278074 311.651959 
L 133.543538 310.221589 
L 135.771467 306.670325 
L 135.816026 306.670325 
L 135.816026 306.621001 
L 135.967525 306.325063 
L 136.003172 306.226417 
L 137.108225 304.796046 
L 138.863833 301.392752 
L 141.474966 295.720594 
L 142.945399 294.191577 
L 143.132545 293.944962 
L 145.797148 290.936252 
L 161.998649 272.83467 
L 162.604646 271.502946 
L 162.738321 271.502946 
L 190.533965 238.061876 
L 190.863699 237.223383 
L 191.237991 237.17406 
L 191.906369 236.680829 
L 193.305509 235.447751 
L 193.358979 235.447751 
L 194.267974 234.510612 
L 194.963088 234.411965 
L 195.248263 234.214673 
L 195.59582 233.770765 
L 206.717642 224.202081 
L 225.646128 205.360652 
L 225.868921 205.064714 
L 225.975862 204.966068 
L 225.975862 204.916744 
L 226.011509 204.916744 
L 226.564035 204.472836 
L 233.105235 197.222339 
L 233.488439 197.173016 
L 233.711232 196.975723 
L 234.450904 196.383846 
L 234.789549 196.13723 
L 234.905402 196.087907 
L 235.315341 195.643999 
L 236.081748 195.200091 
L 253.290273 180.057896 
L 254.511178 179.663311 
L 260.366176 175.52017 
L 262.736692 174.040476 
L 263.636776 173.349953 
L 280.73836 162.153606 
L 282.957377 161.463083 
L 294.088111 154.212585 
L 294.649549 153.719354 
L 295.932836 153.226123 
L 296.084336 153.028831 
L 297.118095 152.979507 
L 297.171565 152.831538 
L 297.465652 152.634246 
L 310.298523 148.441781 
L 311.662016 147.356673 
L 312.134337 147.258026 
L 312.30366 147.15938 
L 312.704687 147.060734 
L 314.130561 146.37021 
L 314.522677 146.123595 
L 315.351467 145.630364 
L 315.583171 145.630364 
L 316.759518 144.93984 
L 316.839723 144.742548 
L 317.026869 144.693225 
L 318.987447 143.904055 
L 320.128147 142.621654 
L 320.76979 142.473685 
L 320.903466 142.227069 
L 322.694721 140.846022 
L 322.864044 140.50076 
L 322.881867 140.50076 
L 323.389835 140.106175 
L 323.808686 139.810237 
L 324.004743 139.612944 
L 324.423594 139.514298 
L 327.658547 137.541373 
L 328.050663 137.294758 
L 328.353661 136.949496 
L 328.825982 136.85085 
L 328.959658 136.801527 
L 330.260768 135.963034 
L 330.670707 135.864388 
L 330.688531 135.765741 
L 330.991529 135.519126 
L 332.078758 135.173864 
L 336.623734 132.905001 
L 342.077704 130.83343 
L 342.327232 130.784107 
L 342.327232 130.734784 
L 343.164934 130.389522 
L 346.898943 128.465921 
L 349.661575 126.690289 
L 351.372625 126.049088 
L 353.190615 125.802473 
L 374.026208 119.637084 
L 389.693006 114.310188 
L 389.728653 114.162218 
L 391.662495 113.521018 
L 392.250668 113.422372 
L 394.639008 111.794709 
L 396.154 111.696063 
L 397.205583 111.252155 
L 397.749197 111.202832 
L 419.199699 108.095475 
L 420.251282 107.700891 
L 421.49001 107.503598 
L 421.819744 107.404952 
L 422.06036 107.404952 
L 425.598312 106.714428 
L 425.776546 106.369167 
L 426.391454 105.974582 
L 426.534042 105.925259 
L 428.842176 105.678643 
L 429.706613 105.382704 
L 430.241316 105.086766 
L 432.843537 104.346919 
L 433.128712 104.100303 
L 435.178407 103.064518 
L 439.019357 102.078056 
L 449.633211 98.674761 
L 478.088322 91.029679 
L 479.451814 90.881709 
L 479.674607 90.684417 
L 487.06242 88.908785 
L 488.140738 88.810139 
L 489.03191 88.612846 
L 489.530966 88.415554 
L 489.530966 88.366231 
L 489.557701 88.366231 
L 490.092404 88.119615 
L 522.379553 80.671825 
L 522.433023 80.671825 
L 523.217254 80.27724 
L 523.306371 80.27724 
L 526.247238 79.586717 
L 528.69796 79.142809 
L 540.488161 77.613792 
L 540.604013 77.564469 
L 541.21001 77.4165 
L 607.985502 68.834278 
L 609.527229 68.53834 
L 619.134059 67.453231 
L 620.078701 67.206616 
L 622.636364 66.96 
L 622.636364 66.96 
" clip-path="url(#peb04f52507)" style="fill: none; stroke: #ff7f0e; stroke-width: 2; stroke-linecap: square"/>
   </g>
   <g id="line2d_15">
    <path d="M 115.363636 369.36 
L 115.47041 355.145899 
L 116.022074 352.993764 
L 116.56484 350.090884 
L 117.641474 347.538352 
L 117.668168 347.538352 
L 117.668168 347.488302 
L 117.801635 347.137954 
L 117.81943 347.037855 
L 118.30881 346.086912 
L 118.38889 345.886713 
L 118.557948 345.736564 
L 118.602437 345.336167 
L 118.904963 343.784628 
L 119.074021 343.584429 
L 119.287568 342.933784 
L 119.40324 342.883734 
L 119.40324 342.833684 
L 119.572298 342.183039 
L 123.691981 331.622562 
L 123.73647 331.622562 
L 123.73647 331.572512 
L 123.807653 331.322264 
L 124.288134 330.020973 
L 128.434511 320.861887 
L 128.496796 320.761787 
L 129.101846 319.660695 
L 129.164131 319.560596 
L 130.489904 316.807865 
L 130.552188 316.707766 
L 130.658962 316.407468 
L 132.216078 314.005084 
L 132.85672 312.353446 
L 133.737602 311.202304 
L 135.063375 309.250367 
L 135.152353 309.150268 
L 135.499368 308.499623 
L 135.526061 308.499623 
L 136.006543 307.748878 
L 137.536965 306.04719 
L 138.453439 303.995154 
L 138.755964 303.945104 
L 142.475246 296.087309 
L 143.071399 295.436663 
L 157.681594 275.7171 
L 157.912937 275.416802 
L 158.206565 275.416802 
L 159.639111 273.765164 
L 160.25306 273.765164 
L 162.922401 269.811241 
L 182.764505 246.738352 
L 182.871278 246.388004 
L 183.867833 244.486117 
L 184.16146 244.185819 
L 187.916334 239.531202 
L 188.281144 239.130804 
L 194.046921 233.625343 
L 194.438424 232.824548 
L 195.337102 232.073803 
L 195.577343 231.923654 
L 195.91546 231.673406 
L 196.556102 230.622363 
L 208.995232 216.358213 
L 209.093108 216.358213 
L 210.409983 215.207071 
L 210.854873 215.056922 
L 211.433231 214.556425 
L 211.522209 214.356226 
L 211.646778 214.356226 
L 213.30177 213.004886 
L 213.310667 212.904786 
L 214.004696 212.604489 
L 216.424899 210.502403 
L 217.074439 210.202105 
L 238.544841 192.534578 
L 239.105402 191.933982 
L 239.790533 191.483535 
L 239.950694 191.383436 
L 239.977387 191.283337 
L 240.306606 191.233287 
L 241.418831 190.082145 
L 241.58789 189.831897 
L 242.68232 189.481549 
L 242.771298 189.3314 
L 243.260677 188.931003 
L 244.355107 188.230308 
L 245.716471 186.328421 
L 245.814347 186.278371 
L 246.65074 185.677776 
L 248.439199 183.926038 
L 248.47479 183.725839 
L 249.337877 183.325442 
L 250.494592 182.524647 
L 252.754634 180.873009 
L 262.310876 172.614816 
L 264.811159 170.762979 
L 265.549677 170.412632 
L 276.031291 163.355631 
L 285.925649 157.70002 
L 289.938559 155.547885 
L 290.107617 155.247587 
L 290.312267 155.247587 
L 291.611346 154.146495 
L 291.611346 154.096445 
L 291.620244 154.096445 
L 291.931667 153.846197 
L 294.040447 153.095452 
L 295.028103 152.394757 
L 295.303935 152.344707 
L 296.122533 151.794161 
L 296.54073 151.694062 
L 296.576321 151.644012 
L 297.14578 151.493863 
L 297.741933 151.293664 
L 298.017765 151.043416 
L 298.24021 150.943317 
L 298.311393 150.893267 
L 314.523192 145.437855 
L 316.623074 144.086514 
L 318.224679 143.686117 
L 318.304759 143.535968 
L 319.577145 143.28572 
L 320.199992 142.885323 
L 321.356706 142.685124 
L 322.584603 142.134578 
L 325.209456 140.532989 
L 327.416111 139.932393 
L 327.451702 139.832294 
L 327.718636 139.832294 
L 330.37908 137.980457 
L 330.628218 137.880357 
L 330.726094 137.730209 
L 331.989583 137.079563 
L 335.12161 134.476981 
L 335.344055 134.476981 
L 336.349507 134.276783 
L 337.141411 133.576087 
L 337.844338 133.475988 
L 338.262535 133.375889 
L 338.618447 133.025541 
L 338.743016 132.925442 
L 339.063337 132.925442 
L 340.584862 132.675194 
L 341.385664 132.074598 
L 341.536927 132.024548 
L 347.267113 130.523059 
L 347.267113 130.473009 
L 347.489558 130.37291 
L 348.014528 129.922463 
L 348.379338 129.822363 
L 348.904309 129.672214 
L 350.657176 128.571122 
L 353.459985 127.019583 
L 353.575656 126.769335 
L 354.732371 126.769335 
L 354.732371 126.719285 
L 354.93702 126.569136 
L 358.38047 124.817398 
L 358.389368 124.817398 
L 359.626163 124.467051 
L 360.088849 124.116703 
L 371.584812 118.360993 
L 378.872114 115.057716 
L 380.740653 114.707368 
L 380.909711 114.607269 
L 381.870674 114.45712 
L 381.924061 114.357021 
L 382.404542 114.206872 
L 384.700176 112.705382 
L 386.87124 111.754439 
L 388.659699 110.2029 
L 389.353728 109.902602 
L 389.478297 109.852552 
L 391.017617 109.201907 
L 391.587076 109.151857 
L 393.873812 108.551261 
L 397.53081 106.499225 
L 399.052334 106.148878 
L 399.203597 106.048779 
L 400.048888 105.84858 
L 401.881836 105.598332 
L 423.289954 98.391182 
L 424.037369 98.241033 
L 431.493729 96.539345 
L 435.551128 95.838649 
L 436.770127 95.7886 
L 450.446053 92.83567 
L 453.311146 91.834677 
L 454.921648 91.534379 
L 459.842134 90.583436 
L 492.746215 86.379265 
L 498.565379 85.428322 
L 502.195683 84.477378 
L 503.646025 83.676584 
L 504.331156 83.626534 
L 504.615886 83.476385 
L 505.016287 83.376286 
L 527.296389 79.672612 
L 540.491833 77.920874 
L 540.589709 77.820775 
L 548.508755 76.769732 
L 563.510453 74.1171 
L 563.795183 74.1171 
L 564.640474 73.916902 
L 567.65683 73.416405 
L 568.724567 73.116107 
L 569.658836 73.066058 
L 570.032544 72.915909 
L 570.877835 72.915909 
L 611.531904 67.960993 
L 621.862255 66.96 
L 622.636364 66.96 
L 622.636364 66.96 
" clip-path="url(#peb04f52507)" style="fill: none; stroke: #2ca02c; stroke-width: 2; stroke-linecap: square"/>
   </g>
   <g id="line2d_16">
    <path d="M 115.363636 369.36 
L 115.434904 354.905785 
L 115.443812 354.905785 
L 115.880325 352.678252 
L 116.450465 348.619191 
L 117.305674 345.302642 
L 117.581835 344.758134 
L 117.991623 343.520615 
L 118.036165 343.520615 
L 119.20317 339.461555 
L 119.452606 339.164551 
L 119.978203 337.729029 
L 120.049471 337.580527 
L 120.067287 337.580527 
L 120.352357 336.937018 
L 122.864534 329.561408 
L 130.454517 311.691642 
L 130.72177 311.394637 
L 132.262928 309.315606 
L 132.298562 308.969101 
L 132.503456 308.820599 
L 133.064687 307.434578 
L 133.991163 306.593066 
L 135.665948 303.425019 
L 137.269466 301.098484 
L 137.492176 300.999483 
L 137.572352 300.900481 
L 139.006609 299.811465 
L 139.158053 299.365958 
L 139.264954 299.217456 
L 140.218156 296.692919 
L 140.316149 296.544416 
L 142.249278 293.029864 
L 142.471989 292.831861 
L 143.897338 290.109321 
L 143.94188 290.109321 
L 146.26698 287.38678 
L 147.246907 287.337279 
L 147.594336 286.941274 
L 174.043465 250.607733 
L 174.57797 249.568217 
L 175.165927 249.271213 
L 175.566806 248.776206 
L 175.914235 248.726705 
L 176.270572 248.4297 
L 176.626909 247.538687 
L 177.01888 247.439686 
L 179.094544 245.06365 
L 179.504332 244.667644 
L 223.449617 204.374045 
L 225.204578 202.146512 
L 225.409472 201.503002 
L 225.792534 201.404001 
L 225.801443 201.3545 
L 226.059787 200.859493 
L 226.523025 200.66149 
L 227.137707 200.166482 
L 228.099818 199.027965 
L 231.770091 196.750931 
L 232.447131 196.107422 
L 241.346653 189.028817 
L 241.907884 188.929815 
L 245.417805 185.365762 
L 245.587066 185.316261 
L 245.818685 185.167759 
L 246.335374 184.524249 
L 247.003506 184.177744 
L 257.087849 178.336657 
L 257.70253 177.792149 
L 257.889607 177.792149 
L 259.314956 176.802135 
L 272.125278 168.535512 
L 272.935946 167.693999 
L 273.559536 167.198992 
L 275.786643 165.466466 
L 276.739845 164.327949 
L 279.546001 162.644924 
L 279.813253 162.595423 
L 280.009239 162.39742 
L 280.802089 161.852912 
L 293.950932 156.110827 
L 295.135753 154.97231 
L 297.380677 154.130797 
L 297.425219 154.081296 
L 299.483067 152.94278 
L 300.338276 152.695276 
L 301.255844 152.200268 
L 301.532006 152.200268 
L 301.638907 152.002266 
L 302.289222 151.853763 
L 303.990732 151.507258 
L 304.097634 151.358756 
L 305.059744 150.764747 
L 305.237913 150.715246 
L 305.745693 150.220239 
L 305.861503 150.022236 
L 306.235657 149.923235 
L 306.547452 149.774732 
L 306.627628 149.774732 
L 307.545196 149.230224 
L 308.115335 149.032221 
L 309.300157 148.042207 
L 310.280084 147.002691 
L 311.313462 146.557184 
L 311.500539 146.458183 
L 311.714341 146.26018 
L 312.489375 146.111678 
L 314.360145 145.270165 
L 314.600672 145.072162 
L 315.037186 144.725657 
L 316.186373 143.636641 
L 318.333305 142.498124 
L 318.556015 142.448623 
L 318.662917 142.349622 
L 319.313232 141.904115 
L 320.221892 140.815099 
L 322.110479 139.330077 
L 322.538084 139.181575 
L 324.417762 138.488564 
L 326.163815 137.053043 
L 326.858672 136.85504 
L 331.107993 134.330503 
L 331.482147 133.934497 
L 332.747144 132.746479 
L 333.531086 132.449475 
L 334.421929 131.706963 
L 335.428582 131.657463 
L 336.17689 131.211956 
L 337.940759 130.964452 
L 339.089946 130.221941 
L 341.406138 129.231927 
L 343.428352 128.637918 
L 344.354829 128.14291 
L 345.13877 127.895407 
L 348.461615 126.410385 
L 348.693234 126.410385 
L 351.107418 125.469871 
L 353.334526 125.024364 
L 353.744314 124.875862 
L 359.508068 121.014804 
L 360.63053 120.7178 
L 366.92879 117.945759 
L 370.224909 116.757741 
L 387.729974 110.867153 
L 390.268877 109.134628 
L 391.364613 109.035626 
L 392.549435 108.887124 
L 397.974668 107.94661 
L 401.217337 106.065582 
L 402.206173 105.91708 
L 411.372947 102.798533 
L 412.539951 102.699532 
L 416.370576 102.402527 
L 417.332687 101.90752 
L 431.336739 97.353452 
L 432.031596 96.957446 
L 433.448037 96.56144 
L 433.608388 96.412938 
L 441.046927 95.026918 
L 444.253962 93.739899 
L 445.358607 93.591396 
L 448.423107 92.848885 
L 453.037674 91.957872 
L 454.952986 91.759869 
L 455.193514 91.660868 
L 481.339756 84.978268 
L 482.230599 84.928767 
L 493.455221 83.146741 
L 496.01194 82.899237 
L 498.265773 82.305228 
L 537.712301 75.622629 
L 555.59152 73.444596 
L 572.089932 72.009075 
L 620.248904 67.009501 
L 622.636364 66.96 
L 622.636364 66.96 
" clip-path="url(#peb04f52507)" style="fill: none; stroke: #d62728; stroke-width: 2; stroke-linecap: square"/>
   </g>
   <g id="line2d_17">
    <path d="M 115.363636 369.36 
L 115.363636 353.662595 
L 115.372535 353.662595 
L 116.066662 350.6131 
L 116.111157 350.563108 
L 116.404826 348.713414 
L 117.543904 344.314141 
L 117.597299 344.114174 
L 117.757482 343.864216 
L 117.890967 343.364298 
L 118.113444 342.664414 
L 118.398213 341.96453 
L 118.460507 341.664579 
L 120.222519 335.965522 
L 120.382702 335.415612 
L 120.418299 335.315629 
L 120.49839 335.215646 
L 120.658573 334.815712 
L 120.747564 334.415778 
L 120.765362 334.415778 
L 120.836554 334.115827 
L 123.684251 328.066828 
L 123.764343 328.016836 
L 133.544402 309.869836 
L 133.571099 309.769853 
L 133.571099 309.719861 
L 133.811374 309.319927 
L 134.176235 309.219944 
L 134.363115 308.870002 
L 134.825866 308.320093 
L 136.107329 305.470564 
L 138.047323 302.421068 
L 138.163011 302.321084 
L 140.378875 298.921647 
L 140.539058 298.821663 
L 140.539058 298.72168 
L 142.550244 295.372233 
L 149.527101 287.473539 
L 153.780849 281.924457 
L 155.231395 281.824473 
L 159.538536 275.125581 
L 160.143672 274.425697 
L 160.286057 274.325713 
L 160.419543 274.175738 
L 160.499634 274.075755 
L 160.508533 274.025763 
L 188.086699 239.131532 
L 189.021099 238.681607 
L 189.58174 237.731764 
L 222.695117 203.737385 
L 223.50493 203.337451 
L 225.258044 201.387773 
L 225.809785 201.187806 
L 226.05006 200.987839 
L 227.990053 198.888186 
L 229.342709 198.338277 
L 238.081579 191.689377 
L 238.321854 191.689377 
L 238.321854 191.639385 
L 238.64222 191.339435 
L 241.908172 188.139964 
L 242.050557 188.089972 
L 242.344226 187.640046 
L 242.851472 187.540063 
L 242.878169 187.490071 
L 246.544579 185.040476 
L 246.918339 184.690534 
L 249.739339 182.640873 
L 249.91732 182.290931 
L 250.344475 182.240939 
L 253.245566 180.341253 
L 253.752812 179.891327 
L 254.669415 179.591377 
L 254.865194 179.291427 
L 256.386932 178.291592 
L 257.463717 177.791675 
L 258.291329 177.041799 
L 258.433714 176.991807 
L 258.85197 176.591873 
L 265.072408 171.492716 
L 272.876877 165.993625 
L 273.019262 165.743667 
L 273.099354 165.693675 
L 273.277335 165.493708 
L 273.615499 165.493708 
L 273.766783 165.293741 
L 274.042653 165.193758 
L 275.920353 164.443882 
L 280.458871 161.894303 
L 280.538962 161.744328 
L 280.55676 161.744328 
L 280.592356 161.744328 
L 281.802628 161.044444 
L 286.768299 158.34489 
L 293.576075 154.995444 
L 294.243504 154.495527 
L 295.320289 153.995609 
L 295.658453 153.995609 
L 305.545301 149.796304 
L 305.687686 149.546345 
L 307.147131 148.896452 
L 307.476396 148.596502 
L 309.122721 148.296551 
L 309.540976 147.946609 
L 310.528771 147.646659 
L 310.964825 147.246725 
L 312.735736 146.496849 
L 312.806929 146.496849 
L 313.26968 146.096915 
L 313.750228 146.046923 
L 315.271967 145.497014 
L 316.259761 144.647155 
L 318.635809 143.497345 
L 319.045165 143.197395 
L 319.08966 143.197395 
L 320.362225 142.19756 
L 321.100846 141.89761 
L 321.63479 141.447684 
L 324.286707 140.147899 
L 327.588256 138.048246 
L 328.940912 137.648312 
L 329.635038 137.29837 
L 330.996593 137.048411 
L 331.708518 136.648477 
L 331.833104 136.648477 
L 333.888786 135.248709 
L 334.289243 135.198717 
L 335.677495 134.748792 
L 335.81988 134.748792 
L 337.217032 134.098899 
L 338.64088 133.798949 
L 339.637574 132.949089 
L 341.097019 132.39918 
L 343.446369 131.849271 
L 350.939372 128.699792 
L 354.498993 127.79994 
L 354.507892 127.599974 
L 354.534589 127.599974 
L 355.602475 127.300023 
L 358.654851 125.350346 
L 360.44356 125.000403 
L 360.532551 124.90042 
L 361.164384 124.700453 
L 362.997589 124.200536 
L 386.606777 116.001891 
L 386.971638 115.901908 
L 387.131821 115.901908 
L 389.792638 114.80209 
L 394.313357 113.602288 
L 437.473765 101.404305 
L 439.137887 101.054363 
L 455.992694 96.555107 
L 464.606978 94.305479 
L 464.713766 94.255487 
L 464.820555 94.205495 
L 467.855132 93.805561 
L 468.34458 93.655586 
L 481.826645 91.155999 
L 481.871141 91.155999 
L 505.987575 85.356958 
L 507.313534 84.507099 
L 531.616848 79.857867 
L 531.768132 79.807876 
L 532.782624 79.707892 
L 533.779318 79.6579 
L 536.217658 79.157983 
L 595.387463 70.259454 
L 595.823516 70.259454 
L 596.508744 70.109479 
L 600.860381 69.609562 
L 602.150743 69.209628 
L 602.782576 69.209628 
L 604.918349 68.959669 
L 607.303295 68.509744 
L 612.980891 68.159802 
L 617.012162 67.459917 
L 620.954443 67.059983 
L 622.636364 66.96 
L 622.636364 66.96 
" clip-path="url(#peb04f52507)" style="fill: none; stroke: #9467bd; stroke-width: 2; stroke-linecap: square"/>
   </g>
   <g id="line2d_18">
    <path d="M 115.363636 369.36 
L 622.636364 66.96 
" clip-path="url(#peb04f52507)" style="fill: none; stroke-dasharray: 7.4,3.2; stroke-dashoffset: 0; stroke: #000080; stroke-width: 2"/>
   </g>
   <g id="patch_3">
    <path d="M 90 384.48 
L 90 51.84 
" style="fill: none; stroke: #000000; stroke-width: 0.8; stroke-linejoin: miter; stroke-linecap: square"/>
   </g>
   <g id="patch_4">
    <path d="M 648 384.48 
L 648 51.84 
" style="fill: none; stroke: #000000; stroke-width: 0.8; stroke-linejoin: miter; stroke-linecap: square"/>
   </g>
   <g id="patch_5">
    <path d="M 90 384.48 
L 648 384.48 
" style="fill: none; stroke: #000000; stroke-width: 0.8; stroke-linejoin: miter; stroke-linecap: square"/>
   </g>
   <g id="patch_6">
    <path d="M 90 51.84 
L 648 51.84 
" style="fill: none; stroke: #000000; stroke-width: 0.8; stroke-linejoin: miter; stroke-linecap: square"/>
   </g>
   <g id="text_15">
    <!-- ROC Curve - Tous les folds -->
    <g transform="translate(290.40375 45.84) scale(0.12 -0.12)">
     <defs>
      <path id="DejaVuSans-52" d="M 2841 2188 
Q 3044 2119 3236 1894 
Q 3428 1669 3622 1275 
L 4263 0 
L 3584 0 
L 2988 1197 
Q 2756 1666 2539 1819 
Q 2322 1972 1947 1972 
L 1259 1972 
L 1259 0 
L 628 0 
L 628 4666 
L 2053 4666 
Q 2853 4666 3247 4331 
Q 3641 3997 3641 3322 
Q 3641 2881 3436 2590 
Q 3231 2300 2841 2188 
z
M 1259 4147 
L 1259 2491 
L 2053 2491 
Q 2509 2491 2742 2702 
Q 2975 2913 2975 3322 
Q 2975 3731 2742 3939 
Q 2509 4147 2053 4147 
L 1259 4147 
z
" transform="scale(0.015625)"/>
      <path id="DejaVuSans-4f" d="M 2522 4238 
Q 1834 4238 1429 3725 
Q 1025 3213 1025 2328 
Q 1025 1447 1429 934 
Q 1834 422 2522 422 
Q 3209 422 3611 934 
Q 4013 1447 4013 2328 
Q 4013 3213 3611 3725 
Q 3209 4238 2522 4238 
z
M 2522 4750 
Q 3503 4750 4090 4092 
Q 4678 3434 4678 2328 
Q 4678 1225 4090 567 
Q 3503 -91 2522 -91 
Q 1538 -91 948 565 
Q 359 1222 359 2328 
Q 359 3434 948 4092 
Q 1538 4750 2522 4750 
z
" transform="scale(0.015625)"/>
      <path id="DejaVuSans-43" d="M 4122 4306 
L 4122 3641 
Q 3803 3938 3442 4084 
Q 3081 4231 2675 4231 
Q 1875 4231 1450 3742 
Q 1025 3253 1025 2328 
Q 1025 1406 1450 917 
Q 1875 428 2675 428 
Q 3081 428 3442 575 
Q 3803 722 4122 1019 
L 4122 359 
Q 3791 134 3420 21 
Q 3050 -91 2638 -91 
Q 1578 -91 968 557 
Q 359 1206 359 2328 
Q 359 3453 968 4101 
Q 1578 4750 2638 4750 
Q 3056 4750 3426 4639 
Q 3797 4528 4122 4306 
z
" transform="scale(0.015625)"/>
      <path id="DejaVuSans-65" d="M 3597 1894 
L 3597 1613 
L 953 1613 
Q 991 1019 1311 708 
Q 1631 397 2203 397 
Q 2534 397 2845 478 
Q 3156 559 3463 722 
L 3463 178 
Q 3153 47 2828 -22 
Q 2503 -91 2169 -91 
Q 1331 -91 842 396 
Q 353 884 353 1716 
Q 353 2575 817 3079 
Q 1281 3584 2069 3584 
Q 2775 3584 3186 3129 
Q 3597 2675 3597 1894 
z
M 3022 2063 
Q 3016 2534 2758 2815 
Q 2500 3097 2075 3097 
Q 1594 3097 1305 2825 
Q 1016 2553 972 2059 
L 3022 2063 
z
" transform="scale(0.015625)"/>
      <path id="DejaVuSans-2d" d="M 313 2009 
L 1997 2009 
L 1997 1497 
L 313 1497 
L 313 2009 
z
" transform="scale(0.015625)"/>
      <path id="DejaVuSans-6c" d="M 603 4863 
L 1178 4863 
L 1178 0 
L 603 0 
L 603 4863 
z
" transform="scale(0.015625)"/>
      <path id="DejaVuSans-64" d="M 2906 2969 
L 2906 4863 
L 3481 4863 
L 3481 0 
L 2906 0 
L 2906 525 
Q 2725 213 2448 61 
Q 2172 -91 1784 -91 
Q 1150 -91 751 415 
Q 353 922 353 1747 
Q 353 2572 751 3078 
Q 1150 3584 1784 3584 
Q 2172 3584 2448 3432 
Q 2725 3281 2906 2969 
z
M 947 1747 
Q 947 1113 1208 752 
Q 1469 391 1925 391 
Q 2381 391 2643 752 
Q 2906 1113 2906 1747 
Q 2906 2381 2643 2742 
Q 2381 3103 1925 3103 
Q 1469 3103 1208 2742 
Q 947 2381 947 1747 
z
" transform="scale(0.015625)"/>
     </defs>
     <use xlink:href="#DejaVuSans-52"/>
     <use xlink:href="#DejaVuSans-4f" x="69.482422"/>
     <use xlink:href="#DejaVuSans-43" x="148.193359"/>
     <use xlink:href="#DejaVuSans-20" x="218.017578"/>
     <use xlink:href="#DejaVuSans-43" x="249.804688"/>
     <use xlink:href="#DejaVuSans-75" x="319.628906"/>
     <use xlink:href="#DejaVuSans-72" x="383.007812"/>
     <use xlink:href="#DejaVuSans-76" x="424.121094"/>
     <use xlink:href="#DejaVuSans-65" x="483.300781"/>
     <use xlink:href="#DejaVuSans-20" x="544.824219"/>
     <use xlink:href="#DejaVuSans-2d" x="576.611328"/>
     <use xlink:href="#DejaVuSans-20" x="612.695312"/>
     <use xlink:href="#DejaVuSans-54" x="644.482422"/>
     <use xlink:href="#DejaVuSans-6f" x="688.566406"/>
     <use xlink:href="#DejaVuSans-75" x="749.748047"/>
     <use xlink:href="#DejaVuSans-73" x="813.126953"/>
     <use xlink:href="#DejaVuSans-20" x="865.226562"/>
     <use xlink:href="#DejaVuSans-6c" x="897.013672"/>
     <use xlink:href="#DejaVuSans-65" x="924.796875"/>
     <use xlink:href="#DejaVuSans-73" x="986.320312"/>
     <use xlink:href="#DejaVuSans-20" x="1038.419922"/>
     <use xlink:href="#DejaVuSans-66" x="1070.207031"/>
     <use xlink:href="#DejaVuSans-6f" x="1105.412109"/>
     <use xlink:href="#DejaVuSans-6c" x="1166.59375"/>
     <use xlink:href="#DejaVuSans-64" x="1194.376953"/>
     <use xlink:href="#DejaVuSans-73" x="1257.853516"/>
    </g>
   </g>
   <g id="legend_1">
    <g id="patch_7">
     <path d="M 509.7 379.48 
L 641 379.48 
Q 643 379.48 643 377.48 
L 643 305.089375 
Q 643 303.089375 641 303.089375 
L 509.7 303.089375 
Q 507.7 303.089375 507.7 305.089375 
L 507.7 377.48 
Q 507.7 379.48 509.7 379.48 
z
" style="fill: #ffffff; opacity: 0.8; stroke: #cccccc; stroke-linejoin: miter"/>
    </g>
    <g id="line2d_19">
     <path d="M 511.7 311.187813 
L 521.7 311.187813 
L 531.7 311.187813 
" style="fill: none; stroke: #1f77b4; stroke-width: 2; stroke-linecap: square"/>
    </g>
    <g id="text_16">
     <!-- Fold 1 (AUC = 0.75) -->
     <g transform="translate(539.7 314.687813) scale(0.1 -0.1)">
      <defs>
       <path id="DejaVuSans-46" d="M 628 4666 
L 3309 4666 
L 3309 4134 
L 1259 4134 
L 1259 2759 
L 3109 2759 
L 3109 2228 
L 1259 2228 
L 1259 0 
L 628 0 
L 628 4666 
z
" transform="scale(0.015625)"/>
       <path id="DejaVuSans-28" d="M 1984 4856 
Q 1566 4138 1362 3434 
Q 1159 2731 1159 2009 
Q 1159 1288 1364 580 
Q 1569 -128 1984 -844 
L 1484 -844 
Q 1016 -109 783 600 
Q 550 1309 550 2009 
Q 550 2706 781 3412 
Q 1013 4119 1484 4856 
L 1984 4856 
z
" transform="scale(0.015625)"/>
       <path id="DejaVuSans-41" d="M 2188 4044 
L 1331 1722 
L 3047 1722 
L 2188 4044 
z
M 1831 4666 
L 2547 4666 
L 4325 0 
L 3669 0 
L 3244 1197 
L 1141 1197 
L 716 0 
L 50 0 
L 1831 4666 
z
" transform="scale(0.015625)"/>
       <path id="DejaVuSans-55" d="M 556 4666 
L 1191 4666 
L 1191 1831 
Q 1191 1081 1462 751 
Q 1734 422 2344 422 
Q 2950 422 3222 751 
Q 3494 1081 3494 1831 
L 3494 4666 
L 4128 4666 
L 4128 1753 
Q 4128 841 3676 375 
Q 3225 -91 2344 -91 
Q 1459 -91 1007 375 
Q 556 841 556 1753 
L 556 4666 
z
" transform="scale(0.015625)"/>
       <path id="DejaVuSans-3d" d="M 678 2906 
L 4684 2906 
L 4684 2381 
L 678 2381 
L 678 2906 
z
M 678 1631 
L 4684 1631 
L 4684 1100 
L 678 1100 
L 678 1631 
z
" transform="scale(0.015625)"/>
       <path id="DejaVuSans-37" d="M 525 4666 
L 3525 4666 
L 3525 4397 
L 1831 0 
L 1172 0 
L 2766 4134 
L 525 4134 
L 525 4666 
z
" transform="scale(0.015625)"/>
       <path id="DejaVuSans-35" d="M 691 4666 
L 3169 4666 
L 3169 4134 
L 1269 4134 
L 1269 2991 
Q 1406 3038 1543 3061 
Q 1681 3084 1819 3084 
Q 2600 3084 3056 2656 
Q 3513 2228 3513 1497 
Q 3513 744 3044 326 
Q 2575 -91 1722 -91 
Q 1428 -91 1123 -41 
Q 819 9 494 109 
L 494 744 
Q 775 591 1075 516 
Q 1375 441 1709 441 
Q 2250 441 2565 725 
Q 2881 1009 2881 1497 
Q 2881 1984 2565 2268 
Q 2250 2553 1709 2553 
Q 1456 2553 1204 2497 
Q 953 2441 691 2322 
L 691 4666 
z
" transform="scale(0.015625)"/>
       <path id="DejaVuSans-29" d="M 513 4856 
L 1013 4856 
Q 1481 4119 1714 3412 
Q 1947 2706 1947 2009 
Q 1947 1309 1714 600 
Q 1481 -109 1013 -844 
L 513 -844 
Q 928 -128 1133 580 
Q 1338 1288 1338 2009 
Q 1338 2731 1133 3434 
Q 928 4138 513 4856 
z
" transform="scale(0.015625)"/>
      </defs>
      <use xlink:href="#DejaVuSans-46"/>
      <use xlink:href="#DejaVuSans-6f" x="53.894531"/>
      <use xlink:href="#DejaVuSans-6c" x="115.076172"/>
      <use xlink:href="#DejaVuSans-64" x="142.859375"/>
      <use xlink:href="#DejaVuSans-20" x="206.335938"/>
      <use xlink:href="#DejaVuSans-31" x="238.123047"/>
      <use xlink:href="#DejaVuSans-20" x="301.746094"/>
      <use xlink:href="#DejaVuSans-28" x="333.533203"/>
      <use xlink:href="#DejaVuSans-41" x="372.546875"/>
      <use xlink:href="#DejaVuSans-55" x="440.955078"/>
      <use xlink:href="#DejaVuSans-43" x="514.148438"/>
      <use xlink:href="#DejaVuSans-20" x="583.972656"/>
      <use xlink:href="#DejaVuSans-3d" x="615.759766"/>
      <use xlink:href="#DejaVuSans-20" x="699.548828"/>
      <use xlink:href="#DejaVuSans-30" x="731.335938"/>
      <use xlink:href="#DejaVuSans-2e" x="794.958984"/>
      <use xlink:href="#DejaVuSans-37" x="826.746094"/>
      <use xlink:href="#DejaVuSans-35" x="890.369141"/>
      <use xlink:href="#DejaVuSans-29" x="953.992188"/>
     </g>
    </g>
    <g id="line2d_20">
     <path d="M 511.7 325.865937 
L 521.7 325.865937 
L 531.7 325.865937 
" style="fill: none; stroke: #ff7f0e; stroke-width: 2; stroke-linecap: square"/>
    </g>
    <g id="text_17">
     <!-- Fold 2 (AUC = 0.74) -->
     <g transform="translate(539.7 329.365937) scale(0.1 -0.1)">
      <use xlink:href="#DejaVuSans-46"/>
      <use xlink:href="#DejaVuSans-6f" x="53.894531"/>
      <use xlink:href="#DejaVuSans-6c" x="115.076172"/>
      <use xlink:href="#DejaVuSans-64" x="142.859375"/>
      <use xlink:href="#DejaVuSans-20" x="206.335938"/>
      <use xlink:href="#DejaVuSans-32" x="238.123047"/>
      <use xlink:href="#DejaVuSans-20" x="301.746094"/>
      <use xlink:href="#DejaVuSans-28" x="333.533203"/>
      <use xlink:href="#DejaVuSans-41" x="372.546875"/>
      <use xlink:href="#DejaVuSans-55" x="440.955078"/>
      <use xlink:href="#DejaVuSans-43" x="514.148438"/>
      <use xlink:href="#DejaVuSans-20" x="583.972656"/>
      <use xlink:href="#DejaVuSans-3d" x="615.759766"/>
      <use xlink:href="#DejaVuSans-20" x="699.548828"/>
      <use xlink:href="#DejaVuSans-30" x="731.335938"/>
      <use xlink:href="#DejaVuSans-2e" x="794.958984"/>
      <use xlink:href="#DejaVuSans-37" x="826.746094"/>
      <use xlink:href="#DejaVuSans-34" x="890.369141"/>
      <use xlink:href="#DejaVuSans-29" x="953.992188"/>
     </g>
    </g>
    <g id="line2d_21">
     <path d="M 511.7 340.544062 
L 521.7 340.544062 
L 531.7 340.544062 
" style="fill: none; stroke: #2ca02c; stroke-width: 2; stroke-linecap: square"/>
    </g>
    <g id="text_18">
     <!-- Fold 3 (AUC = 0.74) -->
     <g transform="translate(539.7 344.044062) scale(0.1 -0.1)">
      <defs>
       <path id="DejaVuSans-33" d="M 2597 2516 
Q 3050 2419 3304 2112 
Q 3559 1806 3559 1356 
Q 3559 666 3084 287 
Q 2609 -91 1734 -91 
Q 1441 -91 1130 -33 
Q 819 25 488 141 
L 488 750 
Q 750 597 1062 519 
Q 1375 441 1716 441 
Q 2309 441 2620 675 
Q 2931 909 2931 1356 
Q 2931 1769 2642 2001 
Q 2353 2234 1838 2234 
L 1294 2234 
L 1294 2753 
L 1863 2753 
Q 2328 2753 2575 2939 
Q 2822 3125 2822 3475 
Q 2822 3834 2567 4026 
Q 2313 4219 1838 4219 
Q 1578 4219 1281 4162 
Q 984 4106 628 3988 
L 628 4550 
Q 988 4650 1302 4700 
Q 1616 4750 1894 4750 
Q 2613 4750 3031 4423 
Q 3450 4097 3450 3541 
Q 3450 3153 3228 2886 
Q 3006 2619 2597 2516 
z
" transform="scale(0.015625)"/>
      </defs>
      <use xlink:href="#DejaVuSans-46"/>
      <use xlink:href="#DejaVuSans-6f" x="53.894531"/>
      <use xlink:href="#DejaVuSans-6c" x="115.076172"/>
      <use xlink:href="#DejaVuSans-64" x="142.859375"/>
      <use xlink:href="#DejaVuSans-20" x="206.335938"/>
      <use xlink:href="#DejaVuSans-33" x="238.123047"/>
      <use xlink:href="#DejaVuSans-20" x="301.746094"/>
      <use xlink:href="#DejaVuSans-28" x="333.533203"/>
      <use xlink:href="#DejaVuSans-41" x="372.546875"/>
      <use xlink:href="#DejaVuSans-55" x="440.955078"/>
      <use xlink:href="#DejaVuSans-43" x="514.148438"/>
      <use xlink:href="#DejaVuSans-20" x="583.972656"/>
      <use xlink:href="#DejaVuSans-3d" x="615.759766"/>
      <use xlink:href="#DejaVuSans-20" x="699.548828"/>
      <use xlink:href="#DejaVuSans-30" x="731.335938"/>
      <use xlink:href="#DejaVuSans-2e" x="794.958984"/>
      <use xlink:href="#DejaVuSans-37" x="826.746094"/>
      <use xlink:href="#DejaVuSans-34" x="890.369141"/>
      <use xlink:href="#DejaVuSans-29" x="953.992188"/>
     </g>
    </g>
    <g id="line2d_22">
     <path d="M 511.7 355.222188 
L 521.7 355.222188 
L 531.7 355.222188 
" style="fill: none; stroke: #d62728; stroke-width: 2; stroke-linecap: square"/>
    </g>
    <g id="text_19">
     <!-- Fold 4 (AUC = 0.75) -->
     <g transform="translate(539.7 358.722188) scale(0.1 -0.1)">
      <use xlink:href="#DejaVuSans-46"/>
      <use xlink:href="#DejaVuSans-6f" x="53.894531"/>
      <use xlink:href="#DejaVuSans-6c" x="115.076172"/>
      <use xlink:href="#DejaVuSans-64" x="142.859375"/>
      <use xlink:href="#DejaVuSans-20" x="206.335938"/>
      <use xlink:href="#DejaVuSans-34" x="238.123047"/>
      <use xlink:href="#DejaVuSans-20" x="301.746094"/>
      <use xlink:href="#DejaVuSans-28" x="333.533203"/>
      <use xlink:href="#DejaVuSans-41" x="372.546875"/>
      <use xlink:href="#DejaVuSans-55" x="440.955078"/>
      <use xlink:href="#DejaVuSans-43" x="514.148438"/>
      <use xlink:href="#DejaVuSans-20" x="583.972656"/>
      <use xlink:href="#DejaVuSans-3d" x="615.759766"/>
      <use xlink:href="#DejaVuSans-20" x="699.548828"/>
      <use xlink:href="#DejaVuSans-30" x="731.335938"/>
      <use xlink:href="#DejaVuSans-2e" x="794.958984"/>
      <use xlink:href="#DejaVuSans-37" x="826.746094"/>
      <use xlink:href="#DejaVuSans-35" x="890.369141"/>
      <use xlink:href="#DejaVuSans-29" x="953.992188"/>
     </g>
    </g>
    <g id="line2d_23">
     <path d="M 511.7 369.900313 
L 521.7 369.900313 
L 531.7 369.900313 
" style="fill: none; stroke: #9467bd; stroke-width: 2; stroke-linecap: square"/>
    </g>
    <g id="text_20">
     <!-- Fold 5 (AUC = 0.74) -->
     <g transform="translate(539.7 373.400313) scale(0.1 -0.1)">
      <use xlink:href="#DejaVuSans-46"/>
      <use xlink:href="#DejaVuSans-6f" x="53.894531"/>
      <use xlink:href="#DejaVuSans-6c" x="115.076172"/>
      <use xlink:href="#DejaVuSans-64" x="142.859375"/>
      <use xlink:href="#DejaVuSans-20" x="206.335938"/>
      <use xlink:href="#DejaVuSans-35" x="238.123047"/>
      <use xlink:href="#DejaVuSans-20" x="301.746094"/>
      <use xlink:href="#DejaVuSans-28" x="333.533203"/>
      <use xlink:href="#DejaVuSans-41" x="372.546875"/>
      <use xlink:href="#DejaVuSans-55" x="440.955078"/>
      <use xlink:href="#DejaVuSans-43" x="514.148438"/>
      <use xlink:href="#DejaVuSans-20" x="583.972656"/>
      <use xlink:href="#DejaVuSans-3d" x="615.759766"/>
      <use xlink:href="#DejaVuSans-20" x="699.548828"/>
      <use xlink:href="#DejaVuSans-30" x="731.335938"/>
      <use xlink:href="#DejaVuSans-2e" x="794.958984"/>
      <use xlink:href="#DejaVuSans-37" x="826.746094"/>
      <use xlink:href="#DejaVuSans-34" x="890.369141"/>
      <use xlink:href="#DejaVuSans-29" x="953.992188"/>
     </g>
    </g>
   </g>
  </g>
 </g>
 <defs>
  <clipPath id="peb04f52507">
   <rect x="90" y="51.84" width="558" height="332.64"/>
  </clipPath>
 </defs>
</svg>
