<?xml version="1.0" encoding="utf-8" standalone="no"?>
<!DOCTYPE svg PUBLIC "-//W3C//DTD SVG 1.1//EN"
  "http://www.w3.org/Graphics/SVG/1.1/DTD/svg11.dtd">
<svg xmlns:xlink="http://www.w3.org/1999/xlink" width="720pt" height="432pt" viewBox="0 0 720 432" xmlns="http://www.w3.org/2000/svg" version="1.1">
 <metadata>
  <rdf:RDF xmlns:dc="http://purl.org/dc/elements/1.1/" xmlns:cc="http://creativecommons.org/ns#" xmlns:rdf="http://www.w3.org/1999/02/22-rdf-syntax-ns#">
   <cc:Work>
    <dc:type rdf:resource="http://purl.org/dc/dcmitype/StillImage"/>
    <dc:date>2024-11-17T18:19:58.661033</dc:date>
    <dc:format>image/svg+xml</dc:format>
    <dc:creator>
     <cc:Agent>
      <dc:title>Matplotlib v3.9.2, https://matplotlib.org/</dc:title>
     </cc:Agent>
    </dc:creator>
   </cc:Work>
  </rdf:RDF>
 </metadata>
 <defs>
  <style type="text/css">*{stroke-linejoin: round; stroke-linecap: butt}</style>
 </defs>
 <g id="figure_1">
  <g id="patch_1">
   <path d="M 0 432 
L 720 432 
L 720 0 
L 0 0 
z
" style="fill: #ffffff"/>
  </g>
  <g id="axes_1">
   <g id="patch_2">
    <path d="M 90 384.48 
L 648 384.48 
L 648 51.84 
L 90 51.84 
z
" style="fill: #ffffff"/>
   </g>
   <g id="matplotlib.axis_1">
    <g id="xtick_1">
     <g id="line2d_1">
      <defs>
       <path id="m789de66d42" d="M 0 0 
L 0 3.5 
" style="stroke: #000000; stroke-width: 0.8"/>
      </defs>
      <g>
       <use xlink:href="#m789de66d42" x="115.363636" y="384.48" style="stroke: #000000; stroke-width: 0.8"/>
      </g>
     </g>
     <g id="text_1">
      <!-- 0.0 -->
      <g transform="translate(107.412074 399.078438) scale(0.1 -0.1)">
       <defs>
        <path id="DejaVuSans-30" d="M 2034 4250 
Q 1547 4250 1301 3770 
Q 1056 3291 1056 2328 
Q 1056 1369 1301 889 
Q 1547 409 2034 409 
Q 2525 409 2770 889 
Q 3016 1369 3016 2328 
Q 3016 3291 2770 3770 
Q 2525 4250 2034 4250 
z
M 2034 4750 
Q 2819 4750 3233 4129 
Q 3647 3509 3647 2328 
Q 3647 1150 3233 529 
Q 2819 -91 2034 -91 
Q 1250 -91 836 529 
Q 422 1150 422 2328 
Q 422 3509 836 4129 
Q 1250 4750 2034 4750 
z
" transform="scale(0.015625)"/>
        <path id="DejaVuSans-2e" d="M 684 794 
L 1344 794 
L 1344 0 
L 684 0 
L 684 794 
z
" transform="scale(0.015625)"/>
       </defs>
       <use xlink:href="#DejaVuSans-30"/>
       <use xlink:href="#DejaVuSans-2e" x="63.623047"/>
       <use xlink:href="#DejaVuSans-30" x="95.410156"/>
      </g>
     </g>
    </g>
    <g id="xtick_2">
     <g id="line2d_2">
      <g>
       <use xlink:href="#m789de66d42" x="216.818182" y="384.48" style="stroke: #000000; stroke-width: 0.8"/>
      </g>
     </g>
     <g id="text_2">
      <!-- 0.2 -->
      <g transform="translate(208.866619 399.078438) scale(0.1 -0.1)">
       <defs>
        <path id="DejaVuSans-32" d="M 1228 531 
L 3431 531 
L 3431 0 
L 469 0 
L 469 531 
Q 828 903 1448 1529 
Q 2069 2156 2228 2338 
Q 2531 2678 2651 2914 
Q 2772 3150 2772 3378 
Q 2772 3750 2511 3984 
Q 2250 4219 1831 4219 
Q 1534 4219 1204 4116 
Q 875 4013 500 3803 
L 500 4441 
Q 881 4594 1212 4672 
Q 1544 4750 1819 4750 
Q 2544 4750 2975 4387 
Q 3406 4025 3406 3419 
Q 3406 3131 3298 2873 
Q 3191 2616 2906 2266 
Q 2828 2175 2409 1742 
Q 1991 1309 1228 531 
z
" transform="scale(0.015625)"/>
       </defs>
       <use xlink:href="#DejaVuSans-30"/>
       <use xlink:href="#DejaVuSans-2e" x="63.623047"/>
       <use xlink:href="#DejaVuSans-32" x="95.410156"/>
      </g>
     </g>
    </g>
    <g id="xtick_3">
     <g id="line2d_3">
      <g>
       <use xlink:href="#m789de66d42" x="318.272727" y="384.48" style="stroke: #000000; stroke-width: 0.8"/>
      </g>
     </g>
     <g id="text_3">
      <!-- 0.4 -->
      <g transform="translate(310.321165 399.078438) scale(0.1 -0.1)">
       <defs>
        <path id="DejaVuSans-34" d="M 2419 4116 
L 825 1625 
L 2419 1625 
L 2419 4116 
z
M 2253 4666 
L 3047 4666 
L 3047 1625 
L 3713 1625 
L 3713 1100 
L 3047 1100 
L 3047 0 
L 2419 0 
L 2419 1100 
L 313 1100 
L 313 1709 
L 2253 4666 
z
" transform="scale(0.015625)"/>
       </defs>
       <use xlink:href="#DejaVuSans-30"/>
       <use xlink:href="#DejaVuSans-2e" x="63.623047"/>
       <use xlink:href="#DejaVuSans-34" x="95.410156"/>
      </g>
     </g>
    </g>
    <g id="xtick_4">
     <g id="line2d_4">
      <g>
       <use xlink:href="#m789de66d42" x="419.727273" y="384.48" style="stroke: #000000; stroke-width: 0.8"/>
      </g>
     </g>
     <g id="text_4">
      <!-- 0.6 -->
      <g transform="translate(411.77571 399.078438) scale(0.1 -0.1)">
       <defs>
        <path id="DejaVuSans-36" d="M 2113 2584 
Q 1688 2584 1439 2293 
Q 1191 2003 1191 1497 
Q 1191 994 1439 701 
Q 1688 409 2113 409 
Q 2538 409 2786 701 
Q 3034 994 3034 1497 
Q 3034 2003 2786 2293 
Q 2538 2584 2113 2584 
z
M 3366 4563 
L 3366 3988 
Q 3128 4100 2886 4159 
Q 2644 4219 2406 4219 
Q 1781 4219 1451 3797 
Q 1122 3375 1075 2522 
Q 1259 2794 1537 2939 
Q 1816 3084 2150 3084 
Q 2853 3084 3261 2657 
Q 3669 2231 3669 1497 
Q 3669 778 3244 343 
Q 2819 -91 2113 -91 
Q 1303 -91 875 529 
Q 447 1150 447 2328 
Q 447 3434 972 4092 
Q 1497 4750 2381 4750 
Q 2619 4750 2861 4703 
Q 3103 4656 3366 4563 
z
" transform="scale(0.015625)"/>
       </defs>
       <use xlink:href="#DejaVuSans-30"/>
       <use xlink:href="#DejaVuSans-2e" x="63.623047"/>
       <use xlink:href="#DejaVuSans-36" x="95.410156"/>
      </g>
     </g>
    </g>
    <g id="xtick_5">
     <g id="line2d_5">
      <g>
       <use xlink:href="#m789de66d42" x="521.181818" y="384.48" style="stroke: #000000; stroke-width: 0.8"/>
      </g>
     </g>
     <g id="text_5">
      <!-- 0.8 -->
      <g transform="translate(513.230256 399.078438) scale(0.1 -0.1)">
       <defs>
        <path id="DejaVuSans-38" d="M 2034 2216 
Q 1584 2216 1326 1975 
Q 1069 1734 1069 1313 
Q 1069 891 1326 650 
Q 1584 409 2034 409 
Q 2484 409 2743 651 
Q 3003 894 3003 1313 
Q 3003 1734 2745 1975 
Q 2488 2216 2034 2216 
z
M 1403 2484 
Q 997 2584 770 2862 
Q 544 3141 544 3541 
Q 544 4100 942 4425 
Q 1341 4750 2034 4750 
Q 2731 4750 3128 4425 
Q 3525 4100 3525 3541 
Q 3525 3141 3298 2862 
Q 3072 2584 2669 2484 
Q 3125 2378 3379 2068 
Q 3634 1759 3634 1313 
Q 3634 634 3220 271 
Q 2806 -91 2034 -91 
Q 1263 -91 848 271 
Q 434 634 434 1313 
Q 434 1759 690 2068 
Q 947 2378 1403 2484 
z
M 1172 3481 
Q 1172 3119 1398 2916 
Q 1625 2713 2034 2713 
Q 2441 2713 2670 2916 
Q 2900 3119 2900 3481 
Q 2900 3844 2670 4047 
Q 2441 4250 2034 4250 
Q 1625 4250 1398 4047 
Q 1172 3844 1172 3481 
z
" transform="scale(0.015625)"/>
       </defs>
       <use xlink:href="#DejaVuSans-30"/>
       <use xlink:href="#DejaVuSans-2e" x="63.623047"/>
       <use xlink:href="#DejaVuSans-38" x="95.410156"/>
      </g>
     </g>
    </g>
    <g id="xtick_6">
     <g id="line2d_6">
      <g>
       <use xlink:href="#m789de66d42" x="622.636364" y="384.48" style="stroke: #000000; stroke-width: 0.8"/>
      </g>
     </g>
     <g id="text_6">
      <!-- 1.0 -->
      <g transform="translate(614.684801 399.078438) scale(0.1 -0.1)">
       <defs>
        <path id="DejaVuSans-31" d="M 794 531 
L 1825 531 
L 1825 4091 
L 703 3866 
L 703 4441 
L 1819 4666 
L 2450 4666 
L 2450 531 
L 3481 531 
L 3481 0 
L 794 0 
L 794 531 
z
" transform="scale(0.015625)"/>
       </defs>
       <use xlink:href="#DejaVuSans-31"/>
       <use xlink:href="#DejaVuSans-2e" x="63.623047"/>
       <use xlink:href="#DejaVuSans-30" x="95.410156"/>
      </g>
     </g>
    </g>
    <g id="text_7">
     <!-- Taux faux positifs -->
     <g transform="translate(325.507031 412.756563) scale(0.1 -0.1)">
      <defs>
       <path id="DejaVuSans-54" d="M -19 4666 
L 3928 4666 
L 3928 4134 
L 2272 4134 
L 2272 0 
L 1638 0 
L 1638 4134 
L -19 4134 
L -19 4666 
z
" transform="scale(0.015625)"/>
       <path id="DejaVuSans-61" d="M 2194 1759 
Q 1497 1759 1228 1600 
Q 959 1441 959 1056 
Q 959 750 1161 570 
Q 1363 391 1709 391 
Q 2188 391 2477 730 
Q 2766 1069 2766 1631 
L 2766 1759 
L 2194 1759 
z
M 3341 1997 
L 3341 0 
L 2766 0 
L 2766 531 
Q 2569 213 2275 61 
Q 1981 -91 1556 -91 
Q 1019 -91 701 211 
Q 384 513 384 1019 
Q 384 1609 779 1909 
Q 1175 2209 1959 2209 
L 2766 2209 
L 2766 2266 
Q 2766 2663 2505 2880 
Q 2244 3097 1772 3097 
Q 1472 3097 1187 3025 
Q 903 2953 641 2809 
L 641 3341 
Q 956 3463 1253 3523 
Q 1550 3584 1831 3584 
Q 2591 3584 2966 3190 
Q 3341 2797 3341 1997 
z
" transform="scale(0.015625)"/>
       <path id="DejaVuSans-75" d="M 544 1381 
L 544 3500 
L 1119 3500 
L 1119 1403 
Q 1119 906 1312 657 
Q 1506 409 1894 409 
Q 2359 409 2629 706 
Q 2900 1003 2900 1516 
L 2900 3500 
L 3475 3500 
L 3475 0 
L 2900 0 
L 2900 538 
Q 2691 219 2414 64 
Q 2138 -91 1772 -91 
Q 1169 -91 856 284 
Q 544 659 544 1381 
z
M 1991 3584 
L 1991 3584 
z
" transform="scale(0.015625)"/>
       <path id="DejaVuSans-78" d="M 3513 3500 
L 2247 1797 
L 3578 0 
L 2900 0 
L 1881 1375 
L 863 0 
L 184 0 
L 1544 1831 
L 300 3500 
L 978 3500 
L 1906 2253 
L 2834 3500 
L 3513 3500 
z
" transform="scale(0.015625)"/>
       <path id="DejaVuSans-20" transform="scale(0.015625)"/>
       <path id="DejaVuSans-66" d="M 2375 4863 
L 2375 4384 
L 1825 4384 
Q 1516 4384 1395 4259 
Q 1275 4134 1275 3809 
L 1275 3500 
L 2222 3500 
L 2222 3053 
L 1275 3053 
L 1275 0 
L 697 0 
L 697 3053 
L 147 3053 
L 147 3500 
L 697 3500 
L 697 3744 
Q 697 4328 969 4595 
Q 1241 4863 1831 4863 
L 2375 4863 
z
" transform="scale(0.015625)"/>
       <path id="DejaVuSans-70" d="M 1159 525 
L 1159 -1331 
L 581 -1331 
L 581 3500 
L 1159 3500 
L 1159 2969 
Q 1341 3281 1617 3432 
Q 1894 3584 2278 3584 
Q 2916 3584 3314 3078 
Q 3713 2572 3713 1747 
Q 3713 922 3314 415 
Q 2916 -91 2278 -91 
Q 1894 -91 1617 61 
Q 1341 213 1159 525 
z
M 3116 1747 
Q 3116 2381 2855 2742 
Q 2594 3103 2138 3103 
Q 1681 3103 1420 2742 
Q 1159 2381 1159 1747 
Q 1159 1113 1420 752 
Q 1681 391 2138 391 
Q 2594 391 2855 752 
Q 3116 1113 3116 1747 
z
" transform="scale(0.015625)"/>
       <path id="DejaVuSans-6f" d="M 1959 3097 
Q 1497 3097 1228 2736 
Q 959 2375 959 1747 
Q 959 1119 1226 758 
Q 1494 397 1959 397 
Q 2419 397 2687 759 
Q 2956 1122 2956 1747 
Q 2956 2369 2687 2733 
Q 2419 3097 1959 3097 
z
M 1959 3584 
Q 2709 3584 3137 3096 
Q 3566 2609 3566 1747 
Q 3566 888 3137 398 
Q 2709 -91 1959 -91 
Q 1206 -91 779 398 
Q 353 888 353 1747 
Q 353 2609 779 3096 
Q 1206 3584 1959 3584 
z
" transform="scale(0.015625)"/>
       <path id="DejaVuSans-73" d="M 2834 3397 
L 2834 2853 
Q 2591 2978 2328 3040 
Q 2066 3103 1784 3103 
Q 1356 3103 1142 2972 
Q 928 2841 928 2578 
Q 928 2378 1081 2264 
Q 1234 2150 1697 2047 
L 1894 2003 
Q 2506 1872 2764 1633 
Q 3022 1394 3022 966 
Q 3022 478 2636 193 
Q 2250 -91 1575 -91 
Q 1294 -91 989 -36 
Q 684 19 347 128 
L 347 722 
Q 666 556 975 473 
Q 1284 391 1588 391 
Q 1994 391 2212 530 
Q 2431 669 2431 922 
Q 2431 1156 2273 1281 
Q 2116 1406 1581 1522 
L 1381 1569 
Q 847 1681 609 1914 
Q 372 2147 372 2553 
Q 372 3047 722 3315 
Q 1072 3584 1716 3584 
Q 2034 3584 2315 3537 
Q 2597 3491 2834 3397 
z
" transform="scale(0.015625)"/>
       <path id="DejaVuSans-69" d="M 603 3500 
L 1178 3500 
L 1178 0 
L 603 0 
L 603 3500 
z
M 603 4863 
L 1178 4863 
L 1178 4134 
L 603 4134 
L 603 4863 
z
" transform="scale(0.015625)"/>
       <path id="DejaVuSans-74" d="M 1172 4494 
L 1172 3500 
L 2356 3500 
L 2356 3053 
L 1172 3053 
L 1172 1153 
Q 1172 725 1289 603 
Q 1406 481 1766 481 
L 2356 481 
L 2356 0 
L 1766 0 
Q 1100 0 847 248 
Q 594 497 594 1153 
L 594 3053 
L 172 3053 
L 172 3500 
L 594 3500 
L 594 4494 
L 1172 4494 
z
" transform="scale(0.015625)"/>
      </defs>
      <use xlink:href="#DejaVuSans-54"/>
      <use xlink:href="#DejaVuSans-61" x="44.583984"/>
      <use xlink:href="#DejaVuSans-75" x="105.863281"/>
      <use xlink:href="#DejaVuSans-78" x="169.242188"/>
      <use xlink:href="#DejaVuSans-20" x="228.421875"/>
      <use xlink:href="#DejaVuSans-66" x="260.208984"/>
      <use xlink:href="#DejaVuSans-61" x="295.414062"/>
      <use xlink:href="#DejaVuSans-75" x="356.693359"/>
      <use xlink:href="#DejaVuSans-78" x="420.072266"/>
      <use xlink:href="#DejaVuSans-20" x="479.251953"/>
      <use xlink:href="#DejaVuSans-70" x="511.039062"/>
      <use xlink:href="#DejaVuSans-6f" x="574.515625"/>
      <use xlink:href="#DejaVuSans-73" x="635.697266"/>
      <use xlink:href="#DejaVuSans-69" x="687.796875"/>
      <use xlink:href="#DejaVuSans-74" x="715.580078"/>
      <use xlink:href="#DejaVuSans-69" x="754.789062"/>
      <use xlink:href="#DejaVuSans-66" x="782.572266"/>
      <use xlink:href="#DejaVuSans-73" x="817.777344"/>
     </g>
    </g>
   </g>
   <g id="matplotlib.axis_2">
    <g id="ytick_1">
     <g id="line2d_7">
      <defs>
       <path id="m5eeb8f87a4" d="M 0 0 
L -3.5 0 
" style="stroke: #000000; stroke-width: 0.8"/>
      </defs>
      <g>
       <use xlink:href="#m5eeb8f87a4" x="90" y="369.36" style="stroke: #000000; stroke-width: 0.8"/>
      </g>
     </g>
     <g id="text_8">
      <!-- 0.0 -->
      <g transform="translate(67.096875 373.159219) scale(0.1 -0.1)">
       <use xlink:href="#DejaVuSans-30"/>
       <use xlink:href="#DejaVuSans-2e" x="63.623047"/>
       <use xlink:href="#DejaVuSans-30" x="95.410156"/>
      </g>
     </g>
    </g>
    <g id="ytick_2">
     <g id="line2d_8">
      <g>
       <use xlink:href="#m5eeb8f87a4" x="90" y="308.88" style="stroke: #000000; stroke-width: 0.8"/>
      </g>
     </g>
     <g id="text_9">
      <!-- 0.2 -->
      <g transform="translate(67.096875 312.679219) scale(0.1 -0.1)">
       <use xlink:href="#DejaVuSans-30"/>
       <use xlink:href="#DejaVuSans-2e" x="63.623047"/>
       <use xlink:href="#DejaVuSans-32" x="95.410156"/>
      </g>
     </g>
    </g>
    <g id="ytick_3">
     <g id="line2d_9">
      <g>
       <use xlink:href="#m5eeb8f87a4" x="90" y="248.4" style="stroke: #000000; stroke-width: 0.8"/>
      </g>
     </g>
     <g id="text_10">
      <!-- 0.4 -->
      <g transform="translate(67.096875 252.199219) scale(0.1 -0.1)">
       <use xlink:href="#DejaVuSans-30"/>
       <use xlink:href="#DejaVuSans-2e" x="63.623047"/>
       <use xlink:href="#DejaVuSans-34" x="95.410156"/>
      </g>
     </g>
    </g>
    <g id="ytick_4">
     <g id="line2d_10">
      <g>
       <use xlink:href="#m5eeb8f87a4" x="90" y="187.92" style="stroke: #000000; stroke-width: 0.8"/>
      </g>
     </g>
     <g id="text_11">
      <!-- 0.6 -->
      <g transform="translate(67.096875 191.719219) scale(0.1 -0.1)">
       <use xlink:href="#DejaVuSans-30"/>
       <use xlink:href="#DejaVuSans-2e" x="63.623047"/>
       <use xlink:href="#DejaVuSans-36" x="95.410156"/>
      </g>
     </g>
    </g>
    <g id="ytick_5">
     <g id="line2d_11">
      <g>
       <use xlink:href="#m5eeb8f87a4" x="90" y="127.44" style="stroke: #000000; stroke-width: 0.8"/>
      </g>
     </g>
     <g id="text_12">
      <!-- 0.8 -->
      <g transform="translate(67.096875 131.239219) scale(0.1 -0.1)">
       <use xlink:href="#DejaVuSans-30"/>
       <use xlink:href="#DejaVuSans-2e" x="63.623047"/>
       <use xlink:href="#DejaVuSans-38" x="95.410156"/>
      </g>
     </g>
    </g>
    <g id="ytick_6">
     <g id="line2d_12">
      <g>
       <use xlink:href="#m5eeb8f87a4" x="90" y="66.96" style="stroke: #000000; stroke-width: 0.8"/>
      </g>
     </g>
     <g id="text_13">
      <!-- 1.0 -->
      <g transform="translate(67.096875 70.759219) scale(0.1 -0.1)">
       <use xlink:href="#DejaVuSans-31"/>
       <use xlink:href="#DejaVuSans-2e" x="63.623047"/>
       <use xlink:href="#DejaVuSans-30" x="95.410156"/>
      </g>
     </g>
    </g>
    <g id="text_14">
     <!-- Taux vrai positif -->
     <g transform="translate(61.017187 257.563906) rotate(-90) scale(0.1 -0.1)">
      <defs>
       <path id="DejaVuSans-76" d="M 191 3500 
L 800 3500 
L 1894 563 
L 2988 3500 
L 3597 3500 
L 2284 0 
L 1503 0 
L 191 3500 
z
" transform="scale(0.015625)"/>
       <path id="DejaVuSans-72" d="M 2631 2963 
Q 2534 3019 2420 3045 
Q 2306 3072 2169 3072 
Q 1681 3072 1420 2755 
Q 1159 2438 1159 1844 
L 1159 0 
L 581 0 
L 581 3500 
L 1159 3500 
L 1159 2956 
Q 1341 3275 1631 3429 
Q 1922 3584 2338 3584 
Q 2397 3584 2469 3576 
Q 2541 3569 2628 3553 
L 2631 2963 
z
" transform="scale(0.015625)"/>
      </defs>
      <use xlink:href="#DejaVuSans-54"/>
      <use xlink:href="#DejaVuSans-61" x="44.583984"/>
      <use xlink:href="#DejaVuSans-75" x="105.863281"/>
      <use xlink:href="#DejaVuSans-78" x="169.242188"/>
      <use xlink:href="#DejaVuSans-20" x="228.421875"/>
      <use xlink:href="#DejaVuSans-76" x="260.208984"/>
      <use xlink:href="#DejaVuSans-72" x="319.388672"/>
      <use xlink:href="#DejaVuSans-61" x="360.501953"/>
      <use xlink:href="#DejaVuSans-69" x="421.78125"/>
      <use xlink:href="#DejaVuSans-20" x="449.564453"/>
      <use xlink:href="#DejaVuSans-70" x="481.351562"/>
      <use xlink:href="#DejaVuSans-6f" x="544.828125"/>
      <use xlink:href="#DejaVuSans-73" x="606.009766"/>
      <use xlink:href="#DejaVuSans-69" x="658.109375"/>
      <use xlink:href="#DejaVuSans-74" x="685.892578"/>
      <use xlink:href="#DejaVuSans-69" x="725.101562"/>
      <use xlink:href="#DejaVuSans-66" x="752.884766"/>
     </g>
    </g>
   </g>
   <g id="line2d_13">
    <path d="M 115.363636 369.36 
L 115.454938 368.579781 
L 115.648954 367.539488 
L 115.717431 367.08436 
L 117.863023 362.858172 
L 119.962964 359.93235 
L 120.305346 359.607259 
L 120.967284 358.371911 
L 121.846063 357.071546 
L 125.041626 353.040413 
L 127.335583 349.789499 
L 128.556745 347.643896 
L 133.156072 340.881995 
L 133.977788 339.776685 
L 137.527145 336.135661 
L 139.124926 333.990058 
L 141.544424 330.414053 
L 146.47472 323.717171 
L 148.004025 320.856366 
L 150.925682 316.630178 
L 152.979973 314.029447 
L 154.543516 311.623771 
L 156.164122 309.738241 
L 157.088553 308.958022 
L 164.255743 298.230006 
L 166.013303 296.084403 
L 168.193133 294.133855 
L 170.98925 291.338069 
L 173.522875 287.046863 
L 176.193452 283.01573 
L 179.811285 279.374707 
L 182.207957 276.773975 
L 185.209503 272.742842 
L 186.510554 271.442477 
L 189.614814 267.93149 
L 192.741901 263.575266 
L 196.667877 259.99926 
L 197.843388 259.154023 
L 198.790644 257.723621 
L 199.509646 257.073438 
L 200.274298 256.683328 
L 204.166037 253.562451 
L 205.889358 250.636629 
L 207.247472 249.271245 
L 208.046363 248.816117 
L 210.96802 245.240112 
L 211.903863 244.589929 
L 213.581533 242.574363 
L 215.430395 240.753851 
L 215.95538 239.713558 
L 218.671608 236.917773 
L 219.607451 236.202571 
L 220.223738 235.48737 
L 221.410662 233.666859 
L 222.814427 231.976384 
L 224.298081 230.871073 
L 224.651875 230.285908 
L 227.151262 227.880232 
L 228.669154 226.514848 
L 230.883222 223.589026 
L 232.218511 222.548734 
L 233.336958 220.79324 
L 235.881995 218.387564 
L 236.452631 217.737381 
L 237.171633 217.607345 
L 239.728083 214.291413 
L 240.207417 213.901303 
L 242.5242 212.275846 
L 243.243201 211.36559 
L 243.802425 211.170535 
L 244.441537 210.715407 
L 245.685524 208.439768 
L 246.952337 206.879329 
L 248.321863 206.09911 
L 248.675658 205.578964 
L 250.022359 204.148562 
L 251.802744 203.173287 
L 252.213602 203.108269 
L 254.222241 199.402227 
L 256.105341 197.386661 
L 256.675977 197.126588 
L 258.581902 195.826222 
L 259.529158 194.980985 
L 261.161177 193.550583 
L 262.108433 192.965418 
L 262.496466 192.315235 
L 263.409484 191.795089 
L 266.319728 189.714504 
L 267.985986 188.089048 
L 268.682162 187.178792 
L 271.307088 184.96817 
L 272.014677 184.383006 
L 272.425535 184.252969 
L 273.874951 182.952604 
L 276.191734 181.19711 
L 279.467185 178.986489 
L 280.311727 178.20627 
L 280.642696 177.81616 
L 282.00081 176.450776 
L 282.811113 175.93063 
L 284.363244 174.630264 
L 285.652881 174.175137 
L 286.303407 173.65499 
L 287.319139 173.329899 
L 288.323459 172.874771 
L 291.97553 170.144003 
L 292.420626 169.363784 
L 295.387934 167.413236 
L 295.718903 167.413236 
L 296.33519 167.153163 
L 298.515021 165.787779 
L 300.432358 164.61745 
L 301.916012 164.422395 
L 302.555125 164.162322 
L 302.897506 163.902249 
L 303.262714 163.772212 
L 306.024593 162.146756 
L 306.321323 161.691628 
L 307.279992 160.651335 
L 308.033232 160.391262 
L 309.49406 159.220933 
L 312.016272 158.245659 
L 313.591228 157.010312 
L 315.177597 156.555184 
L 318.715541 154.084489 
L 319.183463 153.824416 
L 319.92529 153.174233 
L 320.210608 153.109215 
L 321.123626 152.328996 
L 322.65293 151.743831 
L 324.741459 151.093649 
L 328.347879 148.948046 
L 329.066881 148.362881 
L 331.999951 146.997497 
L 332.479285 146.997497 
L 334.042828 146.347315 
L 335.948753 145.242004 
L 336.302548 145.242004 
L 337.637836 144.526803 
L 338.756283 143.48651 
L 340.810573 142.251163 
L 343.30996 140.885779 
L 345.444139 139.585414 
L 346.208791 138.740176 
L 348.069065 137.439811 
L 349.746736 137.244756 
L 350.203245 136.854646 
L 350.830944 136.464537 
L 351.184739 136.464537 
L 352.839584 135.879372 
L 353.124902 135.619299 
L 355.418859 134.44897 
L 357.621515 133.993842 
L 358.294866 133.538714 
L 359.013867 133.278641 
L 359.835583 133.213623 
L 361.901286 132.628458 
L 363.727322 131.718203 
L 365.18815 131.263075 
L 367.242441 130.417837 
L 368.292411 130.2878 
L 370.403765 129.18249 
L 371.453736 128.857398 
L 374.215615 127.687069 
L 374.523758 127.687069 
L 377.251399 126.321686 
L 377.628019 126.256667 
L 378.130179 125.931576 
L 380.412723 125.606485 
L 382.387124 124.63121 
L 383.482746 123.785973 
L 383.745239 123.785973 
L 385.776703 123.070772 
L 386.826674 122.74568 
L 387.557088 122.030479 
L 388.52717 121.835425 
L 390.353205 120.925169 
L 391.928161 120.470041 
L 392.76129 120.340004 
L 393.697133 119.75484 
L 396.310647 118.649529 
L 397.543221 117.934328 
L 399.55186 117.4792 
L 402.496343 116.959054 
L 404.53922 116.178835 
L 405.931573 115.918762 
L 406.365256 115.658688 
L 408.72769 115.268579 
L 412.53954 113.968213 
L 414.09167 113.513085 
L 418.348616 112.21272 
L 418.736648 112.21272 
L 420.733875 111.302464 
L 421.88656 110.782318 
L 423.632707 110.392208 
L 424.614201 109.93708 
L 427.296191 109.481952 
L 429.076576 108.83177 
L 429.898292 108.701733 
L 430.822722 108.44166 
L 432.123773 107.921514 
L 434.120999 107.466386 
L 435.364986 107.011258 
L 436.563322 106.035984 
L 438.298056 105.710892 
L 439.78171 105.320783 
L 441.071348 105.190746 
L 443.456607 104.735618 
L 444.3468 104.085435 
L 444.654943 104.085435 
L 445.533723 103.825362 
L 446.766297 103.695326 
L 449.573827 103.045143 
L 450.840639 102.78507 
L 451.89061 102.720052 
L 453.111771 102.39496 
L 454.332932 101.614741 
L 456.101905 100.964558 
L 457.722511 100.704485 
L 459.731151 100.054302 
L 460.347438 99.989284 
L 460.644168 99.794229 
L 463.280508 99.40412 
L 463.896795 98.948992 
L 464.695685 98.818955 
L 465.266321 98.298809 
L 467.423326 98.038736 
L 468.073851 97.973717 
L 469.557505 97.648626 
L 469.968363 97.388553 
L 472.399274 96.803389 
L 475.047025 96.543315 
L 478.767573 95.763096 
L 479.406686 95.568041 
L 480.38818 95.112913 
L 482.545185 94.787822 
L 483.86906 94.592767 
L 484.291331 94.397712 
L 487.155925 93.552475 
L 489.792264 93.162365 
L 490.944949 92.772255 
L 491.652538 92.707237 
L 493.273145 92.317127 
L 494.368766 92.317127 
L 494.859513 92.187091 
L 497.005105 91.992036 
L 498.511585 91.536908 
L 499.241999 91.536908 
L 503.453294 90.821707 
L 505.82714 90.236543 
L 506.043982 90.236543 
L 508.166748 90.041488 
L 509.193894 90.041488 
L 511.990011 89.456323 
L 512.503583 89.131232 
L 514.341032 88.806141 
L 515.585019 88.481049 
L 516.692053 88.351013 
L 517.05726 88.155958 
L 518.278421 87.895885 
L 519.157201 87.895885 
L 521.063126 87.505775 
L 523.5511 86.790574 
L 524.270101 86.530501 
L 524.680959 86.530501 
L 525.753755 86.140391 
L 528.698238 85.880318 
L 530.421559 85.42519 
L 531.403053 85.035081 
L 533.069311 84.970062 
L 536.219222 84.31988 
L 536.664319 84.31988 
L 537.976782 84.189843 
L 544.539098 82.694423 
L 545.703196 82.629404 
L 547.027071 82.43435 
L 547.917264 82.43435 
L 549.263965 82.109258 
L 551.329668 81.784167 
L 552.037257 81.524094 
L 556.944728 80.613838 
L 557.891984 80.54882 
L 558.668049 80.288747 
L 559.740845 80.288747 
L 560.448434 79.963655 
L 561.532643 79.898637 
L 561.954914 79.7686 
L 563.02771 79.573545 
L 564.591253 79.443509 
L 570.183487 78.598271 
L 573.185033 78.403217 
L 573.938273 77.948089 
L 574.417608 77.88307 
L 574.702926 77.688015 
L 575.43334 77.688015 
L 577.179487 77.557979 
L 577.693059 77.557979 
L 578.469124 77.297906 
L 579.347904 76.842778 
L 581.904354 76.77776 
L 583.388008 76.38765 
L 584.848837 76.322632 
L 585.259695 76.192595 
L 585.818918 76.062559 
L 586.834651 75.99754 
L 590.406833 75.542412 
L 591.502454 75.477394 
L 593.043172 75.022266 
L 593.214363 74.957248 
L 594.08173 74.89223 
L 594.561064 74.827211 
L 596.056131 74.762193 
L 596.295798 74.697175 
L 597.334356 74.632157 
L 598.133247 74.437102 
L 599.080503 74.372083 
L 599.228868 74.307065 
L 599.685377 74.177029 
L 600.598395 74.11201 
L 600.792411 74.046992 
L 600.929364 74.046992 
L 601.191856 73.851937 
L 601.328809 73.851937 
L 601.614127 73.591864 
L 602.093462 73.526846 
L 602.492907 73.396809 
L 603.440163 73.331791 
L 603.839608 73.136736 
L 604.353181 73.136736 
L 604.455895 73.0067 
L 604.764039 72.941681 
L 605.231961 72.876663 
L 605.471628 72.811645 
L 605.928137 72.746627 
L 605.962375 72.681608 
L 606.749853 72.61659 
L 607.057996 72.551572 
L 607.503092 72.486553 
L 607.61722 72.356517 
L 608.929683 72.291499 
L 609.226414 72.161462 
L 609.249239 72.096444 
L 609.443255 71.836371 
L 610.207908 71.771352 
L 610.367686 71.641316 
L 610.607353 71.576298 
L 610.767131 71.511279 
L 610.824195 71.511279 
L 610.824195 71.446261 
L 610.949735 71.381243 
L 611.508958 71.316224 
L 611.611673 71.12117 
L 612.844247 71.056151 
L 612.844247 70.991133 
L 612.924136 70.991133 
L 613.175216 70.926115 
L 613.334994 70.796078 
L 613.700201 70.73106 
L 613.700201 70.666042 
L 613.791503 70.666042 
L 614.065408 70.601023 
L 614.190948 70.470987 
L 614.270837 70.405969 
L 614.40779 70.145896 
L 615.001252 70.080877 
L 615.115379 70.015859 
L 615.252332 69.950841 
L 615.355046 69.690768 
L 616.541969 69.625749 
L 616.633271 69.560731 
L 616.930002 69.495713 
L 616.930002 69.430694 
L 617.032716 69.430694 
L 617.124018 69.365676 
L 617.124018 69.300658 
L 617.203907 69.300658 
L 617.386511 69.23564 
L 617.477813 69.040585 
L 618.790276 68.975567 
L 618.847339 68.84553 
L 618.881578 68.84553 
L 619.064181 68.780512 
L 619.246785 68.520439 
L 619.372325 68.45542 
L 619.372325 68.390402 
L 619.452214 68.390402 
L 619.543516 68.325384 
L 619.64623 68.130329 
L 620.02285 68.065311 
L 620.136977 67.935274 
L 620.251104 67.870256 
L 620.376644 67.805238 
L 620.798915 67.740219 
L 620.981519 67.480146 
L 622.122791 67.415128 
L 622.282569 67.220073 
L 622.510824 67.155055 
L 622.636364 66.96 
L 622.636364 66.96 
" clip-path="url(#p6c965b0a53)" style="fill: none; stroke: #1f77b4; stroke-width: 2; stroke-linecap: square"/>
   </g>
   <g id="line2d_14">
    <path d="M 115.363636 369.36 
L 115.386467 369.295121 
L 115.843079 367.283879 
L 116.356767 366.18094 
L 116.676395 365.078 
L 117.26999 363.715546 
L 117.886416 362.612607 
L 118.799639 361.250152 
L 120.135228 358.460365 
L 120.466272 357.746698 
L 121.19685 356.838395 
L 124.49587 351.712971 
L 124.929651 350.999305 
L 128.365653 346.003639 
L 129.552844 344.770942 
L 131.265138 341.786518 
L 133.502535 338.4777 
L 136.949953 333.482034 
L 138.399695 332.119579 
L 140.876813 328.551247 
L 145.07764 323.231186 
L 145.694066 322.258005 
L 147.440606 319.208702 
L 150.36292 315.964763 
L 152.600318 313.174975 
L 154.095721 311.553006 
L 155.465556 309.21737 
L 156.59567 308.179309 
L 162.600113 300.13434 
L 164.015609 298.512371 
L 170.282604 292.15425 
L 172.371603 287.937129 
L 175.293917 284.498554 
L 176.161479 283.720009 
L 178.547275 280.47607 
L 180.818918 277.621403 
L 183.547173 272.690616 
L 184.859932 271.003767 
L 187.348465 268.992525 
L 188.170366 267.889586 
L 189.072174 267.046162 
L 189.848414 265.943222 
L 191.572123 264.645647 
L 195.818611 260.882678 
L 198.626773 257.119708 
L 199.585658 256.146526 
L 201.05823 254.394799 
L 202.964584 252.513315 
L 204.688293 249.983042 
L 206.046713 249.009861 
L 209.048934 246.025437 
L 209.779513 245.441528 
L 210.589999 244.468346 
L 212.119648 242.911255 
L 214.083078 239.732195 
L 215.293099 238.239983 
L 216.788502 237.007286 
L 217.199453 236.098983 
L 218.306736 235.515074 
L 220.281581 233.374074 
L 221.514433 232.141377 
L 223.306634 229.675984 
L 225.760921 227.340348 
L 226.891035 225.913014 
L 227.633029 225.393984 
L 230.361284 222.474439 
L 231.411491 221.176863 
L 232.153485 220.917348 
L 232.815571 220.203682 
L 235.772132 216.05144 
L 236.616864 215.532409 
L 239.710408 212.418228 
L 242.940935 210.212349 
L 243.477454 209.498683 
L 244.105295 208.849895 
L 247.815265 204.243501 
L 248.500182 203.724471 
L 249.881432 202.362017 
L 250.885978 201.518593 
L 252.016092 200.934684 
L 253.739801 198.534169 
L 254.573117 197.95026 
L 255.863045 196.32829 
L 256.901837 195.419987 
L 258.831021 193.603381 
L 259.424616 193.214109 
L 259.767075 192.695078 
L 261.924565 190.424321 
L 262.849204 189.970169 
L 263.511291 189.516018 
L 264.127716 188.737473 
L 264.801218 188.283321 
L 265.805764 187.180382 
L 266.673326 186.596473 
L 268.225806 184.650109 
L 269.036292 184.390594 
L 269.9381 183.871564 
L 270.680094 182.963261 
L 274.127512 180.822261 
L 276.205095 179.265171 
L 279.721005 176.150989 
L 281.227823 175.502201 
L 281.558866 175.307565 
L 283.510881 173.490959 
L 285.21176 172.38802 
L 285.474312 172.063626 
L 289.184281 170.24702 
L 290.771007 168.560172 
L 292.551792 167.06796 
L 293.122557 166.938202 
L 294.583714 166.094778 
L 295.599675 165.186475 
L 296.227516 165.056717 
L 296.661297 164.602566 
L 298.031132 163.694263 
L 300.416928 161.488384 
L 300.690895 161.358627 
L 301.84384 160.12593 
L 302.209129 160.12593 
L 303.110937 159.477142 
L 303.499057 159.022991 
L 310.827674 155.000506 
L 311.992034 154.092203 
L 313.544513 153.573173 
L 314.800196 152.989264 
L 316.192861 152.599991 
L 320.05123 149.810204 
L 320.873131 149.550689 
L 325.94152 146.760901 
L 326.820498 146.112113 
L 328.589868 145.528204 
L 330.781604 144.035992 
L 332.505313 143.322326 
L 333.886563 142.349144 
L 335.770086 141.375962 
L 336.169621 140.98669 
L 336.808878 140.532538 
L 337.550872 140.208144 
L 338.612494 139.948629 
L 340.541678 138.84569 
L 341.249426 138.586175 
L 345.107795 136.510054 
L 347.893126 135.147599 
L 349.342868 134.174418 
L 350.587135 133.850024 
L 350.758364 133.655387 
L 352.641887 133.201236 
L 355.141836 132.42269 
L 356.420349 131.773903 
L 358.201134 130.995357 
L 358.691992 130.411448 
L 361.77412 129.113873 
L 363.726135 128.20557 
L 366.020609 127.362145 
L 370.232851 125.934812 
L 372.299019 124.766994 
L 373.029598 124.507479 
L 374.136881 124.247964 
L 375.769268 123.339661 
L 377.401655 122.625994 
L 377.903927 122.171843 
L 379.833112 121.912328 
L 380.164155 121.717691 
L 385.0499 119.901086 
L 385.198299 119.706449 
L 387.972215 118.863025 
L 388.965345 118.668389 
L 390.084044 118.279116 
L 390.848868 117.889843 
L 393.280325 117.176177 
L 394.341947 116.527389 
L 395.666121 116.267874 
L 396.898973 115.748844 
L 397.298508 115.683965 
L 398.485698 115.164935 
L 399.52449 114.581026 
L 400.197992 114.581026 
L 402.047269 114.191753 
L 405.152228 113.737601 
L 408.850783 112.634662 
L 411.464885 111.401965 
L 412.971703 111.077571 
L 413.747943 110.753177 
L 415.677127 110.234147 
L 417.126869 109.260965 
L 419.581157 108.48242 
L 422.332242 108.093147 
L 423.667831 107.574117 
L 425.243142 107.314602 
L 426.373255 106.925329 
L 428.039888 106.276542 
L 430.48276 105.82239 
L 431.338907 105.562875 
L 432.263546 105.497996 
L 433.987255 104.78433 
L 436.658433 104.395057 
L 442.320418 102.773087 
L 443.724499 102.383815 
L 445.973311 101.670148 
L 446.943611 101.475512 
L 448.393353 101.410633 
L 449.512052 101.02136 
L 450.139893 100.956481 
L 450.744903 100.567209 
L 451.612465 100.372572 
L 452.856732 100.242815 
L 453.724294 99.9833 
L 458.347487 99.074997 
L 460.607715 98.555967 
L 461.749244 98.296451 
L 463.838242 97.647664 
L 466.109885 97.258391 
L 466.966032 97.193512 
L 467.605289 97.063755 
L 468.975124 96.998876 
L 470.287882 96.933997 
L 471.74904 96.090573 
L 472.125744 96.025694 
L 473.13029 95.571543 
L 475.641654 94.857876 
L 475.995528 94.857876 
L 476.920167 94.598361 
L 478.60963 94.403725 
L 479.637006 94.014452 
L 480.059372 94.014452 
L 481.93148 93.754937 
L 483.187162 93.430543 
L 484.86521 93.235906 
L 485.413144 93.04127 
L 488.107152 92.716876 
L 488.392535 92.587119 
L 489.579725 92.392482 
L 491.451833 92.132967 
L 492.387887 92.132967 
L 494.134426 91.808573 
L 498.495068 91.030028 
L 499.921979 90.510998 
L 504.933292 89.927089 
L 505.892177 89.667573 
L 506.497187 89.602695 
L 507.627301 89.213422 
L 509.179781 89.083664 
L 512.581538 88.564634 
L 513.175133 88.305119 
L 513.483346 88.305119 
L 516.234431 87.850968 
L 516.725288 87.656331 
L 518.129369 87.591452 
L 520.72064 87.137301 
L 522.421519 87.072422 
L 523.357573 86.942665 
L 525.846106 86.099241 
L 528.494454 85.904604 
L 529.624568 85.645089 
L 530.218163 85.645089 
L 530.982988 85.450453 
L 532.855095 85.126059 
L 535.00117 84.412392 
L 535.526274 84.347513 
L 536.176945 84.152877 
L 537.866408 84.02312 
L 540.275035 83.568968 
L 543.334333 83.244574 
L 544.829736 83.179695 
L 549.190378 82.660665 
L 550.354737 82.336271 
L 551.325037 82.336271 
L 555.662848 81.427968 
L 556.461918 81.427968 
L 558.448179 80.973817 
L 559.327157 80.973817 
L 560.034905 80.844059 
L 561.01662 80.844059 
L 561.781444 80.584544 
L 562.317963 80.584544 
L 563.299678 80.130393 
L 570.628295 79.351847 
L 571.290382 79.157211 
L 571.336043 79.027453 
L 572.625971 78.508423 
L 573.93873 78.378666 
L 575.92499 78.11915 
L 578.208049 77.60012 
L 581.76962 77.145969 
L 582.774165 76.951332 
L 584.543536 76.886454 
L 585.342606 76.821575 
L 586.244414 76.821575 
L 589.942969 76.043029 
L 590.39958 75.978151 
L 592.14612 75.783514 
L 593.584447 75.718635 
L 594.132381 75.329363 
L 594.646069 75.264484 
L 595.399478 75.134726 
L 595.787598 75.069848 
L 596.118641 75.004969 
L 596.598084 74.94009 
L 597.031865 74.810333 
L 597.762443 74.745454 
L 597.990749 74.680575 
L 598.287547 74.615696 
L 598.641421 74.485939 
L 599.440491 74.42106 
L 599.600305 74.291302 
L 600.490698 74.226424 
L 600.604851 74.161545 
L 601.278353 74.096666 
L 601.632227 74.031787 
L 603.287444 73.966908 
L 603.538581 73.90203 
L 603.835378 73.90203 
L 604.189252 73.772272 
L 604.474635 73.772272 
L 604.634449 73.642514 
L 605.205213 73.577636 
L 605.490596 73.447878 
L 606.746278 73.382999 
L 607.157228 73.253242 
L 608.207435 73.253242 
L 608.549894 73.123484 
L 608.80103 73.058605 
L 608.938014 72.928848 
L 609.896898 72.863969 
L 610.033882 72.79909 
L 610.707384 72.79909 
L 610.753045 72.669333 
L 610.93569 72.604454 
L 611.084089 72.344939 
L 611.255318 72.28006 
L 611.369471 72.215181 
L 611.586361 72.020545 
L 611.654853 71.955666 
L 611.883159 71.890787 
L 612.613738 71.825909 
L 612.773552 71.696151 
L 613.367147 71.631272 
L 613.367147 71.566393 
L 613.435639 71.566393 
L 613.800928 71.501515 
L 613.937911 71.436636 
L 614.234709 71.371757 
L 614.394523 71.047363 
L 614.554337 70.917606 
L 614.988118 70.852727 
L 615.102271 70.787848 
L 615.159348 70.722969 
L 615.296331 70.658091 
L 615.456145 70.593212 
L 615.558883 70.528333 
L 615.752943 70.268818 
L 615.878511 70.268818 
L 615.992664 70.074182 
L 616.083986 70.009303 
L 616.106817 69.879545 
L 616.152478 69.879545 
L 616.586259 69.814666 
L 616.723243 69.62003 
L 616.940133 69.555151 
L 616.940133 69.490272 
L 617.031455 69.490272 
L 617.510898 69.425394 
L 617.682127 69.295636 
L 618.127323 69.230757 
L 618.207231 69.165879 
L 618.309968 69.101 
L 618.515443 68.906363 
L 619.074793 68.841485 
L 619.257437 68.58197 
L 619.462913 68.517091 
L 620.239152 67.933182 
L 620.387551 67.868303 
L 620.581611 67.738545 
L 620.672933 67.673667 
L 620.787086 67.543909 
L 621.472004 67.47903 
L 621.574742 67.414151 
L 621.780217 67.349273 
L 621.848709 67.219515 
L 622.11126 67.154636 
L 622.168337 67.089758 
L 622.624948 67.024879 
L 622.624948 66.96 
L 622.636364 66.96 
" clip-path="url(#p6c965b0a53)" style="fill: none; stroke: #ff7f0e; stroke-width: 2; stroke-linecap: square"/>
   </g>
   <g id="line2d_15">
    <path d="M 115.363636 369.36 
L 115.454844 368.440651 
L 115.557452 368.309316 
L 115.739867 367.3243 
L 116.02489 366.995961 
L 116.081895 366.73329 
L 116.526531 366.076612 
L 117.164982 364.237915 
L 117.814835 363.51557 
L 118.544494 362.267883 
L 118.897923 361.282866 
L 119.946808 359.641173 
L 120.243232 359.509837 
L 120.972891 358.196482 
L 126.855768 349.856678 
L 128.121271 348.346319 
L 129.785806 346.047948 
L 131.393336 343.486906 
L 133.194682 341.122866 
L 134.220765 340.006515 
L 137.549835 334.556091 
L 139.08896 332.914397 
L 141.916389 330.090684 
L 144.116768 327.529642 
L 145.952316 324.837264 
L 146.647773 323.458241 
L 148.118492 321.619544 
L 151.458963 317.876482 
L 153.476926 315.052769 
L 154.765231 313.739414 
L 157.262033 310.521694 
L 164.752441 301.722215 
L 166.462579 299.22684 
L 173.850378 291.084039 
L 176.575199 287.669316 
L 177.441669 287.143974 
L 179.995476 284.385928 
L 185.388114 278.21316 
L 186.722022 277.359479 
L 188.968004 274.864104 
L 190.039691 273.353746 
L 191.031571 272.697068 
L 191.863839 271.252378 
L 192.240069 270.989707 
L 193.368761 270.004691 
L 198.499177 265.079609 
L 199.308642 263.700586 
L 200.004099 262.781238 
L 200.961776 262.12456 
L 204.507464 259.103844 
L 206.103593 256.805472 
L 208.121557 255.295114 
L 209.592276 253.65342 
L 210.424543 253.128078 
L 212.11188 250.895375 
L 213.536996 248.728339 
L 215.509356 246.561303 
L 216.193411 246.101629 
L 216.683651 245.510619 
L 218.108766 244.065928 
L 218.667412 243.277915 
L 219.739099 242.424235 
L 220.354749 241.701889 
L 221.529044 240.782541 
L 222.931357 238.74684 
L 224.390676 237.236482 
L 224.778307 236.645472 
L 226.123616 235.529121 
L 226.967285 234.544104 
L 228.928244 233.099414 
L 229.635101 232.114397 
L 232.576539 229.42202 
L 234.400687 227.451987 
L 235.153148 226.860977 
L 237.695554 223.971596 
L 238.277002 223.708925 
L 238.801444 223.643257 
L 241.275445 220.688208 
L 244.650118 217.207818 
L 246.234847 215.828795 
L 248.640442 213.267752 
L 251.775696 209.656026 
L 252.778977 208.277003 
L 254.021678 207.685993 
L 256.210656 204.86228 
L 257.954997 203.089251 
L 258.354029 202.23557 
L 260.143974 200.593876 
L 260.622813 200.331205 
L 262.196141 198.755179 
L 263.119616 198.164169 
L 264.909561 196.325472 
L 265.673423 195.603127 
L 266.539893 195.143453 
L 267.600179 194.158436 
L 271.989535 191.269055 
L 272.707793 190.54671 
L 274.805563 189.10202 
L 276.310485 187.854332 
L 278.21444 186.606645 
L 278.602071 185.949967 
L 281.91974 184.176938 
L 282.387178 184.045603 
L 283.219445 183.323257 
L 283.618478 183.126254 
L 284.747169 181.878567 
L 285.636441 181.221889 
L 287.449188 179.580195 
L 288.190248 178.660847 
L 289.820581 177.807166 
L 290.687051 177.41316 
L 293.26366 174.983453 
L 294.677374 173.998436 
L 297.493403 172.488078 
L 297.881034 172.356743 
L 298.405477 171.897068 
L 302.532611 168.810684 
L 303.900722 167.562997 
L 306.762354 165.789967 
L 307.799838 164.607948 
L 308.905728 163.688599 
L 309.931811 163.031922 
L 310.946493 162.178241 
L 311.52794 161.981238 
L 312.485618 161.061889 
L 313.705517 160.536547 
L 314.902614 159.551531 
L 315.290245 159.485863 
L 319.702403 156.465147 
L 320.238247 156.333811 
L 321.207325 155.48013 
L 325.220451 152.787752 
L 325.847501 151.868404 
L 326.56576 151.343062 
L 326.896386 151.343062 
L 328.515318 150.620717 
L 329.427392 149.898371 
L 332.346028 148.059674 
L 332.665254 147.994007 
L 333.885153 147.6 
L 335.891716 146.614984 
L 337.41944 144.97329 
L 338.650739 144.119609 
L 340.839717 142.477915 
L 341.512371 141.558567 
L 343.017293 140.901889 
L 343.860962 140.704886 
L 346.049939 139.916873 
L 347.395248 139.063192 
L 347.988096 138.931857 
L 349.481618 137.94684 
L 350.678715 136.764821 
L 352.628273 135.451466 
L 353.905176 135.057459 
L 354.247204 134.794788 
L 355.159278 134.400782 
L 356.390578 133.547101 
L 357.40526 133.218762 
L 358.328735 132.759088 
L 358.989988 132.036743 
L 360.745731 131.24873 
L 360.973749 130.920391 
L 361.623602 130.592052 
L 363.367943 129.804039 
L 364.633446 129.4757 
L 365.716534 129.016026 
L 366.560202 128.490684 
L 370.390913 126.84899 
L 372.249263 125.666971 
L 373.389356 125.010293 
L 374.996886 124.353616 
L 377.01485 123.762606 
L 379.067016 122.908925 
L 382.236473 121.792573 
L 382.453091 121.661238 
L 386.865248 119.691205 
L 388.803406 119.231531 
L 390.901176 118.509186 
L 391.69924 118.246515 
L 392.919139 117.983844 
L 394.77749 117.261498 
L 395.837776 116.998827 
L 397.86714 116.013811 
L 399.793897 115.357134 
L 400.774376 115.225798 
L 406.144211 113.71544 
L 408.994443 112.467752 
L 412.41472 111.482736 
L 413.942444 111.220065 
L 414.87732 110.826059 
L 421.980095 108.659023 
L 425.662594 107.87101 
L 427.178917 107.28 
L 429.037268 107.082997 
L 430.656199 106.426319 
L 432.012909 106.229316 
L 433.232808 105.900977 
L 434.441306 105.835309 
L 435.398983 105.441303 
L 438.750855 104.587622 
L 439.275298 104.390619 
L 440.073362 104.390619 
L 441.213455 103.733941 
L 442.490358 103.47127 
L 443.402432 103.274267 
L 449.627337 101.369902 
L 450.892839 100.84456 
L 453.309835 100.187883 
L 455.761034 100.122215 
L 458.816482 99.728208 
L 460.287201 99.39987 
L 461.609708 99.268534 
L 462.282363 99.071531 
L 462.875211 98.611857 
L 463.342649 98.546189 
L 464.072308 98.086515 
L 464.858972 97.889511 
L 465.976262 97.823844 
L 468.222244 97.561173 
L 471.106678 96.707492 
L 472.223969 96.510489 
L 472.554596 96.313485 
L 474.287536 96.116482 
L 475.268016 95.656808 
L 478.004238 94.934463 
L 478.483076 94.606124 
L 479.417952 94.409121 
L 481.230699 93.752443 
L 481.720939 93.752443 
L 483.054847 93.161433 
L 484.377354 92.833094 
L 486.862756 92.176417 
L 489.313954 91.388404 
L 494.398767 90.731726 
L 494.797799 90.534723 
L 495.390647 90.469055 
L 496.792961 89.943713 
L 504.522788 88.761694 
L 508.855139 87.776678 
L 509.892623 87.317003 
L 511.773775 87.12 
L 512.332421 86.857329 
L 513.597923 86.463322 
L 514.954633 86.331987 
L 516.094726 85.872313 
L 518.716938 85.675309 
L 519.560607 85.478306 
L 522.182819 85.215635 
L 522.490644 85.018632 
L 523.687741 85.018632 
L 526.822996 84.690293 
L 528.407724 84.230619 
L 533.150509 83.836612 
L 534.199394 83.639609 
L 537.517063 83.179935 
L 538.554547 82.917264 
L 538.759763 82.720261 
L 539.626234 82.654593 
L 541.074151 82.326254 
L 542.248446 82.063583 
L 543.057912 82.063583 
L 544.289212 81.86658 
L 545.360899 81.27557 
L 545.987949 81.078567 
L 546.717609 81.012899 
L 548.610162 80.68456 
L 549.545038 80.618893 
L 552.28126 80.356221 
L 553.113527 80.356221 
L 553.76338 80.224886 
L 555.883952 80.159218 
L 556.089168 80.09355 
L 557.787906 79.962215 
L 558.460561 79.633876 
L 559.110413 79.633876 
L 560.204902 79.23987 
L 561.219584 79.108534 
L 562.428082 78.714528 
L 564.240829 78.451857 
L 564.822276 78.189186 
L 565.255511 78.189186 
L 565.677346 78.05785 
L 567.569899 77.992182 
L 568.276756 77.729511 
L 570.648149 77.532508 
L 571.115587 77.46684 
L 574.444656 77.401173 
L 575.197117 77.204169 
L 575.653154 77.204169 
L 577.431699 76.941498 
L 577.728123 76.941498 
L 579.210243 76.810163 
L 579.814492 76.810163 
L 583.37158 76.219153 
L 583.37158 76.153485 
L 587.852143 75.628143 
L 588.787019 75.43114 
L 590.212135 75.365472 
L 590.428752 75.299805 
L 590.941794 75.037134 
L 592.195896 74.971466 
L 593.495601 74.774463 
L 594.259463 74.708795 
L 594.624293 74.643127 
L 595.513565 74.577459 
L 595.513565 74.511792 
L 595.616173 74.511792 
L 595.912597 74.380456 
L 597.622736 74.314788 
L 597.896358 74.249121 
L 598.215584 74.183453 
L 598.409399 74.052117 
L 599.321473 73.98645 
L 599.538091 73.920782 
L 600.039732 73.855114 
L 600.381759 73.723779 
L 601.704267 73.658111 
L 601.704267 73.592443 
L 601.738469 73.592443 
L 602.057695 73.592443 
L 602.411124 73.39544 
L 603.494212 73.329772 
L 603.631023 73.264104 
L 603.733631 73.198436 
L 603.973051 73.132769 
L 604.121263 73.067101 
L 604.269475 72.935765 
L 605.170148 72.870098 
L 605.44377 72.80443 
L 606.105023 72.738762 
L 606.298839 72.673094 
L 607.621346 72.607427 
L 607.723955 72.541759 
L 608.020379 72.476091 
L 608.077383 72.410423 
L 609.468296 72.344756 
L 609.605107 72.279088 
L 610.232158 72.21342 
L 610.699596 71.819414 
L 611.24684 71.753746 
L 611.360849 71.688078 
L 611.680075 71.62241 
L 611.86249 71.425407 
L 612.934177 71.359739 
L 613.048186 71.294072 
L 613.310408 71.228404 
L 613.561228 70.834397 
L 613.880454 70.76873 
L 613.96026 70.637394 
L 614.393495 70.571726 
L 614.518906 70.440391 
L 614.860933 70.374723 
L 615.031947 70.309055 
L 615.282767 70.243388 
L 615.408178 70.17772 
L 615.624795 70.112052 
L 615.6818 70.046384 
L 616.035228 70.046384 
L 616.035228 69.915049 
L 616.137837 69.915049 
L 616.194841 69.915049 
L 616.354454 69.783713 
L 616.536869 69.718046 
L 616.536869 69.652378 
L 616.639477 69.652378 
L 616.696482 69.652378 
L 616.867496 69.389707 
L 617.266528 69.324039 
L 617.574353 69.061368 
L 617.847975 68.9957 
L 617.973386 68.864365 
L 618.304012 68.798697 
L 618.406621 68.733029 
L 618.64604 68.470358 
L 619.3871 68.404691 
L 619.546713 68.339023 
L 619.774732 68.273355 
L 620.321976 68.076352 
L 620.664004 68.010684 
L 620.778013 67.813681 
L 620.880621 67.748013 
L 621.051635 67.616678 
L 621.826898 67.55101 
L 621.929506 67.485342 
L 622.032115 67.419674 
L 622.134723 67.354007 
L 622.442548 67.288339 
L 622.442548 67.222671 
L 622.545156 67.222671 
L 622.636364 66.96 
L 622.636364 66.96 
" clip-path="url(#p6c965b0a53)" style="fill: none; stroke: #2ca02c; stroke-width: 2; stroke-linecap: square"/>
   </g>
   <g id="line2d_16">
    <path d="M 115.363636 369.36 
L 115.455018 368.973052 
L 115.489287 368.973052 
L 115.843392 367.812207 
L 116.231765 367.038311 
L 116.677252 366.780345 
L 117.431153 365.10357 
L 118.801883 362.910864 
L 119.144565 362.588407 
L 120.149767 360.266718 
L 121.840333 358.331977 
L 123.085413 356.59071 
L 124.627483 353.817582 
L 126.980569 350.91547 
L 128.431258 349.819117 
L 129.93906 348.271324 
L 131.424017 345.756161 
L 133.18312 343.305489 
L 133.937021 341.628714 
L 137.363845 336.146948 
L 138.917339 333.954242 
L 143.863388 327.634088 
L 145.862368 324.151555 
L 146.444928 322.861727 
L 148.112649 319.895125 
L 151.265327 316.735048 
L 153.332844 313.897428 
L 155.10337 312.09167 
L 156.302758 310.285912 
L 157.193732 309.189559 
L 162.779455 300.612207 
L 164.104494 299.32238 
L 165.79506 297.000691 
L 172.820049 288.939271 
L 176.521018 284.424875 
L 181.569872 278.620653 
L 186.001898 272.429482 
L 188.514902 268.946948 
L 189.542949 267.205681 
L 191.256361 265.72238 
L 191.701848 265.141958 
L 192.969773 263.723148 
L 197.081961 258.821804 
L 197.995781 258.176891 
L 199.172324 256.887063 
L 200.657281 256.371132 
L 202.245042 254.82334 
L 203.992723 252.888599 
L 205.637598 250.11547 
L 206.871255 249.1481 
L 207.545197 248.309712 
L 210.743565 245.601075 
L 211.474621 244.633704 
L 213.130919 242.827946 
L 215.027095 240.441766 
L 218.202619 237.475163 
L 219.196398 236.314319 
L 220.041681 236.120845 
L 221.309606 235.475931 
L 222.474726 233.734664 
L 223.845455 232.444837 
L 224.302365 232.186871 
L 225.650249 230.123148 
L 227.089515 229.026795 
L 228.722968 227.285528 
L 231.350199 224.641382 
L 233.086457 222.448676 
L 233.748976 221.803762 
L 236.935922 219.417582 
L 237.541328 218.708177 
L 239.277585 216.450979 
L 240.248518 215.999539 
L 242.578759 213.613359 
L 243.024246 213.419885 
L 243.366928 212.839463 
L 244.577739 212.130058 
L 246.039851 210.195317 
L 247.102166 208.389559 
L 248.861269 207.164223 
L 249.74082 205.874395 
L 250.19773 205.422956 
L 251.157241 205.036008 
L 252.048215 204.391094 
L 252.40232 203.74618 
L 254.001505 202.585336 
L 254.903902 201.36 
L 256.640159 199.102802 
L 256.971419 198.52238 
L 260.866575 195.749251 
L 262.739905 193.621036 
L 263.253929 193.492054 
L 264.21344 192.395701 
L 265.230064 191.750787 
L 265.926851 190.654434 
L 266.326648 190.396468 
L 267.12624 189.687063 
L 271.352656 187.042917 
L 272.129403 185.946564 
L 273.294523 184.78572 
L 274.676675 183.882841 
L 276.892688 181.238695 
L 279.56561 179.303954 
L 279.828333 178.788023 
L 280.685039 178.272092 
L 281.336136 177.562687 
L 282.958166 176.595317 
L 285.391211 174.40261 
L 285.825275 174.209136 
L 287.55011 173.628714 
L 288.246897 172.790326 
L 289.149294 172.209904 
L 290.302991 170.855585 
L 292.233435 169.565758 
L 292.941646 168.920845 
L 294.380912 168.340422 
L 295.408959 167.631017 
L 295.671682 167.244069 
L 296.060055 166.921612 
L 296.551233 166.728138 
L 297.944808 164.793397 
L 298.687287 164.47094 
L 300.343585 163.374587 
L 300.594886 162.600691 
L 301.565819 162.020269 
L 301.86281 161.633321 
L 302.582443 161.310864 
L 303.10789 160.472476 
L 306.340527 158.086296 
L 307.505647 157.634856 
L 308.68219 156.667486 
L 310.052919 155.764607 
L 311.115235 154.797236 
L 312.554501 154.02334 
L 315.318805 152.540038 
L 318.722783 149.573436 
L 319.293921 149.250979 
L 320.321968 148.477083 
L 322.972045 146.92929 
L 324.651189 146.026411 
L 325.507895 145.574971 
L 326.44456 144.865566 
L 328.557768 144.220653 
L 331.184999 143.124299 
L 331.424877 142.866334 
L 331.653332 142.866334 
L 333.229671 142.22142 
L 334.531864 141.25405 
L 335.399993 141.060576 
L 336.016821 140.609136 
L 337.650274 139.899731 
L 339.180922 138.480921 
L 339.557872 138.287447 
L 342.733396 137.384568 
L 344.983677 136.03025 
L 348.753183 133.966526 
L 349.57562 133.902035 
L 351.151959 132.805681 
L 352.534112 132.160768 
L 356.417845 129.516622 
L 359.147882 128.742726 
L 359.399182 128.742726 
L 360.107392 128.48476 
L 361.900763 127.130441 
L 363.271493 126.485528 
L 364.231004 125.905106 
L 365.224782 125.066718 
L 366.241407 124.550787 
L 367.463641 123.776891 
L 368.880061 123.389942 
L 369.828149 122.680537 
L 370.467823 122.487063 
L 371.690057 121.648676 
L 373.334932 120.745797 
L 383.455485 117.908177 
L 384.39215 117.456737 
L 385.420197 117.13428 
L 386.505358 116.553858 
L 388.561453 116.16691 
L 389.018362 116.037927 
L 389.5895 116.037927 
L 390.594701 115.779962 
L 391.896894 115.135048 
L 393.850184 114.941574 
L 396.534529 114.038695 
L 398.053754 113.780729 
L 398.419282 113.522764 
L 401.286392 112.426411 
L 403.845087 111.717006 
L 405.055898 111.201075 
L 405.85549 111.136583 
L 406.3124 110.814127 
L 409.716378 109.653282 
L 411.109953 109.330825 
L 411.338408 109.137351 
L 413.919949 108.105489 
L 415.896084 107.267102 
L 417.266813 107.073628 
L 417.769414 106.880154 
L 418.420511 106.880154 
L 419.654167 106.686679 
L 419.894045 106.493205 
L 421.596034 106.299731 
L 422.658349 105.7838 
L 424.109038 105.7838 
L 426.747692 105.138887 
L 427.421634 105.074395 
L 431.339636 104.107025 
L 436.411336 102.494741 
L 437.233773 102.43025 
L 438.855803 102.107793 
L 439.541168 101.720845 
L 441.311694 101.333896 
L 442.54535 100.817965 
L 443.676202 100.624491 
L 445.835101 99.915086 
L 446.977376 99.399155 
L 447.571358 98.947716 
L 448.942088 98.68975 
L 450.084363 98.17382 
L 453.088545 97.915854 
L 461.689872 96.30357 
L 463.586048 95.787639 
L 464.477022 95.594165 
L 465.162387 95.594165 
L 467.081409 95.271708 
L 467.595432 95.078234 
L 470.553923 94.304338 
L 472.507213 94.175355 
L 474.11782 93.788407 
L 474.506193 93.788407 
L 475.100176 93.659424 
L 479.006755 93.143493 
L 480.708745 92.885528 
L 484.581055 92.369597 
L 485.47203 92.176123 
L 485.780444 91.982649 
L 487.208287 91.660192 
L 488.247757 91.531209 
L 491.274785 90.499347 
L 493.330879 90.241382 
L 495.524046 90.176891 
L 496.814816 89.983417 
L 499.373512 89.531977 
L 500.44725 89.145029 
L 502.023589 88.693589 
L 502.90314 88.693589 
L 506.307118 87.984184 
L 506.592687 87.984184 
L 507.883457 87.532745 
L 509.722519 87.403762 
L 511.230322 87.016814 
L 511.447354 87.016814 
L 514.83991 86.242917 
L 516.187794 85.855969 
L 517.501409 85.855969 
L 518.723643 85.662495 
L 519.671731 85.469021 
L 520.551283 85.40453 
L 526.456842 84.308177 
L 532.579434 83.598772 
L 532.933539 83.405298 
L 535.583616 83.211823 
L 536.166176 82.953858 
L 536.80585 82.953858 
L 538.073775 82.695893 
L 541.843281 81.599539 
L 542.734255 81.406065 
L 543.065515 81.212591 
L 544.995959 80.890134 
L 555.265008 79.342342 
L 557.22972 79.27785 
L 557.321102 79.213359 
L 558.040735 78.955393 
L 558.886018 78.826411 
L 560.325284 78.503954 
L 561.547518 78.31048 
L 563.832067 77.85904 
L 566.207998 77.665566 
L 566.664908 77.472092 
L 567.567305 77.407601 
L 569.394945 77.020653 
L 570.799942 76.956161 
L 572.947419 76.569213 
L 573.804124 76.504722 
L 574.523757 76.375739 
L 578.807287 76.053282 
L 580.098058 75.924299 
L 580.646349 75.924299 
L 585.638089 75.343877 
L 586.037885 75.279386 
L 587.374347 75.02142 
L 588.505199 75.02142 
L 588.665117 74.827946 
L 589.933042 74.763455 
L 590.435643 74.698964 
L 591.509381 74.634472 
L 592.4232 74.376507 
L 592.708769 74.376507 
L 592.75446 74.247524 
L 594.170881 74.183033 
L 594.662059 74.05405 
L 595.198928 73.989559 
L 595.724374 73.989559 
L 596.147016 73.860576 
L 596.226975 73.860576 
L 596.364048 73.731593 
L 596.70673 73.667102 
L 596.969453 73.538119 
L 597.689086 73.473628 
L 598.008923 73.344645 
L 598.854206 73.280154 
L 599.11693 73.215662 
L 599.893676 73.151171 
L 600.122131 73.086679 
L 600.99026 73.022188 
L 601.298674 72.957697 
L 602.258185 72.893205 
L 602.532331 72.828714 
L 603.229118 72.764223 
L 603.845946 72.570749 
L 604.873994 72.506257 
L 605.056758 72.441766 
L 605.707854 72.377274 
L 605.879195 72.248292 
L 606.484601 72.1838 
L 606.793015 72.119309 
L 606.952933 72.054818 
L 606.952933 71.990326 
L 606.998624 71.990326 
L 609.134678 71.925835 
L 609.500206 71.732361 
L 609.774352 71.667869 
L 610.002807 71.474395 
L 610.174148 71.409904 
L 610.322643 71.280921 
L 610.51683 71.21643 
L 610.631058 71.151939 
L 611.270731 71.087447 
L 611.464918 70.958464 
L 611.739064 70.893973 
L 612.058901 70.76499 
L 612.538656 70.700499 
L 612.538656 70.636008 
L 612.630038 70.636008 
L 613.372517 70.571516 
L 613.543858 70.507025 
L 613.692354 70.442534 
L 613.692354 70.378042 
L 613.772313 70.378042 
L 614.01219 70.313551 
L 614.160686 70.184568 
L 614.377718 70.120077 
L 614.411987 69.926603 
L 614.457677 69.926603 
L 615.702757 69.862111 
L 615.816984 69.733129 
L 615.83983 69.733129 
L 615.83983 69.668637 
L 615.988325 69.539655 
L 616.068285 69.475163 
L 616.159667 69.34618 
L 616.388122 69.281689 
L 616.479504 69.217198 
L 616.993527 69.152706 
L 617.107755 69.088215 
L 617.267673 69.023724 
L 617.370478 68.959232 
L 617.541819 68.894741 
L 617.621778 68.765758 
L 617.975883 68.701267 
L 618.078688 68.636775 
L 618.215761 68.572284 
L 618.261452 68.443301 
L 618.29572 68.443301 
L 618.718362 68.37881 
L 618.844012 68.249827 
L 619.038199 68.249827 
L 619.163849 68.120845 
L 619.278076 68.120845 
L 619.278076 68.056353 
L 619.392304 67.92737 
L 619.506531 67.862879 
L 619.643604 67.669405 
L 619.929173 67.604914 
L 619.952018 67.540422 
L 620.797302 67.475931 
L 620.934374 67.41144 
L 621.448398 67.346948 
L 621.53978 67.282457 
L 621.733967 67.217965 
L 621.733967 67.153474 
L 621.813926 67.153474 
L 622.57925 67.088983 
L 622.636364 66.96 
L 622.636364 66.96 
" clip-path="url(#p6c965b0a53)" style="fill: none; stroke: #d62728; stroke-width: 2; stroke-linecap: square"/>
   </g>
   <g id="line2d_17">
    <path d="M 115.363636 369.36 
L 115.786012 367.413637 
L 116.37962 365.986303 
L 117.521175 363.975061 
L 118.423003 362.937001 
L 118.948119 362.677486 
L 119.8157 361.250152 
L 120.12392 360.471607 
L 121.733512 358.20085 
L 122.852236 356.05985 
L 123.674156 354.048608 
L 124.256349 353.529577 
L 126.345394 350.480275 
L 127.589689 348.404154 
L 128.879646 346.782184 
L 130.660471 344.251912 
L 133.171892 341.007973 
L 138.263227 333.611791 
L 140.751816 330.238095 
L 143.114835 327.383428 
L 144.89566 325.047792 
L 145.660502 323.55558 
L 147.395665 321.674096 
L 152.315767 314.732066 
L 153.788373 312.201794 
L 155.808925 309.476885 
L 160.146833 303.378279 
L 161.391128 301.367037 
L 163.046382 299.031401 
L 164.941363 297.214795 
L 166.619449 295.917219 
L 169.165116 292.738159 
L 171.710784 289.234705 
L 174.97563 285.666372 
L 175.637732 284.498554 
L 178.366048 281.189736 
L 180.626327 279.178494 
L 186.745061 271.328161 
L 187.783876 269.316919 
L 189.484793 267.500313 
L 189.838675 267.435434 
L 191.037307 266.462253 
L 194.838685 261.336829 
L 195.911746 260.75292 
L 197.601248 259.001193 
L 198.560154 258.287526 
L 200.512212 256.211405 
L 202.23596 254.070405 
L 203.708566 252.448436 
L 205.03277 251.540133 
L 205.77478 250.891345 
L 207.33871 248.880103 
L 208.240539 248.101558 
L 209.153783 247.063497 
L 211.80219 245.182012 
L 214.153793 242.327346 
L 214.850141 241.743437 
L 216.094436 240.380983 
L 216.528227 239.732195 
L 218.172066 238.629256 
L 219.382114 237.591195 
L 220.797642 235.644832 
L 224.382124 231.622347 
L 224.793084 230.908681 
L 226.037379 230.259893 
L 226.745143 229.416469 
L 229.416381 226.626681 
L 230.580767 225.783257 
L 231.105882 225.58862 
L 231.756569 224.615439 
L 233.263421 223.382742 
L 234.930091 221.825651 
L 235.603608 221.3715 
L 238.377587 216.959743 
L 240.774852 215.337773 
L 242.007731 214.753864 
L 242.589924 214.299713 
L 245.226916 210.990895 
L 247.19039 208.979652 
L 248.286283 208.265986 
L 248.65158 207.811834 
L 249.656149 207.098168 
L 250.272588 206.44938 
L 250.580808 205.865471 
L 252.236062 203.983986 
L 253.206384 203.205441 
L 254.850223 201.713229 
L 255.375338 201.453714 
L 258.400459 199.50735 
L 259.599091 198.080017 
L 262.475809 195.419987 
L 263.468962 195.030714 
L 264.176726 194.317048 
L 264.462115 194.252169 
L 265.29545 193.473624 
L 266.973536 191.52726 
L 267.692715 190.4892 
L 269.302307 188.802351 
L 271.208704 187.634533 
L 272.704141 186.661352 
L 274.747524 185.104261 
L 275.249808 184.844746 
L 276.893647 183.482291 
L 278.605979 182.379352 
L 279.005524 181.990079 
L 280.044339 181.600807 
L 281.231556 180.692504 
L 282.121968 180.627625 
L 283.731561 179.719322 
L 284.039781 179.330049 
L 285.055764 179.005655 
L 285.352569 178.616383 
L 285.854853 178.551504 
L 287.795496 177.513443 
L 289.405088 176.540262 
L 290.523812 175.56708 
L 291.242992 174.788535 
L 291.962171 174.464141 
L 293.377699 173.296323 
L 295.569484 171.804111 
L 297.96675 170.052384 
L 304.416535 166.224536 
L 305.306947 165.316233 
L 305.695076 165.251354 
L 306.8138 164.213293 
L 307.738459 163.629384 
L 308.720196 163.240112 
L 309.176818 162.721081 
L 310.192802 162.007415 
L 311.060384 161.618142 
L 311.779563 161.553263 
L 312.841209 160.839597 
L 313.138014 160.320566 
L 314.211075 159.022991 
L 316.311536 157.855173 
L 316.574094 157.530779 
L 318.058115 156.881991 
L 318.811541 156.557597 
L 320.215654 155.195143 
L 321.619766 154.676112 
L 323.366345 153.702931 
L 325.170002 151.951204 
L 327.510189 151.042901 
L 329.176859 150.134598 
L 330.078687 149.420931 
L 330.797867 149.096537 
L 333.800156 147.928719 
L 334.313856 147.474568 
L 334.496505 147.150174 
L 335.204269 146.436507 
L 335.877786 145.917477 
L 336.859523 145.333568 
L 340.02163 143.322326 
L 341.711131 142.608659 
L 342.590129 141.765235 
L 343.97141 141.375962 
L 344.633512 140.792053 
L 346.026209 139.88375 
L 346.562739 139.299841 
L 348.446305 138.391538 
L 349.1769 138.067144 
L 349.416627 137.807629 
L 352.350423 136.964205 
L 352.647227 136.834448 
L 354.79335 135.536872 
L 355.957736 135.212478 
L 356.631253 134.56369 
L 359.325323 133.395872 
L 360.135827 133.266115 
L 363.457751 131.773903 
L 364.530813 131.125115 
L 365.284239 130.476327 
L 366.288807 130.151933 
L 368.252282 129.308509 
L 369.165525 129.113873 
L 370.181509 128.529964 
L 371.802517 128.075812 
L 372.110737 128.010933 
L 377.190656 126.129449 
L 377.521707 125.805055 
L 379.382441 125.156267 
L 380.718061 124.637237 
L 381.996602 124.183085 
L 382.453224 124.118206 
L 386.003459 122.950388 
L 389.199813 121.393298 
L 389.782006 121.26354 
L 390.295706 120.939146 
L 391.380183 120.614752 
L 393.937266 119.576692 
L 394.462381 119.511813 
L 397.350515 118.408874 
L 399.291158 117.305934 
L 400.421297 117.111298 
L 404.576557 115.813722 
L 406.597109 115.42445 
L 408.206701 114.970298 
L 411.631366 113.672723 
L 415.832288 112.76442 
L 416.311741 112.699541 
L 417.670191 112.180511 
L 418.400786 112.115632 
L 420.375676 111.337086 
L 422.95559 110.493662 
L 429.188479 109.066329 
L 430.432774 108.612178 
L 431.003552 108.547299 
L 437.019546 107.055087 
L 437.407674 106.860451 
L 439.59946 106.276542 
L 441.209052 105.887269 
L 442.499009 105.82239 
L 442.670242 105.692632 
L 447.327786 104.524814 
L 448.457925 104.200421 
L 449.451078 104.070663 
L 450.432815 103.746269 
L 451.391721 103.551633 
L 452.601769 103.486754 
L 453.320949 103.032602 
L 454.017297 102.967724 
L 454.80497 102.64333 
L 458.34379 101.929663 
L 458.891736 101.345754 
L 459.439683 101.345754 
L 460.432835 101.151118 
L 461.871195 100.50233 
L 463.75476 100.437451 
L 466.928283 99.594027 
L 467.613215 99.464269 
L 468.298148 99.139876 
L 471.277606 98.036936 
L 472.693135 97.972057 
L 481.414614 96.414967 
L 483.857541 96.22033 
L 486.55161 95.766179 
L 489.177186 94.857876 
L 492.145229 94.468603 
L 494.005963 94.079331 
L 494.462585 93.819815 
L 494.850714 93.819815 
L 496.757111 93.495422 
L 497.738848 93.430543 
L 500.044789 92.846634 
L 501.163512 92.457361 
L 501.83703 92.262725 
L 505.547083 91.938331 
L 506.985442 90.965149 
L 508.343892 90.575876 
L 510.238873 90.446119 
L 511.802804 90.056846 
L 513.138423 89.991967 
L 513.537967 89.86221 
L 514.782262 89.602695 
L 515.421532 89.34318 
L 516.654412 89.083664 
L 518.149849 88.889028 
L 520.752594 88.305119 
L 525.501462 86.942665 
L 526.722925 86.942665 
L 533.560839 85.450453 
L 536.015182 85.190938 
L 537.053997 84.996301 
L 538.286876 84.801665 
L 539.268613 84.412392 
L 540.86679 84.152877 
L 542.727524 83.698726 
L 544.177299 83.633847 
L 544.394194 83.568968 
L 546.677304 83.244574 
L 547.476393 82.985059 
L 550.090553 82.660665 
L 551.631652 82.206514 
L 555.101979 82.011877 
L 555.786912 81.687483 
L 557.784633 81.363089 
L 558.515228 81.103574 
L 559.496965 81.038696 
L 561.369115 80.584544 
L 569.48557 79.611362 
L 569.576894 79.481605 
L 572.054068 79.027453 
L 573.686492 78.962575 
L 573.971881 78.832817 
L 574.679645 78.703059 
L 576.848599 78.248908 
L 581.175092 77.794756 
L 581.186507 77.729878 
L 584.691081 77.405484 
L 585.284689 77.145969 
L 586.152271 77.08109 
L 586.791541 77.08109 
L 589.165976 76.56206 
L 590.022142 76.497181 
L 590.684243 76.432302 
L 591.186528 76.367423 
L 592.305251 76.107908 
L 593.195664 75.978151 
L 594.348635 75.978151 
L 594.588361 75.848393 
L 596.015305 75.588878 
L 596.597498 75.523999 
L 597.248184 75.329363 
L 599.417138 75.264484 
L 599.942253 75.069848 
L 600.752757 75.069848 
L 600.912575 74.94009 
L 601.289288 74.875211 
L 601.460521 74.810333 
L 601.757325 74.745454 
L 602.099792 74.615696 
L 602.773309 74.550817 
L 602.818971 74.485939 
L 603.2071 74.42106 
L 603.846371 74.356181 
L 603.892033 74.356181 
L 604.108928 74.161545 
L 605.410301 74.096666 
L 605.513041 74.031787 
L 605.615781 74.031787 
L 605.69569 73.90203 
L 606.106649 73.837151 
L 606.380623 73.772272 
L 606.894322 73.707393 
L 607.122633 73.577636 
L 607.761904 73.512757 
L 607.898891 73.382999 
L 608.058708 73.318121 
L 608.435421 73.253242 
L 608.709395 73.188363 
L 608.914874 73.058605 
L 609.428574 72.993727 
L 609.691132 72.928848 
L 610.729947 72.863969 
L 610.90118 72.79909 
L 611.140906 72.734212 
L 611.277893 72.669333 
L 611.631775 72.604454 
L 611.894333 72.409818 
L 612.15689 72.344939 
L 612.282461 72.215181 
L 612.659174 72.150303 
L 612.77333 72.085424 
L 612.830408 72.085424 
L 612.933147 71.890787 
L 613.401185 71.825909 
L 613.469678 71.696151 
L 613.503925 71.696151 
L 613.549587 71.631272 
L 613.686574 71.501515 
L 613.732236 71.501515 
L 613.960547 71.112242 
L 614.497078 71.047363 
L 614.588402 70.917606 
L 614.9537 70.852727 
L 615.033608 70.787848 
L 615.547308 70.722969 
L 615.672879 70.658091 
L 615.764203 70.658091 
L 615.764203 70.528333 
L 615.832697 70.528333 
L 616.038177 70.528333 
L 616.038177 70.463454 
L 616.163748 70.333697 
L 616.483383 70.268818 
L 616.529045 70.13906 
L 616.586123 70.13906 
L 617.168316 70.074182 
L 617.202563 69.879545 
L 617.248225 69.879545 
L 617.476536 69.879545 
L 617.613522 69.62003 
L 617.796171 69.555151 
L 617.921742 69.555151 
L 617.921742 69.490272 
L 618.28704 69.230757 
L 618.663753 69.165879 
L 618.812155 68.906363 
L 619.177452 68.841485 
L 619.177452 68.776606 
L 619.268777 68.776606 
L 619.428595 68.711727 
L 619.679737 68.452212 
L 619.862385 68.387333 
L 620.033619 68.322454 
L 620.147774 68.257576 
L 620.341838 67.998061 
L 620.764214 67.933182 
L 620.935447 67.673667 
L 621.392069 67.608788 
L 621.392069 67.543909 
L 621.494809 67.543909 
L 621.677458 67.47903 
L 621.768782 67.349273 
L 622.453715 67.349273 
L 622.453715 67.284394 
L 622.636364 66.96 
L 622.636364 66.96 
" clip-path="url(#p6c965b0a53)" style="fill: none; stroke: #9467bd; stroke-width: 2; stroke-linecap: square"/>
   </g>
   <g id="line2d_18">
    <path d="M 115.363636 369.36 
L 622.636364 66.96 
" clip-path="url(#p6c965b0a53)" style="fill: none; stroke-dasharray: 7.4,3.2; stroke-dashoffset: 0; stroke: #000080; stroke-width: 2"/>
   </g>
   <g id="patch_3">
    <path d="M 90 384.48 
L 90 51.84 
" style="fill: none; stroke: #000000; stroke-width: 0.8; stroke-linejoin: miter; stroke-linecap: square"/>
   </g>
   <g id="patch_4">
    <path d="M 648 384.48 
L 648 51.84 
" style="fill: none; stroke: #000000; stroke-width: 0.8; stroke-linejoin: miter; stroke-linecap: square"/>
   </g>
   <g id="patch_5">
    <path d="M 90 384.48 
L 648 384.48 
" style="fill: none; stroke: #000000; stroke-width: 0.8; stroke-linejoin: miter; stroke-linecap: square"/>
   </g>
   <g id="patch_6">
    <path d="M 90 51.84 
L 648 51.84 
" style="fill: none; stroke: #000000; stroke-width: 0.8; stroke-linejoin: miter; stroke-linecap: square"/>
   </g>
   <g id="text_15">
    <!-- ROC Curve - Tous les folds -->
    <g transform="translate(290.40375 45.84) scale(0.12 -0.12)">
     <defs>
      <path id="DejaVuSans-52" d="M 2841 2188 
Q 3044 2119 3236 1894 
Q 3428 1669 3622 1275 
L 4263 0 
L 3584 0 
L 2988 1197 
Q 2756 1666 2539 1819 
Q 2322 1972 1947 1972 
L 1259 1972 
L 1259 0 
L 628 0 
L 628 4666 
L 2053 4666 
Q 2853 4666 3247 4331 
Q 3641 3997 3641 3322 
Q 3641 2881 3436 2590 
Q 3231 2300 2841 2188 
z
M 1259 4147 
L 1259 2491 
L 2053 2491 
Q 2509 2491 2742 2702 
Q 2975 2913 2975 3322 
Q 2975 3731 2742 3939 
Q 2509 4147 2053 4147 
L 1259 4147 
z
" transform="scale(0.015625)"/>
      <path id="DejaVuSans-4f" d="M 2522 4238 
Q 1834 4238 1429 3725 
Q 1025 3213 1025 2328 
Q 1025 1447 1429 934 
Q 1834 422 2522 422 
Q 3209 422 3611 934 
Q 4013 1447 4013 2328 
Q 4013 3213 3611 3725 
Q 3209 4238 2522 4238 
z
M 2522 4750 
Q 3503 4750 4090 4092 
Q 4678 3434 4678 2328 
Q 4678 1225 4090 567 
Q 3503 -91 2522 -91 
Q 1538 -91 948 565 
Q 359 1222 359 2328 
Q 359 3434 948 4092 
Q 1538 4750 2522 4750 
z
" transform="scale(0.015625)"/>
      <path id="DejaVuSans-43" d="M 4122 4306 
L 4122 3641 
Q 3803 3938 3442 4084 
Q 3081 4231 2675 4231 
Q 1875 4231 1450 3742 
Q 1025 3253 1025 2328 
Q 1025 1406 1450 917 
Q 1875 428 2675 428 
Q 3081 428 3442 575 
Q 3803 722 4122 1019 
L 4122 359 
Q 3791 134 3420 21 
Q 3050 -91 2638 -91 
Q 1578 -91 968 557 
Q 359 1206 359 2328 
Q 359 3453 968 4101 
Q 1578 4750 2638 4750 
Q 3056 4750 3426 4639 
Q 3797 4528 4122 4306 
z
" transform="scale(0.015625)"/>
      <path id="DejaVuSans-65" d="M 3597 1894 
L 3597 1613 
L 953 1613 
Q 991 1019 1311 708 
Q 1631 397 2203 397 
Q 2534 397 2845 478 
Q 3156 559 3463 722 
L 3463 178 
Q 3153 47 2828 -22 
Q 2503 -91 2169 -91 
Q 1331 -91 842 396 
Q 353 884 353 1716 
Q 353 2575 817 3079 
Q 1281 3584 2069 3584 
Q 2775 3584 3186 3129 
Q 3597 2675 3597 1894 
z
M 3022 2063 
Q 3016 2534 2758 2815 
Q 2500 3097 2075 3097 
Q 1594 3097 1305 2825 
Q 1016 2553 972 2059 
L 3022 2063 
z
" transform="scale(0.015625)"/>
      <path id="DejaVuSans-2d" d="M 313 2009 
L 1997 2009 
L 1997 1497 
L 313 1497 
L 313 2009 
z
" transform="scale(0.015625)"/>
      <path id="DejaVuSans-6c" d="M 603 4863 
L 1178 4863 
L 1178 0 
L 603 0 
L 603 4863 
z
" transform="scale(0.015625)"/>
      <path id="DejaVuSans-64" d="M 2906 2969 
L 2906 4863 
L 3481 4863 
L 3481 0 
L 2906 0 
L 2906 525 
Q 2725 213 2448 61 
Q 2172 -91 1784 -91 
Q 1150 -91 751 415 
Q 353 922 353 1747 
Q 353 2572 751 3078 
Q 1150 3584 1784 3584 
Q 2172 3584 2448 3432 
Q 2725 3281 2906 2969 
z
M 947 1747 
Q 947 1113 1208 752 
Q 1469 391 1925 391 
Q 2381 391 2643 752 
Q 2906 1113 2906 1747 
Q 2906 2381 2643 2742 
Q 2381 3103 1925 3103 
Q 1469 3103 1208 2742 
Q 947 2381 947 1747 
z
" transform="scale(0.015625)"/>
     </defs>
     <use xlink:href="#DejaVuSans-52"/>
     <use xlink:href="#DejaVuSans-4f" x="69.482422"/>
     <use xlink:href="#DejaVuSans-43" x="148.193359"/>
     <use xlink:href="#DejaVuSans-20" x="218.017578"/>
     <use xlink:href="#DejaVuSans-43" x="249.804688"/>
     <use xlink:href="#DejaVuSans-75" x="319.628906"/>
     <use xlink:href="#DejaVuSans-72" x="383.007812"/>
     <use xlink:href="#DejaVuSans-76" x="424.121094"/>
     <use xlink:href="#DejaVuSans-65" x="483.300781"/>
     <use xlink:href="#DejaVuSans-20" x="544.824219"/>
     <use xlink:href="#DejaVuSans-2d" x="576.611328"/>
     <use xlink:href="#DejaVuSans-20" x="612.695312"/>
     <use xlink:href="#DejaVuSans-54" x="644.482422"/>
     <use xlink:href="#DejaVuSans-6f" x="688.566406"/>
     <use xlink:href="#DejaVuSans-75" x="749.748047"/>
     <use xlink:href="#DejaVuSans-73" x="813.126953"/>
     <use xlink:href="#DejaVuSans-20" x="865.226562"/>
     <use xlink:href="#DejaVuSans-6c" x="897.013672"/>
     <use xlink:href="#DejaVuSans-65" x="924.796875"/>
     <use xlink:href="#DejaVuSans-73" x="986.320312"/>
     <use xlink:href="#DejaVuSans-20" x="1038.419922"/>
     <use xlink:href="#DejaVuSans-66" x="1070.207031"/>
     <use xlink:href="#DejaVuSans-6f" x="1105.412109"/>
     <use xlink:href="#DejaVuSans-6c" x="1166.59375"/>
     <use xlink:href="#DejaVuSans-64" x="1194.376953"/>
     <use xlink:href="#DejaVuSans-73" x="1257.853516"/>
    </g>
   </g>
   <g id="legend_1">
    <g id="patch_7">
     <path d="M 509.7 379.48 
L 641 379.48 
Q 643 379.48 643 377.48 
L 643 305.089375 
Q 643 303.089375 641 303.089375 
L 509.7 303.089375 
Q 507.7 303.089375 507.7 305.089375 
L 507.7 377.48 
Q 507.7 379.48 509.7 379.48 
z
" style="fill: #ffffff; opacity: 0.8; stroke: #cccccc; stroke-linejoin: miter"/>
    </g>
    <g id="line2d_19">
     <path d="M 511.7 311.187813 
L 521.7 311.187813 
L 531.7 311.187813 
" style="fill: none; stroke: #1f77b4; stroke-width: 2; stroke-linecap: square"/>
    </g>
    <g id="text_16">
     <!-- Fold 1 (AUC = 0.69) -->
     <g transform="translate(539.7 314.687813) scale(0.1 -0.1)">
      <defs>
       <path id="DejaVuSans-46" d="M 628 4666 
L 3309 4666 
L 3309 4134 
L 1259 4134 
L 1259 2759 
L 3109 2759 
L 3109 2228 
L 1259 2228 
L 1259 0 
L 628 0 
L 628 4666 
z
" transform="scale(0.015625)"/>
       <path id="DejaVuSans-28" d="M 1984 4856 
Q 1566 4138 1362 3434 
Q 1159 2731 1159 2009 
Q 1159 1288 1364 580 
Q 1569 -128 1984 -844 
L 1484 -844 
Q 1016 -109 783 600 
Q 550 1309 550 2009 
Q 550 2706 781 3412 
Q 1013 4119 1484 4856 
L 1984 4856 
z
" transform="scale(0.015625)"/>
       <path id="DejaVuSans-41" d="M 2188 4044 
L 1331 1722 
L 3047 1722 
L 2188 4044 
z
M 1831 4666 
L 2547 4666 
L 4325 0 
L 3669 0 
L 3244 1197 
L 1141 1197 
L 716 0 
L 50 0 
L 1831 4666 
z
" transform="scale(0.015625)"/>
       <path id="DejaVuSans-55" d="M 556 4666 
L 1191 4666 
L 1191 1831 
Q 1191 1081 1462 751 
Q 1734 422 2344 422 
Q 2950 422 3222 751 
Q 3494 1081 3494 1831 
L 3494 4666 
L 4128 4666 
L 4128 1753 
Q 4128 841 3676 375 
Q 3225 -91 2344 -91 
Q 1459 -91 1007 375 
Q 556 841 556 1753 
L 556 4666 
z
" transform="scale(0.015625)"/>
       <path id="DejaVuSans-3d" d="M 678 2906 
L 4684 2906 
L 4684 2381 
L 678 2381 
L 678 2906 
z
M 678 1631 
L 4684 1631 
L 4684 1100 
L 678 1100 
L 678 1631 
z
" transform="scale(0.015625)"/>
       <path id="DejaVuSans-39" d="M 703 97 
L 703 672 
Q 941 559 1184 500 
Q 1428 441 1663 441 
Q 2288 441 2617 861 
Q 2947 1281 2994 2138 
Q 2813 1869 2534 1725 
Q 2256 1581 1919 1581 
Q 1219 1581 811 2004 
Q 403 2428 403 3163 
Q 403 3881 828 4315 
Q 1253 4750 1959 4750 
Q 2769 4750 3195 4129 
Q 3622 3509 3622 2328 
Q 3622 1225 3098 567 
Q 2575 -91 1691 -91 
Q 1453 -91 1209 -44 
Q 966 3 703 97 
z
M 1959 2075 
Q 2384 2075 2632 2365 
Q 2881 2656 2881 3163 
Q 2881 3666 2632 3958 
Q 2384 4250 1959 4250 
Q 1534 4250 1286 3958 
Q 1038 3666 1038 3163 
Q 1038 2656 1286 2365 
Q 1534 2075 1959 2075 
z
" transform="scale(0.015625)"/>
       <path id="DejaVuSans-29" d="M 513 4856 
L 1013 4856 
Q 1481 4119 1714 3412 
Q 1947 2706 1947 2009 
Q 1947 1309 1714 600 
Q 1481 -109 1013 -844 
L 513 -844 
Q 928 -128 1133 580 
Q 1338 1288 1338 2009 
Q 1338 2731 1133 3434 
Q 928 4138 513 4856 
z
" transform="scale(0.015625)"/>
      </defs>
      <use xlink:href="#DejaVuSans-46"/>
      <use xlink:href="#DejaVuSans-6f" x="53.894531"/>
      <use xlink:href="#DejaVuSans-6c" x="115.076172"/>
      <use xlink:href="#DejaVuSans-64" x="142.859375"/>
      <use xlink:href="#DejaVuSans-20" x="206.335938"/>
      <use xlink:href="#DejaVuSans-31" x="238.123047"/>
      <use xlink:href="#DejaVuSans-20" x="301.746094"/>
      <use xlink:href="#DejaVuSans-28" x="333.533203"/>
      <use xlink:href="#DejaVuSans-41" x="372.546875"/>
      <use xlink:href="#DejaVuSans-55" x="440.955078"/>
      <use xlink:href="#DejaVuSans-43" x="514.148438"/>
      <use xlink:href="#DejaVuSans-20" x="583.972656"/>
      <use xlink:href="#DejaVuSans-3d" x="615.759766"/>
      <use xlink:href="#DejaVuSans-20" x="699.548828"/>
      <use xlink:href="#DejaVuSans-30" x="731.335938"/>
      <use xlink:href="#DejaVuSans-2e" x="794.958984"/>
      <use xlink:href="#DejaVuSans-36" x="826.746094"/>
      <use xlink:href="#DejaVuSans-39" x="890.369141"/>
      <use xlink:href="#DejaVuSans-29" x="953.992188"/>
     </g>
    </g>
    <g id="line2d_20">
     <path d="M 511.7 325.865937 
L 521.7 325.865937 
L 531.7 325.865937 
" style="fill: none; stroke: #ff7f0e; stroke-width: 2; stroke-linecap: square"/>
    </g>
    <g id="text_17">
     <!-- Fold 2 (AUC = 0.70) -->
     <g transform="translate(539.7 329.365937) scale(0.1 -0.1)">
      <defs>
       <path id="DejaVuSans-37" d="M 525 4666 
L 3525 4666 
L 3525 4397 
L 1831 0 
L 1172 0 
L 2766 4134 
L 525 4134 
L 525 4666 
z
" transform="scale(0.015625)"/>
      </defs>
      <use xlink:href="#DejaVuSans-46"/>
      <use xlink:href="#DejaVuSans-6f" x="53.894531"/>
      <use xlink:href="#DejaVuSans-6c" x="115.076172"/>
      <use xlink:href="#DejaVuSans-64" x="142.859375"/>
      <use xlink:href="#DejaVuSans-20" x="206.335938"/>
      <use xlink:href="#DejaVuSans-32" x="238.123047"/>
      <use xlink:href="#DejaVuSans-20" x="301.746094"/>
      <use xlink:href="#DejaVuSans-28" x="333.533203"/>
      <use xlink:href="#DejaVuSans-41" x="372.546875"/>
      <use xlink:href="#DejaVuSans-55" x="440.955078"/>
      <use xlink:href="#DejaVuSans-43" x="514.148438"/>
      <use xlink:href="#DejaVuSans-20" x="583.972656"/>
      <use xlink:href="#DejaVuSans-3d" x="615.759766"/>
      <use xlink:href="#DejaVuSans-20" x="699.548828"/>
      <use xlink:href="#DejaVuSans-30" x="731.335938"/>
      <use xlink:href="#DejaVuSans-2e" x="794.958984"/>
      <use xlink:href="#DejaVuSans-37" x="826.746094"/>
      <use xlink:href="#DejaVuSans-30" x="890.369141"/>
      <use xlink:href="#DejaVuSans-29" x="953.992188"/>
     </g>
    </g>
    <g id="line2d_21">
     <path d="M 511.7 340.544062 
L 521.7 340.544062 
L 531.7 340.544062 
" style="fill: none; stroke: #2ca02c; stroke-width: 2; stroke-linecap: square"/>
    </g>
    <g id="text_18">
     <!-- Fold 3 (AUC = 0.69) -->
     <g transform="translate(539.7 344.044062) scale(0.1 -0.1)">
      <defs>
       <path id="DejaVuSans-33" d="M 2597 2516 
Q 3050 2419 3304 2112 
Q 3559 1806 3559 1356 
Q 3559 666 3084 287 
Q 2609 -91 1734 -91 
Q 1441 -91 1130 -33 
Q 819 25 488 141 
L 488 750 
Q 750 597 1062 519 
Q 1375 441 1716 441 
Q 2309 441 2620 675 
Q 2931 909 2931 1356 
Q 2931 1769 2642 2001 
Q 2353 2234 1838 2234 
L 1294 2234 
L 1294 2753 
L 1863 2753 
Q 2328 2753 2575 2939 
Q 2822 3125 2822 3475 
Q 2822 3834 2567 4026 
Q 2313 4219 1838 4219 
Q 1578 4219 1281 4162 
Q 984 4106 628 3988 
L 628 4550 
Q 988 4650 1302 4700 
Q 1616 4750 1894 4750 
Q 2613 4750 3031 4423 
Q 3450 4097 3450 3541 
Q 3450 3153 3228 2886 
Q 3006 2619 2597 2516 
z
" transform="scale(0.015625)"/>
      </defs>
      <use xlink:href="#DejaVuSans-46"/>
      <use xlink:href="#DejaVuSans-6f" x="53.894531"/>
      <use xlink:href="#DejaVuSans-6c" x="115.076172"/>
      <use xlink:href="#DejaVuSans-64" x="142.859375"/>
      <use xlink:href="#DejaVuSans-20" x="206.335938"/>
      <use xlink:href="#DejaVuSans-33" x="238.123047"/>
      <use xlink:href="#DejaVuSans-20" x="301.746094"/>
      <use xlink:href="#DejaVuSans-28" x="333.533203"/>
      <use xlink:href="#DejaVuSans-41" x="372.546875"/>
      <use xlink:href="#DejaVuSans-55" x="440.955078"/>
      <use xlink:href="#DejaVuSans-43" x="514.148438"/>
      <use xlink:href="#DejaVuSans-20" x="583.972656"/>
      <use xlink:href="#DejaVuSans-3d" x="615.759766"/>
      <use xlink:href="#DejaVuSans-20" x="699.548828"/>
      <use xlink:href="#DejaVuSans-30" x="731.335938"/>
      <use xlink:href="#DejaVuSans-2e" x="794.958984"/>
      <use xlink:href="#DejaVuSans-36" x="826.746094"/>
      <use xlink:href="#DejaVuSans-39" x="890.369141"/>
      <use xlink:href="#DejaVuSans-29" x="953.992188"/>
     </g>
    </g>
    <g id="line2d_22">
     <path d="M 511.7 355.222188 
L 521.7 355.222188 
L 531.7 355.222188 
" style="fill: none; stroke: #d62728; stroke-width: 2; stroke-linecap: square"/>
    </g>
    <g id="text_19">
     <!-- Fold 4 (AUC = 0.70) -->
     <g transform="translate(539.7 358.722188) scale(0.1 -0.1)">
      <use xlink:href="#DejaVuSans-46"/>
      <use xlink:href="#DejaVuSans-6f" x="53.894531"/>
      <use xlink:href="#DejaVuSans-6c" x="115.076172"/>
      <use xlink:href="#DejaVuSans-64" x="142.859375"/>
      <use xlink:href="#DejaVuSans-20" x="206.335938"/>
      <use xlink:href="#DejaVuSans-34" x="238.123047"/>
      <use xlink:href="#DejaVuSans-20" x="301.746094"/>
      <use xlink:href="#DejaVuSans-28" x="333.533203"/>
      <use xlink:href="#DejaVuSans-41" x="372.546875"/>
      <use xlink:href="#DejaVuSans-55" x="440.955078"/>
      <use xlink:href="#DejaVuSans-43" x="514.148438"/>
      <use xlink:href="#DejaVuSans-20" x="583.972656"/>
      <use xlink:href="#DejaVuSans-3d" x="615.759766"/>
      <use xlink:href="#DejaVuSans-20" x="699.548828"/>
      <use xlink:href="#DejaVuSans-30" x="731.335938"/>
      <use xlink:href="#DejaVuSans-2e" x="794.958984"/>
      <use xlink:href="#DejaVuSans-37" x="826.746094"/>
      <use xlink:href="#DejaVuSans-30" x="890.369141"/>
      <use xlink:href="#DejaVuSans-29" x="953.992188"/>
     </g>
    </g>
    <g id="line2d_23">
     <path d="M 511.7 369.900313 
L 521.7 369.900313 
L 531.7 369.900313 
" style="fill: none; stroke: #9467bd; stroke-width: 2; stroke-linecap: square"/>
    </g>
    <g id="text_20">
     <!-- Fold 5 (AUC = 0.69) -->
     <g transform="translate(539.7 373.400313) scale(0.1 -0.1)">
      <defs>
       <path id="DejaVuSans-35" d="M 691 4666 
L 3169 4666 
L 3169 4134 
L 1269 4134 
L 1269 2991 
Q 1406 3038 1543 3061 
Q 1681 3084 1819 3084 
Q 2600 3084 3056 2656 
Q 3513 2228 3513 1497 
Q 3513 744 3044 326 
Q 2575 -91 1722 -91 
Q 1428 -91 1123 -41 
Q 819 9 494 109 
L 494 744 
Q 775 591 1075 516 
Q 1375 441 1709 441 
Q 2250 441 2565 725 
Q 2881 1009 2881 1497 
Q 2881 1984 2565 2268 
Q 2250 2553 1709 2553 
Q 1456 2553 1204 2497 
Q 953 2441 691 2322 
L 691 4666 
z
" transform="scale(0.015625)"/>
      </defs>
      <use xlink:href="#DejaVuSans-46"/>
      <use xlink:href="#DejaVuSans-6f" x="53.894531"/>
      <use xlink:href="#DejaVuSans-6c" x="115.076172"/>
      <use xlink:href="#DejaVuSans-64" x="142.859375"/>
      <use xlink:href="#DejaVuSans-20" x="206.335938"/>
      <use xlink:href="#DejaVuSans-35" x="238.123047"/>
      <use xlink:href="#DejaVuSans-20" x="301.746094"/>
      <use xlink:href="#DejaVuSans-28" x="333.533203"/>
      <use xlink:href="#DejaVuSans-41" x="372.546875"/>
      <use xlink:href="#DejaVuSans-55" x="440.955078"/>
      <use xlink:href="#DejaVuSans-43" x="514.148438"/>
      <use xlink:href="#DejaVuSans-20" x="583.972656"/>
      <use xlink:href="#DejaVuSans-3d" x="615.759766"/>
      <use xlink:href="#DejaVuSans-20" x="699.548828"/>
      <use xlink:href="#DejaVuSans-30" x="731.335938"/>
      <use xlink:href="#DejaVuSans-2e" x="794.958984"/>
      <use xlink:href="#DejaVuSans-36" x="826.746094"/>
      <use xlink:href="#DejaVuSans-39" x="890.369141"/>
      <use xlink:href="#DejaVuSans-29" x="953.992188"/>
     </g>
    </g>
   </g>
  </g>
 </g>
 <defs>
  <clipPath id="p6c965b0a53">
   <rect x="90" y="51.84" width="558" height="332.64"/>
  </clipPath>
 </defs>
</svg>
