<?xml version="1.0" encoding="utf-8" standalone="no"?>
<!DOCTYPE svg PUBLIC "-//W3C//DTD SVG 1.1//EN"
  "http://www.w3.org/Graphics/SVG/1.1/DTD/svg11.dtd">
<svg xmlns:xlink="http://www.w3.org/1999/xlink" width="720pt" height="432pt" viewBox="0 0 720 432" xmlns="http://www.w3.org/2000/svg" version="1.1">
 <metadata>
  <rdf:RDF xmlns:dc="http://purl.org/dc/elements/1.1/" xmlns:cc="http://creativecommons.org/ns#" xmlns:rdf="http://www.w3.org/1999/02/22-rdf-syntax-ns#">
   <cc:Work>
    <dc:type rdf:resource="http://purl.org/dc/dcmitype/StillImage"/>
    <dc:date>2024-11-17T18:19:58.897093</dc:date>
    <dc:format>image/svg+xml</dc:format>
    <dc:creator>
     <cc:Agent>
      <dc:title>Matplotlib v3.9.2, https://matplotlib.org/</dc:title>
     </cc:Agent>
    </dc:creator>
   </cc:Work>
  </rdf:RDF>
 </metadata>
 <defs>
  <style type="text/css">*{stroke-linejoin: round; stroke-linecap: butt}</style>
 </defs>
 <g id="figure_1">
  <g id="patch_1">
   <path d="M 0 432 
L 720 432 
L 720 0 
L 0 0 
z
" style="fill: #ffffff"/>
  </g>
  <g id="axes_1">
   <g id="patch_2">
    <path d="M 90 384.48 
L 648 384.48 
L 648 51.84 
L 90 51.84 
z
" style="fill: #ffffff"/>
   </g>
   <g id="matplotlib.axis_1">
    <g id="xtick_1">
     <g id="line2d_1">
      <defs>
       <path id="m9c92416169" d="M 0 0 
L 0 3.5 
" style="stroke: #000000; stroke-width: 0.8"/>
      </defs>
      <g>
       <use xlink:href="#m9c92416169" x="115.363636" y="384.48" style="stroke: #000000; stroke-width: 0.8"/>
      </g>
     </g>
     <g id="text_1">
      <!-- 0.0 -->
      <g transform="translate(107.412074 399.078438) scale(0.1 -0.1)">
       <defs>
        <path id="DejaVuSans-30" d="M 2034 4250 
Q 1547 4250 1301 3770 
Q 1056 3291 1056 2328 
Q 1056 1369 1301 889 
Q 1547 409 2034 409 
Q 2525 409 2770 889 
Q 3016 1369 3016 2328 
Q 3016 3291 2770 3770 
Q 2525 4250 2034 4250 
z
M 2034 4750 
Q 2819 4750 3233 4129 
Q 3647 3509 3647 2328 
Q 3647 1150 3233 529 
Q 2819 -91 2034 -91 
Q 1250 -91 836 529 
Q 422 1150 422 2328 
Q 422 3509 836 4129 
Q 1250 4750 2034 4750 
z
" transform="scale(0.015625)"/>
        <path id="DejaVuSans-2e" d="M 684 794 
L 1344 794 
L 1344 0 
L 684 0 
L 684 794 
z
" transform="scale(0.015625)"/>
       </defs>
       <use xlink:href="#DejaVuSans-30"/>
       <use xlink:href="#DejaVuSans-2e" x="63.623047"/>
       <use xlink:href="#DejaVuSans-30" x="95.410156"/>
      </g>
     </g>
    </g>
    <g id="xtick_2">
     <g id="line2d_2">
      <g>
       <use xlink:href="#m9c92416169" x="216.818182" y="384.48" style="stroke: #000000; stroke-width: 0.8"/>
      </g>
     </g>
     <g id="text_2">
      <!-- 0.2 -->
      <g transform="translate(208.866619 399.078438) scale(0.1 -0.1)">
       <defs>
        <path id="DejaVuSans-32" d="M 1228 531 
L 3431 531 
L 3431 0 
L 469 0 
L 469 531 
Q 828 903 1448 1529 
Q 2069 2156 2228 2338 
Q 2531 2678 2651 2914 
Q 2772 3150 2772 3378 
Q 2772 3750 2511 3984 
Q 2250 4219 1831 4219 
Q 1534 4219 1204 4116 
Q 875 4013 500 3803 
L 500 4441 
Q 881 4594 1212 4672 
Q 1544 4750 1819 4750 
Q 2544 4750 2975 4387 
Q 3406 4025 3406 3419 
Q 3406 3131 3298 2873 
Q 3191 2616 2906 2266 
Q 2828 2175 2409 1742 
Q 1991 1309 1228 531 
z
" transform="scale(0.015625)"/>
       </defs>
       <use xlink:href="#DejaVuSans-30"/>
       <use xlink:href="#DejaVuSans-2e" x="63.623047"/>
       <use xlink:href="#DejaVuSans-32" x="95.410156"/>
      </g>
     </g>
    </g>
    <g id="xtick_3">
     <g id="line2d_3">
      <g>
       <use xlink:href="#m9c92416169" x="318.272727" y="384.48" style="stroke: #000000; stroke-width: 0.8"/>
      </g>
     </g>
     <g id="text_3">
      <!-- 0.4 -->
      <g transform="translate(310.321165 399.078438) scale(0.1 -0.1)">
       <defs>
        <path id="DejaVuSans-34" d="M 2419 4116 
L 825 1625 
L 2419 1625 
L 2419 4116 
z
M 2253 4666 
L 3047 4666 
L 3047 1625 
L 3713 1625 
L 3713 1100 
L 3047 1100 
L 3047 0 
L 2419 0 
L 2419 1100 
L 313 1100 
L 313 1709 
L 2253 4666 
z
" transform="scale(0.015625)"/>
       </defs>
       <use xlink:href="#DejaVuSans-30"/>
       <use xlink:href="#DejaVuSans-2e" x="63.623047"/>
       <use xlink:href="#DejaVuSans-34" x="95.410156"/>
      </g>
     </g>
    </g>
    <g id="xtick_4">
     <g id="line2d_4">
      <g>
       <use xlink:href="#m9c92416169" x="419.727273" y="384.48" style="stroke: #000000; stroke-width: 0.8"/>
      </g>
     </g>
     <g id="text_4">
      <!-- 0.6 -->
      <g transform="translate(411.77571 399.078438) scale(0.1 -0.1)">
       <defs>
        <path id="DejaVuSans-36" d="M 2113 2584 
Q 1688 2584 1439 2293 
Q 1191 2003 1191 1497 
Q 1191 994 1439 701 
Q 1688 409 2113 409 
Q 2538 409 2786 701 
Q 3034 994 3034 1497 
Q 3034 2003 2786 2293 
Q 2538 2584 2113 2584 
z
M 3366 4563 
L 3366 3988 
Q 3128 4100 2886 4159 
Q 2644 4219 2406 4219 
Q 1781 4219 1451 3797 
Q 1122 3375 1075 2522 
Q 1259 2794 1537 2939 
Q 1816 3084 2150 3084 
Q 2853 3084 3261 2657 
Q 3669 2231 3669 1497 
Q 3669 778 3244 343 
Q 2819 -91 2113 -91 
Q 1303 -91 875 529 
Q 447 1150 447 2328 
Q 447 3434 972 4092 
Q 1497 4750 2381 4750 
Q 2619 4750 2861 4703 
Q 3103 4656 3366 4563 
z
" transform="scale(0.015625)"/>
       </defs>
       <use xlink:href="#DejaVuSans-30"/>
       <use xlink:href="#DejaVuSans-2e" x="63.623047"/>
       <use xlink:href="#DejaVuSans-36" x="95.410156"/>
      </g>
     </g>
    </g>
    <g id="xtick_5">
     <g id="line2d_5">
      <g>
       <use xlink:href="#m9c92416169" x="521.181818" y="384.48" style="stroke: #000000; stroke-width: 0.8"/>
      </g>
     </g>
     <g id="text_5">
      <!-- 0.8 -->
      <g transform="translate(513.230256 399.078438) scale(0.1 -0.1)">
       <defs>
        <path id="DejaVuSans-38" d="M 2034 2216 
Q 1584 2216 1326 1975 
Q 1069 1734 1069 1313 
Q 1069 891 1326 650 
Q 1584 409 2034 409 
Q 2484 409 2743 651 
Q 3003 894 3003 1313 
Q 3003 1734 2745 1975 
Q 2488 2216 2034 2216 
z
M 1403 2484 
Q 997 2584 770 2862 
Q 544 3141 544 3541 
Q 544 4100 942 4425 
Q 1341 4750 2034 4750 
Q 2731 4750 3128 4425 
Q 3525 4100 3525 3541 
Q 3525 3141 3298 2862 
Q 3072 2584 2669 2484 
Q 3125 2378 3379 2068 
Q 3634 1759 3634 1313 
Q 3634 634 3220 271 
Q 2806 -91 2034 -91 
Q 1263 -91 848 271 
Q 434 634 434 1313 
Q 434 1759 690 2068 
Q 947 2378 1403 2484 
z
M 1172 3481 
Q 1172 3119 1398 2916 
Q 1625 2713 2034 2713 
Q 2441 2713 2670 2916 
Q 2900 3119 2900 3481 
Q 2900 3844 2670 4047 
Q 2441 4250 2034 4250 
Q 1625 4250 1398 4047 
Q 1172 3844 1172 3481 
z
" transform="scale(0.015625)"/>
       </defs>
       <use xlink:href="#DejaVuSans-30"/>
       <use xlink:href="#DejaVuSans-2e" x="63.623047"/>
       <use xlink:href="#DejaVuSans-38" x="95.410156"/>
      </g>
     </g>
    </g>
    <g id="xtick_6">
     <g id="line2d_6">
      <g>
       <use xlink:href="#m9c92416169" x="622.636364" y="384.48" style="stroke: #000000; stroke-width: 0.8"/>
      </g>
     </g>
     <g id="text_6">
      <!-- 1.0 -->
      <g transform="translate(614.684801 399.078438) scale(0.1 -0.1)">
       <defs>
        <path id="DejaVuSans-31" d="M 794 531 
L 1825 531 
L 1825 4091 
L 703 3866 
L 703 4441 
L 1819 4666 
L 2450 4666 
L 2450 531 
L 3481 531 
L 3481 0 
L 794 0 
L 794 531 
z
" transform="scale(0.015625)"/>
       </defs>
       <use xlink:href="#DejaVuSans-31"/>
       <use xlink:href="#DejaVuSans-2e" x="63.623047"/>
       <use xlink:href="#DejaVuSans-30" x="95.410156"/>
      </g>
     </g>
    </g>
    <g id="text_7">
     <!-- Recall -->
     <g transform="translate(354.082812 412.756563) scale(0.1 -0.1)">
      <defs>
       <path id="DejaVuSans-52" d="M 2841 2188 
Q 3044 2119 3236 1894 
Q 3428 1669 3622 1275 
L 4263 0 
L 3584 0 
L 2988 1197 
Q 2756 1666 2539 1819 
Q 2322 1972 1947 1972 
L 1259 1972 
L 1259 0 
L 628 0 
L 628 4666 
L 2053 4666 
Q 2853 4666 3247 4331 
Q 3641 3997 3641 3322 
Q 3641 2881 3436 2590 
Q 3231 2300 2841 2188 
z
M 1259 4147 
L 1259 2491 
L 2053 2491 
Q 2509 2491 2742 2702 
Q 2975 2913 2975 3322 
Q 2975 3731 2742 3939 
Q 2509 4147 2053 4147 
L 1259 4147 
z
" transform="scale(0.015625)"/>
       <path id="DejaVuSans-65" d="M 3597 1894 
L 3597 1613 
L 953 1613 
Q 991 1019 1311 708 
Q 1631 397 2203 397 
Q 2534 397 2845 478 
Q 3156 559 3463 722 
L 3463 178 
Q 3153 47 2828 -22 
Q 2503 -91 2169 -91 
Q 1331 -91 842 396 
Q 353 884 353 1716 
Q 353 2575 817 3079 
Q 1281 3584 2069 3584 
Q 2775 3584 3186 3129 
Q 3597 2675 3597 1894 
z
M 3022 2063 
Q 3016 2534 2758 2815 
Q 2500 3097 2075 3097 
Q 1594 3097 1305 2825 
Q 1016 2553 972 2059 
L 3022 2063 
z
" transform="scale(0.015625)"/>
       <path id="DejaVuSans-63" d="M 3122 3366 
L 3122 2828 
Q 2878 2963 2633 3030 
Q 2388 3097 2138 3097 
Q 1578 3097 1268 2742 
Q 959 2388 959 1747 
Q 959 1106 1268 751 
Q 1578 397 2138 397 
Q 2388 397 2633 464 
Q 2878 531 3122 666 
L 3122 134 
Q 2881 22 2623 -34 
Q 2366 -91 2075 -91 
Q 1284 -91 818 406 
Q 353 903 353 1747 
Q 353 2603 823 3093 
Q 1294 3584 2113 3584 
Q 2378 3584 2631 3529 
Q 2884 3475 3122 3366 
z
" transform="scale(0.015625)"/>
       <path id="DejaVuSans-61" d="M 2194 1759 
Q 1497 1759 1228 1600 
Q 959 1441 959 1056 
Q 959 750 1161 570 
Q 1363 391 1709 391 
Q 2188 391 2477 730 
Q 2766 1069 2766 1631 
L 2766 1759 
L 2194 1759 
z
M 3341 1997 
L 3341 0 
L 2766 0 
L 2766 531 
Q 2569 213 2275 61 
Q 1981 -91 1556 -91 
Q 1019 -91 701 211 
Q 384 513 384 1019 
Q 384 1609 779 1909 
Q 1175 2209 1959 2209 
L 2766 2209 
L 2766 2266 
Q 2766 2663 2505 2880 
Q 2244 3097 1772 3097 
Q 1472 3097 1187 3025 
Q 903 2953 641 2809 
L 641 3341 
Q 956 3463 1253 3523 
Q 1550 3584 1831 3584 
Q 2591 3584 2966 3190 
Q 3341 2797 3341 1997 
z
" transform="scale(0.015625)"/>
       <path id="DejaVuSans-6c" d="M 603 4863 
L 1178 4863 
L 1178 0 
L 603 0 
L 603 4863 
z
" transform="scale(0.015625)"/>
      </defs>
      <use xlink:href="#DejaVuSans-52"/>
      <use xlink:href="#DejaVuSans-65" x="64.982422"/>
      <use xlink:href="#DejaVuSans-63" x="126.505859"/>
      <use xlink:href="#DejaVuSans-61" x="181.486328"/>
      <use xlink:href="#DejaVuSans-6c" x="242.765625"/>
      <use xlink:href="#DejaVuSans-6c" x="270.548828"/>
     </g>
    </g>
   </g>
   <g id="matplotlib.axis_2">
    <g id="ytick_1">
     <g id="line2d_7">
      <defs>
       <path id="mb93b06012d" d="M 0 0 
L -3.5 0 
" style="stroke: #000000; stroke-width: 0.8"/>
      </defs>
      <g>
       <use xlink:href="#mb93b06012d" x="90" y="369.36" style="stroke: #000000; stroke-width: 0.8"/>
      </g>
     </g>
     <g id="text_8">
      <!-- 0.0 -->
      <g transform="translate(67.096875 373.159219) scale(0.1 -0.1)">
       <use xlink:href="#DejaVuSans-30"/>
       <use xlink:href="#DejaVuSans-2e" x="63.623047"/>
       <use xlink:href="#DejaVuSans-30" x="95.410156"/>
      </g>
     </g>
    </g>
    <g id="ytick_2">
     <g id="line2d_8">
      <g>
       <use xlink:href="#mb93b06012d" x="90" y="308.88" style="stroke: #000000; stroke-width: 0.8"/>
      </g>
     </g>
     <g id="text_9">
      <!-- 0.2 -->
      <g transform="translate(67.096875 312.679219) scale(0.1 -0.1)">
       <use xlink:href="#DejaVuSans-30"/>
       <use xlink:href="#DejaVuSans-2e" x="63.623047"/>
       <use xlink:href="#DejaVuSans-32" x="95.410156"/>
      </g>
     </g>
    </g>
    <g id="ytick_3">
     <g id="line2d_9">
      <g>
       <use xlink:href="#mb93b06012d" x="90" y="248.4" style="stroke: #000000; stroke-width: 0.8"/>
      </g>
     </g>
     <g id="text_10">
      <!-- 0.4 -->
      <g transform="translate(67.096875 252.199219) scale(0.1 -0.1)">
       <use xlink:href="#DejaVuSans-30"/>
       <use xlink:href="#DejaVuSans-2e" x="63.623047"/>
       <use xlink:href="#DejaVuSans-34" x="95.410156"/>
      </g>
     </g>
    </g>
    <g id="ytick_4">
     <g id="line2d_10">
      <g>
       <use xlink:href="#mb93b06012d" x="90" y="187.92" style="stroke: #000000; stroke-width: 0.8"/>
      </g>
     </g>
     <g id="text_11">
      <!-- 0.6 -->
      <g transform="translate(67.096875 191.719219) scale(0.1 -0.1)">
       <use xlink:href="#DejaVuSans-30"/>
       <use xlink:href="#DejaVuSans-2e" x="63.623047"/>
       <use xlink:href="#DejaVuSans-36" x="95.410156"/>
      </g>
     </g>
    </g>
    <g id="ytick_5">
     <g id="line2d_11">
      <g>
       <use xlink:href="#mb93b06012d" x="90" y="127.44" style="stroke: #000000; stroke-width: 0.8"/>
      </g>
     </g>
     <g id="text_12">
      <!-- 0.8 -->
      <g transform="translate(67.096875 131.239219) scale(0.1 -0.1)">
       <use xlink:href="#DejaVuSans-30"/>
       <use xlink:href="#DejaVuSans-2e" x="63.623047"/>
       <use xlink:href="#DejaVuSans-38" x="95.410156"/>
      </g>
     </g>
    </g>
    <g id="ytick_6">
     <g id="line2d_12">
      <g>
       <use xlink:href="#mb93b06012d" x="90" y="66.96" style="stroke: #000000; stroke-width: 0.8"/>
      </g>
     </g>
     <g id="text_13">
      <!-- 1.0 -->
      <g transform="translate(67.096875 70.759219) scale(0.1 -0.1)">
       <use xlink:href="#DejaVuSans-31"/>
       <use xlink:href="#DejaVuSans-2e" x="63.623047"/>
       <use xlink:href="#DejaVuSans-30" x="95.410156"/>
      </g>
     </g>
    </g>
    <g id="text_14">
     <!-- Precision -->
     <g transform="translate(61.017187 240.467031) rotate(-90) scale(0.1 -0.1)">
      <defs>
       <path id="DejaVuSans-50" d="M 1259 4147 
L 1259 2394 
L 2053 2394 
Q 2494 2394 2734 2622 
Q 2975 2850 2975 3272 
Q 2975 3691 2734 3919 
Q 2494 4147 2053 4147 
L 1259 4147 
z
M 628 4666 
L 2053 4666 
Q 2838 4666 3239 4311 
Q 3641 3956 3641 3272 
Q 3641 2581 3239 2228 
Q 2838 1875 2053 1875 
L 1259 1875 
L 1259 0 
L 628 0 
L 628 4666 
z
" transform="scale(0.015625)"/>
       <path id="DejaVuSans-72" d="M 2631 2963 
Q 2534 3019 2420 3045 
Q 2306 3072 2169 3072 
Q 1681 3072 1420 2755 
Q 1159 2438 1159 1844 
L 1159 0 
L 581 0 
L 581 3500 
L 1159 3500 
L 1159 2956 
Q 1341 3275 1631 3429 
Q 1922 3584 2338 3584 
Q 2397 3584 2469 3576 
Q 2541 3569 2628 3553 
L 2631 2963 
z
" transform="scale(0.015625)"/>
       <path id="DejaVuSans-69" d="M 603 3500 
L 1178 3500 
L 1178 0 
L 603 0 
L 603 3500 
z
M 603 4863 
L 1178 4863 
L 1178 4134 
L 603 4134 
L 603 4863 
z
" transform="scale(0.015625)"/>
       <path id="DejaVuSans-73" d="M 2834 3397 
L 2834 2853 
Q 2591 2978 2328 3040 
Q 2066 3103 1784 3103 
Q 1356 3103 1142 2972 
Q 928 2841 928 2578 
Q 928 2378 1081 2264 
Q 1234 2150 1697 2047 
L 1894 2003 
Q 2506 1872 2764 1633 
Q 3022 1394 3022 966 
Q 3022 478 2636 193 
Q 2250 -91 1575 -91 
Q 1294 -91 989 -36 
Q 684 19 347 128 
L 347 722 
Q 666 556 975 473 
Q 1284 391 1588 391 
Q 1994 391 2212 530 
Q 2431 669 2431 922 
Q 2431 1156 2273 1281 
Q 2116 1406 1581 1522 
L 1381 1569 
Q 847 1681 609 1914 
Q 372 2147 372 2553 
Q 372 3047 722 3315 
Q 1072 3584 1716 3584 
Q 2034 3584 2315 3537 
Q 2597 3491 2834 3397 
z
" transform="scale(0.015625)"/>
       <path id="DejaVuSans-6f" d="M 1959 3097 
Q 1497 3097 1228 2736 
Q 959 2375 959 1747 
Q 959 1119 1226 758 
Q 1494 397 1959 397 
Q 2419 397 2687 759 
Q 2956 1122 2956 1747 
Q 2956 2369 2687 2733 
Q 2419 3097 1959 3097 
z
M 1959 3584 
Q 2709 3584 3137 3096 
Q 3566 2609 3566 1747 
Q 3566 888 3137 398 
Q 2709 -91 1959 -91 
Q 1206 -91 779 398 
Q 353 888 353 1747 
Q 353 2609 779 3096 
Q 1206 3584 1959 3584 
z
" transform="scale(0.015625)"/>
       <path id="DejaVuSans-6e" d="M 3513 2113 
L 3513 0 
L 2938 0 
L 2938 2094 
Q 2938 2591 2744 2837 
Q 2550 3084 2163 3084 
Q 1697 3084 1428 2787 
Q 1159 2491 1159 1978 
L 1159 0 
L 581 0 
L 581 3500 
L 1159 3500 
L 1159 2956 
Q 1366 3272 1645 3428 
Q 1925 3584 2291 3584 
Q 2894 3584 3203 3211 
Q 3513 2838 3513 2113 
z
" transform="scale(0.015625)"/>
      </defs>
      <use xlink:href="#DejaVuSans-50"/>
      <use xlink:href="#DejaVuSans-72" x="58.552734"/>
      <use xlink:href="#DejaVuSans-65" x="97.416016"/>
      <use xlink:href="#DejaVuSans-63" x="158.939453"/>
      <use xlink:href="#DejaVuSans-69" x="213.919922"/>
      <use xlink:href="#DejaVuSans-73" x="241.703125"/>
      <use xlink:href="#DejaVuSans-69" x="293.802734"/>
      <use xlink:href="#DejaVuSans-6f" x="321.585938"/>
      <use xlink:href="#DejaVuSans-6e" x="382.767578"/>
     </g>
    </g>
   </g>
   <g id="line2d_13">
    <path d="M 622.636364 340.714561 
L 622.636364 340.712227 
L 622.527296 340.717803 
L 622.527296 340.71547 
L 621.000352 340.675497 
L 621.000352 340.674323 
L 621.000352 340.666691 
L 620.891284 340.670531 
L 619.146205 340.657943 
L 619.146205 340.641419 
L 619.146205 340.624286 
L 617.510193 340.595107 
L 617.401126 340.569233 
L 615.765114 340.562391 
L 615.765114 340.53427 
L 615.656047 340.503381 
L 614.347237 340.456812 
L 614.347237 340.455 
L 613.038428 340.382487 
L 613.038428 340.355077 
L 612.92936 340.330924 
L 611.947753 340.26329 
L 611.947753 340.245447 
L 611.838686 340.214863 
L 610.529876 340.162493 
L 610.529876 340.123943 
L 610.529876 340.118961 
L 610.420809 340.122911 
L 609.657337 340.006688 
L 609.548269 339.964055 
L 608.23946 339.725285 
L 608.130392 339.676484 
L 607.36692 339.531946 
L 606.058111 339.319646 
L 606.058111 339.229832 
L 604.640234 339.078148 
L 604.640234 339.034825 
L 603.331424 338.982848 
L 603.331424 338.929555 
L 602.895155 338.809022 
L 601.586345 338.564605 
L 601.477278 338.505259 
L 596.351107 337.696206 
L 596.24204 337.612932 
L 593.733488 337.335507 
L 593.297219 337.155543 
L 592.424679 337.044699 
L 592.315612 336.969788 
L 590.788667 336.813604 
L 590.24333 336.676629 
L 587.734778 336.444835 
L 585.989699 336.135577 
L 583.917418 335.803395 
L 583.590215 335.645691 
L 580.536326 335.091321 
L 580.536326 335.063983 
L 579.336585 334.744668 
L 578.24591 334.606274 
L 577.700573 334.480035 
L 576.609898 334.375741 
L 575.955493 334.27276 
L 575.955493 334.236088 
L 575.192021 334.10815 
L 573.665077 333.972766 
L 571.156525 333.472864 
L 570.283986 333.220336 
L 570.065851 333.161952 
L 568.211704 333.110764 
L 567.5573 332.913767 
L 566.575692 332.803726 
L 562.103927 332.253038 
L 557.086824 331.318129 
L 554.360138 331.259455 
L 553.923868 331.093686 
L 551.306249 330.779362 
L 551.306249 330.759649 
L 549.779305 330.498956 
L 548.906765 330.346661 
L 545.307539 329.968658 
L 545.307539 329.949123 
L 540.508571 329.208927 
L 539.745099 329.031017 
L 538.327222 328.816968 
L 537.12748 328.461119 
L 533.091984 328.19594 
L 532.764782 328.052005 
L 530.25623 327.762777 
L 528.511151 327.678492 
L 528.183949 327.612763 
L 525.893532 327.453089 
L 524.148453 327.242007 
L 523.712183 327.063766 
L 522.076171 326.912902 
L 519.56762 326.64247 
L 516.186529 326.19356 
L 509.860616 325.166836 
L 509.424347 325.03123 
L 507.461133 324.856643 
L 507.024863 324.853323 
L 505.388851 324.587823 
L 504.734446 324.577655 
L 504.407244 324.33513 
L 498.626669 324.116521 
L 494.263971 323.779577 
L 491.319149 323.653923 
L 491.319149 323.59171 
L 487.392721 323.078024 
L 485.102304 322.872788 
L 481.284944 322.546047 
L 479.430797 322.118403 
L 476.485976 321.972693 
L 469.069389 321.310848 
L 467.32431 321.034105 
L 461.980004 320.840426 
L 458.926116 320.420419 
L 458.817048 320.18584 
L 458.489846 320.176812 
L 450.855124 319.323292 
L 449.546315 319.381382 
L 444.202009 318.937702 
L 443.656672 318.758266 
L 442.784132 318.709729 
L 442.02066 318.487226 
L 431.004847 317.838418 
L 430.677645 317.782513 
L 425.878677 317.524682 
L 425.660542 317.442312 
L 420.970642 317.171973 
L 419.443697 317.191743 
L 415.190067 316.984899 
L 412.354313 316.626398 
L 411.263638 316.671592 
L 409.300424 316.484635 
L 406.46467 316.323753 
L 403.192647 315.922636 
L 400.46596 315.880966 
L 394.140048 316.094588 
L 392.504036 315.775732 
L 389.232013 315.739041 
L 387.923203 315.493181 
L 385.305584 315.492143 
L 381.488223 315.697745 
L 375.489513 315.059142 
L 374.616974 315.040889 
L 369.927073 315.096788 
L 369.708938 314.870987 
L 366.65505 314.757367 
L 364.582768 314.615585 
L 361.637947 314.721351 
L 359.892868 314.52493 
L 354.112293 314.494389 
L 348.65892 314.145864 
L 347.677313 314.189807 
L 345.823166 313.932241 
L 342.987412 313.897411 
L 338.733782 313.974988 
L 336.552433 313.709619 
L 332.844139 313.569326 
L 331.09906 313.697688 
L 328.045171 313.497931 
L 324.66408 313.443099 
L 323.573406 313.236959 
L 322.373664 313.133981 
L 320.628584 313.184223 
L 317.574696 313.154526 
L 316.811223 312.931146 
L 314.520807 312.772339 
L 309.612771 313.035549 
L 302.632454 311.841356 
L 300.23297 311.910101 
L 298.815094 311.599746 
L 292.816384 310.836769 
L 289.653427 310.778936 
L 285.508864 310.874505 
L 283.654717 310.829744 
L 277.437873 310.279485 
L 270.67569 310.217355 
L 266.312992 309.834812 
L 260.205215 309.043509 
L 253.443033 309.184206 
L 246.244581 309.616832 
L 241.55468 308.890453 
L 238.282657 308.119245 
L 234.683431 307.845385 
L 227.921249 307.93965 
L 216.687301 308.08855 
L 215.378491 307.627854 
L 212.215535 307.214386 
L 208.180039 307.304924 
L 203.817341 306.908663 
L 196.727957 306.800266 
L 191.928989 307.433279 
L 190.620179 307.223014 
L 186.039346 307.072905 
L 180.695041 306.747625 
L 174.696331 306.715065 
L 171.097105 306.365137 
L 164.989328 303.400268 
L 163.135181 303.034912 
L 151.792166 301.573691 
L 148.19294 301.936 
L 142.739567 300.295032 
L 141.103555 299.186549 
L 138.922206 297.184972 
L 135.977385 293.859868 
L 133.796036 291.927273 
L 131.723754 291.55554 
L 131.178417 289.345401 
L 128.888001 282.760462 
L 127.797326 280.28093 
L 126.270382 274.563762 
L 124.525302 264.826667 
L 121.580481 258.867692 
L 120.598874 247.383529 
L 119.180997 208.996364 
L 118.417525 209.601509 
L 117.326851 213.84 
L 116.672446 187.92 
L 116.563378 161.46 
L 116.345243 142.56 
L 115.799906 127.44 
L 115.581771 66.96 
L 115.363636 66.96 
L 115.363636 66.96 
" clip-path="url(#pba37247dbd)" style="fill: none; stroke: #1f77b4; stroke-width: 2; stroke-linecap: square"/>
   </g>
   <g id="line2d_14">
    <path d="M 622.636364 340.652971 
L 622.636364 340.652387 
L 622.52753 340.657961 
L 622.52753 340.656207 
L 621.221529 340.614776 
L 621.221529 340.612425 
L 618.391859 340.594378 
L 618.391859 340.58668 
L 618.283025 340.573942 
L 615.671023 340.58474 
L 615.671023 340.583549 
L 615.562189 340.589213 
L 615.562189 340.586831 
L 614.365021 340.551922 
L 614.365021 340.518363 
L 614.365021 340.514763 
L 614.256188 340.516254 
L 612.623686 340.494115 
L 612.623686 340.466951 
L 612.623686 340.454862 
L 612.514852 340.45877 
L 611.861852 340.382752 
L 611.861852 340.377273 
L 611.753018 340.31345 
L 610.882351 340.249141 
L 610.882351 340.22265 
L 610.773517 340.154263 
L 609.685183 340.024856 
L 609.576349 340.018154 
L 608.923348 339.939997 
L 608.923348 339.934947 
L 608.814515 339.89845 
L 607.617347 339.736314 
L 605.876012 339.374811 
L 605.876012 339.362932 
L 603.808176 339.084922 
L 603.264009 338.923107 
L 601.41384 338.752657 
L 600.869673 338.626724 
L 600.543173 338.509636 
L 599.346005 338.375166 
L 596.081001 337.812981 
L 594.230832 337.273572 
L 590.639328 336.68853 
L 590.530495 336.61906 
L 588.78916 336.424597 
L 588.78916 336.358495 
L 588.027325 336.217033 
L 587.918492 336.12065 
L 587.156658 336.016391 
L 581.932652 335.020394 
L 581.388485 334.928197 
L 575.402645 333.548805 
L 573.770143 333.412021 
L 572.246475 333.269731 
L 570.613973 332.809515 
L 569.307971 332.612814 
L 567.566636 332.284993 
L 566.260635 331.987354 
L 564.8458 331.85964 
L 564.736966 331.72407 
L 563.757465 331.572611 
L 559.839461 331.041613 
L 558.85996 330.768036 
L 557.880459 330.628872 
L 556.683291 330.365152 
L 555.594956 330.267383 
L 553.309454 329.939948 
L 552.982953 329.715045 
L 551.568118 329.530253 
L 550.04445 329.472761 
L 546.56178 329.058988 
L 544.929278 328.866962 
L 544.167444 328.682089 
L 542.752609 328.155115 
L 539.922939 327.904335 
L 539.487605 327.771462 
L 537.855103 327.60886 
L 528.060092 326.257429 
L 526.10109 326.04194 
L 524.686255 325.904154 
L 523.380254 325.808173 
L 519.897583 325.235764 
L 511.299741 324.263415 
L 510.755573 324.063587 
L 510.102573 323.981233 
L 509.884906 323.916007 
L 506.511069 323.654731 
L 497.804392 322.798191 
L 490.839051 322.214625 
L 489.641883 321.96659 
L 487.574048 321.862618 
L 481.697041 321.22881 
L 478.976205 321.097919 
L 478.214371 320.839782 
L 476.799536 320.635028 
L 476.473035 320.517903 
L 473.643366 320.286708 
L 470.378362 319.900072 
L 467.222192 319.639245 
L 461.671686 319.384057 
L 458.080182 319.222707 
L 457.862515 319.103726 
L 456.338847 319.053665 
L 452.203175 318.662421 
L 449.373505 318.634945 
L 443.931833 317.923547 
L 440.557996 317.780413 
L 438.925494 317.500563 
L 431.633653 317.095554 
L 428.042149 316.638646 
L 426.51848 316.642829 
L 425.212479 316.340367 
L 421.947475 316.357213 
L 420.641474 316.232604 
L 417.04997 316.1376 
L 413.8938 315.851859 
L 406.384291 315.5526 
L 405.622457 315.503519 
L 402.901621 315.512133 
L 401.92212 315.39733 
L 397.568782 315.409044 
L 396.915781 315.254682 
L 392.344776 314.963053 
L 381.13493 314.804681 
L 377.761093 314.359517 
L 373.407755 314.177178 
L 371.775253 313.980723 
L 365.571746 314.131401 
L 364.374578 314.09271 
L 363.939244 313.883566 
L 361.762575 313.870164 
L 351.641064 313.439182 
L 348.702561 313.284442 
L 345.546391 313.325656 
L 339.887051 313.060821 
L 338.90755 312.765048 
L 337.383882 312.893547 
L 335.316046 312.640705 
L 332.812877 312.606741 
L 327.480037 312.824978 
L 317.249693 312.114159 
L 315.617191 311.789798 
L 311.372686 311.880063 
L 308.216516 311.611018 
L 297.333171 311.376881 
L 291.02083 310.485018 
L 288.844161 309.98993 
L 286.993993 310.001673 
L 285.579158 309.809056 
L 283.728989 309.788779 
L 280.355152 309.070889 
L 277.525482 308.985352 
L 269.25414 309.539966 
L 264.465468 309.361738 
L 259.023795 309.29861 
L 257.717794 309.046002 
L 251.949621 308.628363 
L 244.875446 309.393994 
L 240.522108 308.785187 
L 234.209768 307.6826 
L 231.488931 307.369452 
L 228.223928 307.152343 
L 217.993583 306.755565 
L 216.252248 306.223784 
L 212.334244 306.465882 
L 209.613407 305.920465 
L 204.933569 305.365348 
L 199.491896 304.119922 
L 192.744222 304.481786 
L 188.826218 303.978834 
L 183.819879 302.946034 
L 177.834039 302.393333 
L 175.548536 300.936432 
L 167.16836 299.654237 
L 165.427025 299.21174 
L 161.617854 298.666931 
L 156.611515 298.700567 
L 154.54368 296.735584 
L 151.38751 295.598467 
L 146.163504 293.018162 
L 144.966336 292.631642 
L 141.918999 291.4449 
L 138.545162 288.846 
L 136.368493 286.457727 
L 134.844825 282.89099 
L 133.647657 282.665119 
L 130.27382 280.836923 
L 128.967818 280.627606 
L 124.832147 265.782047 
L 122.546644 259.092597 
L 120.696476 260.407059 
L 120.152308 257.548235 
L 118.846307 238.592432 
L 118.519807 230.16 
L 116.887305 254.938378 
L 116.451971 231.905455 
L 116.016637 248.4 
L 115.690137 239.76 
L 115.47247 268.56 
L 115.363636 369.36 
L 115.363636 66.96 
L 115.363636 66.96 
" clip-path="url(#pba37247dbd)" style="fill: none; stroke: #ff7f0e; stroke-width: 2; stroke-linecap: square"/>
   </g>
   <g id="line2d_15">
    <path d="M 622.636364 340.997874 
L 622.636364 340.994408 
L 622.526207 340.99999 
L 622.526207 340.999413 
L 620.763696 340.978877 
L 620.763696 340.977716 
L 620.653539 340.966477 
L 619.111341 340.929178 
L 619.111341 340.92567 
L 619.111341 340.917483 
L 619.001184 340.920193 
L 617.128516 340.903013 
L 617.128516 340.895368 
L 617.018359 340.898088 
L 617.018359 340.889851 
L 614.815221 340.835615 
L 614.815221 340.833835 
L 614.705064 340.819343 
L 613.603494 340.782941 
L 613.603494 340.762028 
L 613.493337 340.76297 
L 613.493337 340.713246 
L 612.832396 340.638137 
L 612.832396 340.633304 
L 612.722239 340.591858 
L 611.290198 340.469547 
L 611.180041 340.413924 
L 610.298786 340.323965 
L 610.298786 340.314654 
L 610.188629 340.236446 
L 609.527687 340.16204 
L 609.527687 340.159526 
L 609.41753 340.117568 
L 607.875333 339.867375 
L 607.875333 339.819046 
L 606.112822 339.550251 
L 606.112822 339.484806 
L 605.011253 339.153978 
L 604.901096 339.072292 
L 600.164347 338.209771 
L 600.164347 338.168887 
L 598.62215 337.850872 
L 597.300267 337.776529 
L 597.300267 337.710039 
L 594.986971 337.470599 
L 594.326029 337.285373 
L 593.665087 336.996469 
L 592.563518 336.834506 
L 591.572105 336.494071 
L 591.021321 336.34533 
L 590.69085 336.25947 
L 589.919751 336.159042 
L 586.504886 335.777449 
L 584.632218 335.412915 
L 584.081433 335.239664 
L 582.539236 335.037013 
L 582.098608 334.948741 
L 581.65798 334.794634 
L 576.370447 334.292694 
L 576.26029 334.247562 
L 574.938407 334.151873 
L 570.752443 333.477179 
L 570.752443 333.425607 
L 569.540717 333.329622 
L 568.439147 333.290888 
L 568.218833 333.184636 
L 567.227421 332.936321 
L 566.89695 332.725225 
L 566.786793 332.611432 
L 560.728161 331.869485 
L 559.516435 331.724515 
L 558.084394 331.486968 
L 557.313296 331.319402 
L 553.017175 330.545178 
L 551.364821 330.245647 
L 548.390583 329.876345 
L 547.178857 329.638524 
L 546.077288 329.490024 
L 541.67101 328.87121 
L 541.230382 328.743025 
L 539.688185 328.559832 
L 537.815517 328.360778 
L 535.612378 327.994013 
L 526.909979 326.908326 
L 525.257625 326.66162 
L 521.291975 326.381598 
L 517.216168 325.930403 
L 513.470832 325.61531 
L 511.488007 325.557922 
L 510.937222 325.452576 
L 508.403613 325.304502 
L 507.302043 325.168141 
L 504.217649 325.061042 
L 501.904353 324.985743 
L 501.684039 324.91066 
L 499.921528 324.754499 
L 497.498075 324.347101 
L 495.625407 324.353326 
L 487.363636 324.061703 
L 486.372224 323.814736 
L 482.296417 323.630014 
L 480.203435 323.362535 
L 478.440924 323.388394 
L 467.425229 322.742674 
L 467.315073 322.678452 
L 465.332248 322.566137 
L 464.781463 322.482236 
L 461.476755 322.341948 
L 458.502517 322.199892 
L 456.850163 322.224039 
L 453.545455 321.943482 
L 451.342316 321.920436 
L 444.402428 321.405615 
L 441.428191 321.142805 
L 436.691442 320.943468 
L 435.259402 320.74296 
L 433.16642 320.756992 
L 426.006219 320.431892 
L 424.684335 320.211467 
L 423.031981 319.999752 
L 421.930412 320.049682 
L 419.83743 319.846725 
L 414.109269 319.505362 
L 408.821735 318.985213 
L 405.627184 318.774424 
L 404.856085 318.732033 
L 402.542789 318.717179 
L 401.551377 318.598535 
L 391.306781 318.379988 
L 386.349719 318.348274 
L 385.57862 318.223422 
L 380.070773 318.265414 
L 372.029316 318.14302 
L 363.987859 317.884263 
L 359.801895 317.924648 
L 359.691738 317.761939 
L 359.25111 317.636143 
L 350.108084 317.441341 
L 345.591649 317.18333 
L 343.939295 317.226401 
L 341.515842 316.934126 
L 339.863488 316.923073 
L 337.99082 316.756247 
L 336.999408 316.795957 
L 334.465798 316.71 
L 331.050933 316.82236 
L 329.508736 316.65081 
L 328.297009 316.641818 
L 326.864969 316.486127 
L 325.543086 316.523077 
L 317.721943 316.191087 
L 310.341427 316.407091 
L 309.460172 316.220596 
L 306.706248 316.157448 
L 305.93515 315.998923 
L 304.172638 315.776458 
L 300.317145 315.903525 
L 294.148357 315.110503 
L 292.606159 315.128881 
L 290.292863 315.282162 
L 288.97098 315.128958 
L 280.378739 314.391525 
L 279.938111 314.291058 
L 277.514658 314.466326 
L 276.413089 314.179171 
L 273.879479 314.242381 
L 269.693515 314.051593 
L 268.261475 313.618805 
L 253.28013 312.826507 
L 252.398875 312.47423 
L 246.670714 312.343107 
L 241.38318 311.989254 
L 233.011253 311.168432 
L 228.825289 311.271227 
L 223.097128 310.900383 
L 211.750962 309.952726 
L 208.666568 309.835761 
L 206.463429 309.387626 
L 201.72668 309.339342 
L 195.447735 308.292 
L 192.36334 307.966564 
L 190.050044 308.358155 
L 185.53361 308.382222 
L 181.237489 307.578244 
L 173.746817 304.62979 
L 164.60379 305.022637 
L 162.731122 304.148365 
L 158.765472 303.168 
L 154.469351 303.093333 
L 150.613858 302.113301 
L 148.080249 300.537931 
L 142.682558 297.525517 
L 141.360675 297.9936 
L 138.937222 296.15457 
L 135.962985 293.658795 
L 134.090317 291.704411 
L 131.887178 290.882491 
L 131.666864 287.986909 
L 128.91294 283.458845 
L 127.260586 284.969302 
L 125.167604 280.828421 
L 123.955878 269.414237 
L 120.871484 269.886316 
L 119.769914 251.923107 
L 119.329286 253.547234 
L 118.778502 222.885 
L 118.227717 218.16 
L 117.126147 222.741818 
L 116.68552 142.56 
L 116.355049 121.941818 
L 115.804264 127.44 
L 115.694107 66.96 
L 115.363636 66.96 
L 115.363636 66.96 
" clip-path="url(#pba37247dbd)" style="fill: none; stroke: #2ca02c; stroke-width: 2; stroke-linecap: square"/>
   </g>
   <g id="line2d_16">
    <path d="M 622.636364 340.479932 
L 622.636364 340.477579 
L 622.52818 340.48315 
L 621.662712 340.425751 
L 621.662712 340.412139 
L 621.554528 340.382168 
L 619.390857 340.383783 
L 619.390857 340.383188 
L 619.282673 340.375696 
L 617.768103 340.372145 
L 617.768103 340.3356 
L 617.65992 340.310029 
L 616.361717 340.279213 
L 616.361717 340.26713 
L 616.253533 340.247406 
L 614.63078 340.216284 
L 614.63078 340.213849 
L 614.522596 340.201286 
L 614.198046 340.169613 
L 614.198046 340.105308 
L 614.198046 340.095484 
L 614.089862 340.101216 
L 613.332577 340.029296 
L 613.332577 340.018786 
L 613.224394 339.97933 
L 612.575292 339.913193 
L 612.575292 339.875086 
L 612.467109 339.853332 
L 612.034374 339.769685 
L 612.034374 339.763377 
L 611.926191 339.728131 
L 610.844355 339.660174 
L 610.844355 339.64233 
L 610.736172 339.593892 
L 609.76252 339.482195 
L 609.654336 339.411683 
L 609.113418 339.278187 
L 606.517013 338.576888 
L 606.517013 338.525727 
L 605.759728 338.400829 
L 605.435177 338.362512 
L 604.353341 338.139882 
L 602.514221 337.880535 
L 601.86512 337.740469 
L 600.458733 337.498503 
L 600.458733 337.465528 
L 599.593265 337.285536 
L 598.078695 337.078341 
L 595.374106 336.813031 
L 595.374106 336.7743 
L 594.725004 336.643563 
L 592.344966 336.067079 
L 590.93858 335.765095 
L 590.93858 335.693627 
L 588.342174 335.369543 
L 588.125807 335.242116 
L 586.39487 335.015904 
L 586.39487 335.00784 
L 583.690281 334.553044 
L 583.582097 334.381589 
L 583.582097 334.33666 
L 582.716629 334.232193 
L 581.202059 334.032552 
L 578.064736 333.309024 
L 577.415634 333.107989 
L 576.9829 333.046128 
L 576.658349 332.874513 
L 574.602862 332.544352 
L 574.494678 332.451407 
L 572.11464 332.072243 
L 571.898273 331.976358 
L 569.193683 331.29687 
L 568.977316 331.255564 
L 567.354563 331.20037 
L 564.54179 330.833925 
L 564.325423 330.781457 
L 563.135404 330.630118 
L 562.486303 330.484166 
L 557.509859 329.640602 
L 557.509859 329.477822 
L 556.64439 329.425734 
L 556.319839 329.257762 
L 555.995289 329.255962 
L 554.80527 328.863205 
L 551.018845 328.489923 
L 544.095097 327.61951 
L 543.229628 327.411559 
L 541.931426 327.137507 
L 541.823242 327.014762 
L 540.308672 326.83889 
L 540.308672 326.762647 
L 537.928634 326.342504 
L 536.197697 326.148892 
L 532.411272 325.267863 
L 518.347409 324.208485 
L 517.15739 323.976172 
L 513.046414 323.835289 
L 511.856395 323.726698 
L 510.341825 323.60903 
L 510.233642 323.526597 
L 504.067179 322.961093 
L 502.660792 322.644198 
L 499.523469 322.5275 
L 498.008899 322.291315 
L 496.386146 322.223341 
L 490.003315 321.289713 
L 489.570581 321.276815 
L 487.082359 320.98501 
L 484.053219 320.772984 
L 479.076775 320.638631 
L 475.290351 320.196357 
L 470.530274 319.977827 
L 469.340255 319.800631 
L 462.20014 319.442669 
L 460.901937 319.542298 
L 458.521898 319.286248 
L 454.951841 319.289655 
L 452.571802 319.193371 
L 451.59815 318.976211 
L 449.542663 318.883744 
L 448.352644 318.754487 
L 443.70075 318.678902 
L 442.402548 318.312692 
L 437.534287 318.02922 
L 437.101553 317.981024 
L 434.180597 317.912546 
L 430.93509 317.648146 
L 424.335893 317.473283 
L 419.251265 317.298122 
L 418.710347 317.176506 
L 415.14029 316.830512 
L 413.301169 316.896248 
L 412.219333 316.758694 
L 410.380213 316.747725 
L 410.163846 316.62819 
L 404.754668 316.465212 
L 404.21375 316.363085 
L 401.941895 316.119431 
L 400.102774 316.203198 
L 395.12633 316.24539 
L 393.179026 316.042925 
L 392.097191 316.100622 
L 391.015355 315.985436 
L 390.366254 315.777064 
L 389.608969 315.748978 
L 386.90438 315.741464 
L 385.38981 315.557847 
L 379.115163 315.741731 
L 377.925144 315.525569 
L 376.951492 315.571329 
L 376.626941 315.47157 
L 372.299599 315.246076 
L 371.866864 315.120617 
L 366.024952 315.083077 
L 362.887629 314.67369 
L 360.615774 314.599971 
L 358.127552 314.626527 
L 349.797418 314.232483 
L 348.931949 314.096618 
L 345.470075 314.215556 
L 345.037341 314.110843 
L 342.87367 313.963902 
L 339.952713 314.053648 
L 338.870878 313.727017 
L 338.546327 313.42427 
L 335.733554 313.376286 
L 332.596231 313.073459 
L 331.622579 312.991332 
L 322.967894 312.849571 
L 322.102425 312.704471 
L 320.804223 312.615178 
L 318.424184 312.297087 
L 317.017798 312.279129 
L 315.395044 312.024315 
L 310.743151 312.262833 
L 304.901239 311.891207 
L 304.03577 311.284281 
L 301.872099 311.162009 
L 300.790263 310.912368 
L 289.214622 310.463284 
L 286.7264 310.062946 
L 283.805444 310.217078 
L 267.57791 310.290612 
L 263.142384 310.069287 
L 256.326819 309.577387 
L 250.26854 309.284677 
L 240.207468 308.447171 
L 236.745594 308.08263 
L 232.850986 308.010028 
L 230.687315 307.570006 
L 216.298901 307.958651 
L 214.45978 307.8048 
L 211.43064 307.868999 
L 208.401501 307.203212 
L 203.641424 307.031533 
L 198.340429 305.534794 
L 193.363985 306.015898 
L 191.200314 306.475871 
L 185.358402 307.089854 
L 180.814692 306.446657 
L 174.756412 305.776086 
L 171.078171 305.559918 
L 161.882568 306.114864 
L 159.069796 307.155519 
L 154.95882 306.900406 
L 150.739661 307.672664 
L 148.143256 306.037816 
L 146.304135 302.985173 
L 141.435875 300.083954 
L 140.245856 299.738378 
L 136.783982 300.852906 
L 133.863026 299.291707 
L 132.023905 296.708518 
L 130.617519 293.22 
L 129.643867 294.609438 
L 126.72291 296.534312 
L 126.181993 293.948529 
L 124.234689 290.64 
L 122.503752 288.556761 
L 119.690979 291.32129 
L 119.258245 272.16 
L 118.933694 266.481649 
L 117.960042 259.396364 
L 117.635491 249.541132 
L 116.878206 248.4 
L 116.012738 262.630588 
L 116.012738 239.76 
L 115.796371 218.16 
L 115.47182 218.16 
L 115.47182 66.96 
L 115.363636 66.96 
" clip-path="url(#pba37247dbd)" style="fill: none; stroke: #d62728; stroke-width: 2; stroke-linecap: square"/>
   </g>
   <g id="line2d_17">
    <path d="M 622.636364 340.652387 
L 622.636364 340.651802 
L 622.52753 340.656792 
L 622.52753 340.654453 
L 620.568528 340.635434 
L 620.568528 340.633671 
L 620.459695 340.636332 
L 620.459695 340.632217 
L 618.283025 340.63371 
L 618.283025 340.621303 
L 618.283025 340.620712 
L 618.174192 340.623385 
L 618.174192 340.621612 
L 616.21519 340.603443 
L 616.21519 340.590959 
L 616.106356 340.592453 
L 616.106356 340.582338 
L 613.929687 340.586022 
L 613.929687 340.574064 
L 613.929687 340.570474 
L 613.820854 340.575562 
L 613.820854 340.570776 
L 612.623686 340.522431 
L 612.514852 340.48354 
L 611.100018 340.388269 
L 611.100018 340.385221 
L 610.991184 340.37146 
L 610.22935 340.315752 
L 610.22935 340.291806 
L 608.705682 340.081107 
L 608.596848 340.030559 
L 607.508514 339.892845 
L 607.39968 339.848486 
L 605.658345 339.578132 
L 605.549511 339.536496 
L 604.678844 339.405817 
L 604.57001 339.354305 
L 604.24351 339.303338 
L 603.699343 339.128085 
L 602.502175 339.028518 
L 602.393341 338.934387 
L 597.93117 338.188511 
L 597.278169 338.093312 
L 596.842835 337.95067 
L 595.319167 337.753241 
L 593.360165 337.376645 
L 591.836496 337.213846 
L 591.509996 337.072807 
L 589.11566 336.737582 
L 589.11566 336.680891 
L 587.700825 336.55042 
L 585.632989 336.341594 
L 585.524156 336.26477 
L 582.041485 335.746935 
L 580.517817 335.64694 
L 578.885315 335.368034 
L 577.579314 335.103057 
L 577.579314 335.071961 
L 576.490979 334.957057 
L 575.946812 334.804666 
L 575.837979 334.758642 
L 573.443643 334.42843 
L 573.008309 334.274825 
L 572.572975 334.177149 
L 572.137641 334.055185 
L 570.613973 333.712848 
L 570.396306 333.578639 
L 567.893136 333.388631 
L 567.784303 333.340607 
L 566.369468 333.142966 
L 566.369468 333.034833 
L 563.430965 332.791317 
L 562.560297 332.622821 
L 561.254296 332.413327 
L 559.621794 332.136769 
L 557.445125 331.81763 
L 557.336291 331.695642 
L 555.70379 331.429926 
L 554.506622 331.278043 
L 552.765286 330.922807 
L 551.459285 330.703814 
L 549.064949 330.285292 
L 545.799945 329.857027 
L 544.820444 329.612143 
L 543.405609 329.372803 
L 541.120107 329.119548 
L 540.684773 328.947621 
L 539.269938 328.723533 
L 536.113768 328.364159 
L 533.501765 328.061095 
L 526.754091 327.299728 
L 526.645258 327.224032 
L 520.11525 326.407489 
L 519.353416 326.242968 
L 517.612081 326.041121 
L 515.000078 325.812692 
L 512.823409 325.641826 
L 504.443233 324.707569 
L 503.790232 324.525105 
L 502.810731 324.462844 
L 502.593064 324.411209 
L 500.307562 324.311405 
L 495.736557 324.044732 
L 493.233387 323.784066 
L 488.118215 323.574226 
L 486.812214 323.586929 
L 484.309044 323.180623 
L 481.588208 322.999072 
L 480.064539 322.726664 
L 478.432038 322.727244 
L 476.908369 322.687783 
L 468.201693 321.909209 
L 463.957188 321.901173 
L 463.848355 321.766744 
L 463.195354 321.663687 
L 452.420842 320.955369 
L 451.332508 320.805501 
L 448.611671 320.57707 
L 436.313491 319.747894 
L 429.02165 318.637337 
L 428.042149 318.54732 
L 427.171481 318.441634 
L 421.838642 318.058211 
L 417.04997 317.612806 
L 413.676133 317.626234 
L 409.105128 317.572081 
L 408.996294 317.505723 
L 407.799126 317.476417 
L 407.146125 317.283022 
L 403.772288 317.154137 
L 402.683954 317.095777 
L 399.854284 317.028083 
L 399.41895 316.955512 
L 396.045113 316.52911 
L 389.623939 316.311062 
L 387.556104 316.341956 
L 383.855766 316.019459 
L 378.740594 315.955052 
L 374.713756 315.889702 
L 373.734255 315.62515 
L 373.407755 315.539973 
L 371.013419 315.23904 
L 362.85091 315.417609 
L 358.171071 315.070598 
L 356.53857 315.12136 
L 356.212069 314.979113 
L 354.797234 314.788595 
L 348.702561 314.596456 
L 347.614226 314.29843 
L 345.764058 314.300157 
L 334.663045 314.071369 
L 332.812877 313.725083 
L 331.724542 313.75778 
L 323.670867 313.502675 
L 320.514696 312.927568 
L 313.005188 312.575965 
L 311.48152 312.245987 
L 308.760683 312.114362 
L 305.169179 312.054165 
L 301.686509 311.8368 
L 299.401006 311.468185 
L 297.550838 311.374021 
L 296.571337 310.997186 
L 287.973494 310.978211 
L 286.340992 310.673107 
L 286.232159 310.477698 
L 283.184822 310.229795 
L 279.810985 310.508068 
L 266.642137 310.216057 
L 263.2683 309.60984 
L 257.717794 309.320656 
L 255.758792 309.455823 
L 249.772952 308.840797 
L 243.895945 308.767126 
L 238.563106 308.471206 
L 236.386437 307.715857 
L 233.3391 307.05215 
L 229.421096 306.975118 
L 226.047259 307.104777 
L 213.857912 306.792099 
L 211.245909 306.629979 
L 207.001404 306.937642 
L 202.321566 306.699834 
L 195.356225 306.591291 
L 192.200055 305.82 
L 189.696885 306.198165 
L 185.778881 305.795088 
L 180.990209 304.857984 
L 172.065866 303.823228 
L 162.923856 303.18634 
L 160.85602 302.796967 
L 157.482183 301.595785 
L 153.237678 300.668616 
L 150.516842 299.291707 
L 147.034171 299.129832 
L 141.918999 297.233314 
L 141.048331 295.328465 
L 137.674494 297.36 
L 134.08299 298.109589 
L 130.27382 294.578773 
L 128.967818 295.961942 
L 126.573482 294.666475 
L 126.138148 287.786158 
L 124.396813 277.083529 
L 122.873145 273.205161 
L 121.022976 257.836596 
L 120.914142 259.2 
L 120.261142 248.935221 
L 119.608141 249.017143 
L 118.193306 226.407273 
L 117.213805 230.419459 
L 116.234304 234.96 
L 115.79897 259.396364 
L 115.690137 239.76 
L 115.47247 268.56 
L 115.363636 66.96 
L 115.363636 66.96 
" clip-path="url(#pba37247dbd)" style="fill: none; stroke: #9467bd; stroke-width: 2; stroke-linecap: square"/>
   </g>
   <g id="patch_3">
    <path d="M 90 384.48 
L 90 51.84 
" style="fill: none; stroke: #000000; stroke-width: 0.8; stroke-linejoin: miter; stroke-linecap: square"/>
   </g>
   <g id="patch_4">
    <path d="M 648 384.48 
L 648 51.84 
" style="fill: none; stroke: #000000; stroke-width: 0.8; stroke-linejoin: miter; stroke-linecap: square"/>
   </g>
   <g id="patch_5">
    <path d="M 90 384.48 
L 648 384.48 
" style="fill: none; stroke: #000000; stroke-width: 0.8; stroke-linejoin: miter; stroke-linecap: square"/>
   </g>
   <g id="patch_6">
    <path d="M 90 51.84 
L 648 51.84 
" style="fill: none; stroke: #000000; stroke-width: 0.8; stroke-linejoin: miter; stroke-linecap: square"/>
   </g>
   <g id="text_15">
    <!-- Precision-Recall Curve - Tous les folds -->
    <g transform="translate(256.651875 45.84) scale(0.12 -0.12)">
     <defs>
      <path id="DejaVuSans-2d" d="M 313 2009 
L 1997 2009 
L 1997 1497 
L 313 1497 
L 313 2009 
z
" transform="scale(0.015625)"/>
      <path id="DejaVuSans-20" transform="scale(0.015625)"/>
      <path id="DejaVuSans-43" d="M 4122 4306 
L 4122 3641 
Q 3803 3938 3442 4084 
Q 3081 4231 2675 4231 
Q 1875 4231 1450 3742 
Q 1025 3253 1025 2328 
Q 1025 1406 1450 917 
Q 1875 428 2675 428 
Q 3081 428 3442 575 
Q 3803 722 4122 1019 
L 4122 359 
Q 3791 134 3420 21 
Q 3050 -91 2638 -91 
Q 1578 -91 968 557 
Q 359 1206 359 2328 
Q 359 3453 968 4101 
Q 1578 4750 2638 4750 
Q 3056 4750 3426 4639 
Q 3797 4528 4122 4306 
z
" transform="scale(0.015625)"/>
      <path id="DejaVuSans-75" d="M 544 1381 
L 544 3500 
L 1119 3500 
L 1119 1403 
Q 1119 906 1312 657 
Q 1506 409 1894 409 
Q 2359 409 2629 706 
Q 2900 1003 2900 1516 
L 2900 3500 
L 3475 3500 
L 3475 0 
L 2900 0 
L 2900 538 
Q 2691 219 2414 64 
Q 2138 -91 1772 -91 
Q 1169 -91 856 284 
Q 544 659 544 1381 
z
M 1991 3584 
L 1991 3584 
z
" transform="scale(0.015625)"/>
      <path id="DejaVuSans-76" d="M 191 3500 
L 800 3500 
L 1894 563 
L 2988 3500 
L 3597 3500 
L 2284 0 
L 1503 0 
L 191 3500 
z
" transform="scale(0.015625)"/>
      <path id="DejaVuSans-54" d="M -19 4666 
L 3928 4666 
L 3928 4134 
L 2272 4134 
L 2272 0 
L 1638 0 
L 1638 4134 
L -19 4134 
L -19 4666 
z
" transform="scale(0.015625)"/>
      <path id="DejaVuSans-66" d="M 2375 4863 
L 2375 4384 
L 1825 4384 
Q 1516 4384 1395 4259 
Q 1275 4134 1275 3809 
L 1275 3500 
L 2222 3500 
L 2222 3053 
L 1275 3053 
L 1275 0 
L 697 0 
L 697 3053 
L 147 3053 
L 147 3500 
L 697 3500 
L 697 3744 
Q 697 4328 969 4595 
Q 1241 4863 1831 4863 
L 2375 4863 
z
" transform="scale(0.015625)"/>
      <path id="DejaVuSans-64" d="M 2906 2969 
L 2906 4863 
L 3481 4863 
L 3481 0 
L 2906 0 
L 2906 525 
Q 2725 213 2448 61 
Q 2172 -91 1784 -91 
Q 1150 -91 751 415 
Q 353 922 353 1747 
Q 353 2572 751 3078 
Q 1150 3584 1784 3584 
Q 2172 3584 2448 3432 
Q 2725 3281 2906 2969 
z
M 947 1747 
Q 947 1113 1208 752 
Q 1469 391 1925 391 
Q 2381 391 2643 752 
Q 2906 1113 2906 1747 
Q 2906 2381 2643 2742 
Q 2381 3103 1925 3103 
Q 1469 3103 1208 2742 
Q 947 2381 947 1747 
z
" transform="scale(0.015625)"/>
     </defs>
     <use xlink:href="#DejaVuSans-50"/>
     <use xlink:href="#DejaVuSans-72" x="58.552734"/>
     <use xlink:href="#DejaVuSans-65" x="97.416016"/>
     <use xlink:href="#DejaVuSans-63" x="158.939453"/>
     <use xlink:href="#DejaVuSans-69" x="213.919922"/>
     <use xlink:href="#DejaVuSans-73" x="241.703125"/>
     <use xlink:href="#DejaVuSans-69" x="293.802734"/>
     <use xlink:href="#DejaVuSans-6f" x="321.585938"/>
     <use xlink:href="#DejaVuSans-6e" x="382.767578"/>
     <use xlink:href="#DejaVuSans-2d" x="446.146484"/>
     <use xlink:href="#DejaVuSans-52" x="482.230469"/>
     <use xlink:href="#DejaVuSans-65" x="547.212891"/>
     <use xlink:href="#DejaVuSans-63" x="608.736328"/>
     <use xlink:href="#DejaVuSans-61" x="663.716797"/>
     <use xlink:href="#DejaVuSans-6c" x="724.996094"/>
     <use xlink:href="#DejaVuSans-6c" x="752.779297"/>
     <use xlink:href="#DejaVuSans-20" x="780.5625"/>
     <use xlink:href="#DejaVuSans-43" x="812.349609"/>
     <use xlink:href="#DejaVuSans-75" x="882.173828"/>
     <use xlink:href="#DejaVuSans-72" x="945.552734"/>
     <use xlink:href="#DejaVuSans-76" x="986.666016"/>
     <use xlink:href="#DejaVuSans-65" x="1045.845703"/>
     <use xlink:href="#DejaVuSans-20" x="1107.369141"/>
     <use xlink:href="#DejaVuSans-2d" x="1139.15625"/>
     <use xlink:href="#DejaVuSans-20" x="1175.240234"/>
     <use xlink:href="#DejaVuSans-54" x="1207.027344"/>
     <use xlink:href="#DejaVuSans-6f" x="1251.111328"/>
     <use xlink:href="#DejaVuSans-75" x="1312.292969"/>
     <use xlink:href="#DejaVuSans-73" x="1375.671875"/>
     <use xlink:href="#DejaVuSans-20" x="1427.771484"/>
     <use xlink:href="#DejaVuSans-6c" x="1459.558594"/>
     <use xlink:href="#DejaVuSans-65" x="1487.341797"/>
     <use xlink:href="#DejaVuSans-73" x="1548.865234"/>
     <use xlink:href="#DejaVuSans-20" x="1600.964844"/>
     <use xlink:href="#DejaVuSans-66" x="1632.751953"/>
     <use xlink:href="#DejaVuSans-6f" x="1667.957031"/>
     <use xlink:href="#DejaVuSans-6c" x="1729.138672"/>
     <use xlink:href="#DejaVuSans-64" x="1756.921875"/>
     <use xlink:href="#DejaVuSans-73" x="1820.398438"/>
    </g>
   </g>
   <g id="legend_1">
    <g id="patch_7">
     <path d="M 97 379.48 
L 159.175 379.48 
Q 161.175 379.48 161.175 377.48 
L 161.175 305.089375 
Q 161.175 303.089375 159.175 303.089375 
L 97 303.089375 
Q 95 303.089375 95 305.089375 
L 95 377.48 
Q 95 379.48 97 379.48 
z
" style="fill: #ffffff; opacity: 0.8; stroke: #cccccc; stroke-linejoin: miter"/>
    </g>
    <g id="line2d_18">
     <path d="M 99 311.187813 
L 109 311.187813 
L 119 311.187813 
" style="fill: none; stroke: #1f77b4; stroke-width: 2; stroke-linecap: square"/>
    </g>
    <g id="text_16">
     <!-- Fold 1 -->
     <g transform="translate(127 314.687813) scale(0.1 -0.1)">
      <defs>
       <path id="DejaVuSans-46" d="M 628 4666 
L 3309 4666 
L 3309 4134 
L 1259 4134 
L 1259 2759 
L 3109 2759 
L 3109 2228 
L 1259 2228 
L 1259 0 
L 628 0 
L 628 4666 
z
" transform="scale(0.015625)"/>
      </defs>
      <use xlink:href="#DejaVuSans-46"/>
      <use xlink:href="#DejaVuSans-6f" x="53.894531"/>
      <use xlink:href="#DejaVuSans-6c" x="115.076172"/>
      <use xlink:href="#DejaVuSans-64" x="142.859375"/>
      <use xlink:href="#DejaVuSans-20" x="206.335938"/>
      <use xlink:href="#DejaVuSans-31" x="238.123047"/>
     </g>
    </g>
    <g id="line2d_19">
     <path d="M 99 325.865937 
L 109 325.865937 
L 119 325.865937 
" style="fill: none; stroke: #ff7f0e; stroke-width: 2; stroke-linecap: square"/>
    </g>
    <g id="text_17">
     <!-- Fold 2 -->
     <g transform="translate(127 329.365937) scale(0.1 -0.1)">
      <use xlink:href="#DejaVuSans-46"/>
      <use xlink:href="#DejaVuSans-6f" x="53.894531"/>
      <use xlink:href="#DejaVuSans-6c" x="115.076172"/>
      <use xlink:href="#DejaVuSans-64" x="142.859375"/>
      <use xlink:href="#DejaVuSans-20" x="206.335938"/>
      <use xlink:href="#DejaVuSans-32" x="238.123047"/>
     </g>
    </g>
    <g id="line2d_20">
     <path d="M 99 340.544062 
L 109 340.544062 
L 119 340.544062 
" style="fill: none; stroke: #2ca02c; stroke-width: 2; stroke-linecap: square"/>
    </g>
    <g id="text_18">
     <!-- Fold 3 -->
     <g transform="translate(127 344.044062) scale(0.1 -0.1)">
      <defs>
       <path id="DejaVuSans-33" d="M 2597 2516 
Q 3050 2419 3304 2112 
Q 3559 1806 3559 1356 
Q 3559 666 3084 287 
Q 2609 -91 1734 -91 
Q 1441 -91 1130 -33 
Q 819 25 488 141 
L 488 750 
Q 750 597 1062 519 
Q 1375 441 1716 441 
Q 2309 441 2620 675 
Q 2931 909 2931 1356 
Q 2931 1769 2642 2001 
Q 2353 2234 1838 2234 
L 1294 2234 
L 1294 2753 
L 1863 2753 
Q 2328 2753 2575 2939 
Q 2822 3125 2822 3475 
Q 2822 3834 2567 4026 
Q 2313 4219 1838 4219 
Q 1578 4219 1281 4162 
Q 984 4106 628 3988 
L 628 4550 
Q 988 4650 1302 4700 
Q 1616 4750 1894 4750 
Q 2613 4750 3031 4423 
Q 3450 4097 3450 3541 
Q 3450 3153 3228 2886 
Q 3006 2619 2597 2516 
z
" transform="scale(0.015625)"/>
      </defs>
      <use xlink:href="#DejaVuSans-46"/>
      <use xlink:href="#DejaVuSans-6f" x="53.894531"/>
      <use xlink:href="#DejaVuSans-6c" x="115.076172"/>
      <use xlink:href="#DejaVuSans-64" x="142.859375"/>
      <use xlink:href="#DejaVuSans-20" x="206.335938"/>
      <use xlink:href="#DejaVuSans-33" x="238.123047"/>
     </g>
    </g>
    <g id="line2d_21">
     <path d="M 99 355.222188 
L 109 355.222188 
L 119 355.222188 
" style="fill: none; stroke: #d62728; stroke-width: 2; stroke-linecap: square"/>
    </g>
    <g id="text_19">
     <!-- Fold 4 -->
     <g transform="translate(127 358.722188) scale(0.1 -0.1)">
      <use xlink:href="#DejaVuSans-46"/>
      <use xlink:href="#DejaVuSans-6f" x="53.894531"/>
      <use xlink:href="#DejaVuSans-6c" x="115.076172"/>
      <use xlink:href="#DejaVuSans-64" x="142.859375"/>
      <use xlink:href="#DejaVuSans-20" x="206.335938"/>
      <use xlink:href="#DejaVuSans-34" x="238.123047"/>
     </g>
    </g>
    <g id="line2d_22">
     <path d="M 99 369.900313 
L 109 369.900313 
L 119 369.900313 
" style="fill: none; stroke: #9467bd; stroke-width: 2; stroke-linecap: square"/>
    </g>
    <g id="text_20">
     <!-- Fold 5 -->
     <g transform="translate(127 373.400313) scale(0.1 -0.1)">
      <defs>
       <path id="DejaVuSans-35" d="M 691 4666 
L 3169 4666 
L 3169 4134 
L 1269 4134 
L 1269 2991 
Q 1406 3038 1543 3061 
Q 1681 3084 1819 3084 
Q 2600 3084 3056 2656 
Q 3513 2228 3513 1497 
Q 3513 744 3044 326 
Q 2575 -91 1722 -91 
Q 1428 -91 1123 -41 
Q 819 9 494 109 
L 494 744 
Q 775 591 1075 516 
Q 1375 441 1709 441 
Q 2250 441 2565 725 
Q 2881 1009 2881 1497 
Q 2881 1984 2565 2268 
Q 2250 2553 1709 2553 
Q 1456 2553 1204 2497 
Q 953 2441 691 2322 
L 691 4666 
z
" transform="scale(0.015625)"/>
      </defs>
      <use xlink:href="#DejaVuSans-46"/>
      <use xlink:href="#DejaVuSans-6f" x="53.894531"/>
      <use xlink:href="#DejaVuSans-6c" x="115.076172"/>
      <use xlink:href="#DejaVuSans-64" x="142.859375"/>
      <use xlink:href="#DejaVuSans-20" x="206.335938"/>
      <use xlink:href="#DejaVuSans-35" x="238.123047"/>
     </g>
    </g>
   </g>
  </g>
 </g>
 <defs>
  <clipPath id="pba37247dbd">
   <rect x="90" y="51.84" width="558" height="332.64"/>
  </clipPath>
 </defs>
</svg>
